<?xml version="1.0" encoding="UTF-8"?>
<svg id="Layer_2" data-name="Layer 2" xmlns="http://www.w3.org/2000/svg" viewBox="0 0 214.12 135.74">
  <defs>
    <style>
      .cls-1 {
        fill: #fff;
      }

      .cls-2 {
        fill: #2a3967;
      }

      .cls-3 {
        fill: #214a80;
      }

      .cls-4 {
        fill: #1e3865;
      }

      .cls-5 {
        fill: #ff912b;
      }

      .cls-6 {
        fill: #1a4379;
      }

      .cls-7, .cls-8 {
        fill: #e8f2fa;
      }

      .cls-9 {
        fill: #a9c2ff;
      }

      .cls-10 {
        fill: #2d3554;
      }

      .cls-11 {
        fill: #25468f;
      }

      .cls-8, .cls-12 {
        opacity: .5;
      }

      .cls-13 {
        fill: #f99352;
      }

      .cls-12 {
        fill: #bfdcff;
      }

      .cls-14 {
        fill: #0b3563;
      }

      .cls-15 {
        fill: #dceaff;
      }

      .cls-16 {
        fill: #26529f;
      }

      .cls-17 {
        fill: #37b34a;
        opacity: .63;
      }

      .cls-18 {
        fill: #f9fbfd;
      }

      .cls-19 {
        fill: #fc7600;
      }

      .cls-20 {
        fill: #f70;
      }

      .cls-21 {
        fill: #214d9a;
      }

      .cls-22 {
        fill: #ffa05e;
      }

      .cls-23 {
        fill: #fddbba;
      }

      .cls-24 {
        fill: #ffae73;
      }

      .cls-25 {
        fill: #6b98f6;
      }

      .cls-26 {
        fill: #f1f1f2;
      }

      .cls-27 {
        fill: #f28018;
      }

      .cls-28 {
        fill: #f9924f;
      }
    </style>
  </defs>
  <g id="Layer_1-2" data-name="Layer 1">
    <g>
      <path class="cls-15" d="m86.99,34.3l3.18-.36c.26-.03.52.1.67.32.18.29.38.56.59.84.39.51.81.98,1.26,1.4.21.2.28.5.17.77l-1.22,3.11c-.13.33.01.71.34.87l2.74,1.35c.31.15.68.05.87-.24l1.65-2.59c.16-.26.46-.37.76-.29,1.26.33,2.57.46,3.87.39.32-.02.61.19.7.49l.56,1.78c.11.34.46.55.81.48l2.97-.6c.06-.01.12-.03.17-.06.26-.12.42-.4.38-.7l-.26-2.37-.07-.58c.49-.28.98-.6,1.44-.95.62-.48,1.19-1,1.69-1.57.19-.21.49-.29.76-.18l2.5.98c.34.13.73-.02.89-.35l1.04-2.09.3-.6c.16-.33.05-.73-.25-.92l-2.17-1.38c-.25-.16-.38-.46-.31-.74.2-.85.31-1.73.33-2.6,0-.08,0-.15,0-.22,0-.03,0-.05,0-.07.03-.28.22-.51.49-.6l2.9-.92s.07-.02.09-.04c.28-.14.44-.45.38-.77l-.59-2.96c-.07-.36-.4-.6-.77-.56l-3.31.37c-.28.04-.55-.11-.68-.36-.3-.54-.64-1.07-1.04-1.59-.21-.27-.42-.53-.65-.78-.18-.2-.24-.49-.14-.74l1.17-2.99c.13-.33-.01-.71-.33-.86l-2.71-1.34c-.33-.16-.72-.06-.92.26l-1.31,2.05c-.18.28-.51.39-.82.29-1.2-.42-2.46-.64-3.74-.67-.3,0-.57-.2-.66-.49l-.83-2.61c-.11-.35-.47-.56-.83-.49l-2.95.59c-.35.07-.6.4-.55.76v.14s.32,2.76.32,2.76c.03.3-.12.57-.38.71h0c-.63.33-1.25.72-1.83,1.17-.31.24-.61.49-.89.76-.2.19-.48.24-.73.14l-2.54-1c-.35-.14-.74.02-.91.35l-1.33,2.7c-.04.08-.06.16-.07.24-.03.26.09.52.32.67l1.73,1.1c.21.14.33.38.32.62,0,.06-.01.13-.04.19-.53,1.55-.74,3.18-.62,4.81.02.28-.13.53-.37.66-.03.02-.07.03-.11.05l-2.35.74c-.34.11-.54.45-.48.81v.07s.59,2.89.59,2.89c.08.36.41.61.78.57Zm20.31-9.02c.18.45.33.94.43,1.47.19,1,0,2.57-.46,3.49-.05.1-.1.19-.15.29-3.11,5.77-11.25,4.62-12.59-1.89-.17-.85-.07-2.09.24-3.04.07-.22.15-.42.24-.6.41-.83.93-1.52,1.52-2.09,3.34-3.21,8.93-2.16,10.77,2.37Z"/>
      <path class="cls-15" d="m187.82,23.18c-3.05-6.14-13.6-1.94-13.6-1.94,0,0-5.18,12.84-7.29,13.54-2.11.7,2.29-11.84,2.29-11.84-4.27.43-13.94,7.69-13.94,7.69,0,0,3.31,13.12,1.09,13.28-2.22.16-2.34-11.77-2.34-11.77-3.82,2.02-6.66,7.51-6.66,7.51-3.2,8.65,8.07,12.32,8.07,12.32,0,0,1.05,4.57-.74,10.41h0s-.45,1.1-.77,2.89l1.11-.22c.03-.31.07-.62.13-.92,0,0,0,0,0,0,0,0,0,0,0-.01.04-.19.1-.45.18-.77,0,0,0,0,0,0,0,0,0,0,0,0,.21-.73.34-1.26.41-1.64,0,0,0,0,0,0,.6-2.28,1.52-5.27,2.38-6.04,0,0-.16-.15-.34-.46.11.15.22.3.34.46,2.7,3.68,12.3,2.48,17.36.35,5.06-2.13,2.47-3.16-.86-5.01-3.32-1.85-9.15-.03-11.09-.63-1.95-.6.44-2.06,4.01-2.48,3.57-.43,6.03,2.74,11.82,2.15,5.79-.59,7.99-12.13,7.99-12.13-3.68,2-11.15,1.23-11.68-.07s9.9-3.23,11.45-3.96c1.54-.73,3.74-4.54.69-10.68Z"/>
      <path class="cls-15" d="m13.68,70.4c-1.24-6.75,9.73-9.7,9.73-9.7,0,0,11.84,7.17,13.95,6.47,2.11-.7-8.93-8.11-8.93-8.11,3.68-2.22,15.77-2.2,15.77-2.2,0,0,5.21,12.49,7.08,11.29,1.87-1.2-5.18-10.82-5.18-10.82,4.27-.67,9.84,2.02,9.84,2.02,7.75,5.01.92,14.7.92,14.7,0,0,1.9,4.29,6.83,7.89h0s1.02.61,2.35,1.85l-1.02.49c-.21-.23-.43-.45-.65-.66,0,0,0,0,0,0,0,0,0,0,0,0-.14-.12-.35-.3-.61-.51,0,0,0,0,0,0,0,0,0,0,0,0-.6-.46-1.03-.81-1.32-1.07,0,0,0,0,0,0-1.85-1.46-4.38-3.31-5.52-3.4,0,0,.04-.21,0-.57,0,.18,0,.37,0,.57.04,4.57-8.37,9.36-13.69,10.68-5.33,1.33-3.87-1.05-2.32-4.53,1.55-3.47,7.3-5.51,8.5-7.15,1.2-1.64-1.58-1.38-4.7.41-3.12,1.8-3.18,5.81-8.17,8.8-4.99,3-13.67-4.92-13.67-4.92,4.14-.61,9.66-5.69,9.31-7.06-.35-1.36-9.87,3.35-11.54,3.69-1.67.34-5.71-1.39-6.95-8.14Z"/>
      <path class="cls-15" d="m194.32,113.69c5.4-4.23-.86-13.71-.86-13.71,0,0-13.63-2.47-14.74-4.4-1.11-1.92,12.06-.16,12.06-.16-1.29-4.1-10.36-12.09-10.36-12.09,0,0-12.18,5.9-12.78,3.76-.61-2.14,11.05-4.68,11.05-4.68-2.76-3.33-8.71-5-8.71-5-9.12-1.38-10.42,10.4-10.42,10.4,0,0-4.26,1.95-10.35,1.38h0s-1.17-.22-2.98-.17l.44,1.04c.31-.03.62-.05.93-.06,0,0,0,0,0,0,0,0,0,0,.01,0,.19,0,.46,0,.79.02,0,0,0,0,0,0,0,0,0,0,0,0,.76.05,1.31.07,1.69.07,0,0,0,0,0,0,2.35.13,5.47.42,6.39,1.11,0,0,.11-.18.38-.42-.12.14-.25.28-.38.42-3.06,3.39.07,12.55,3.18,17.07,3.11,4.52,3.6,1.77,4.73-1.85,1.14-3.63-1.82-8.96-1.63-10.99.19-2.03,2.1,0,3.24,3.42,1.14,3.41-1.46,6.46.29,12.01,1.75,5.55,13.5,5.37,13.5,5.37-2.7-3.2-3.46-10.66-2.3-11.46,1.16-.79,5.17,9.04,6.2,10.41,1.03,1.36,5.2,2.74,10.6-1.49Z"/>
      <g>
        <path class="cls-12" d="m145.32,34.29s.63-12.64,6.54-20.56c.79-1.05,2.46-.53,2.53.78,0,.02,0,.04,0,.07.07,2.24-6.47,12.17-9.07,19.72Z"/>
        <path class="cls-12" d="m144.78,37.93s5.32-16.11,15.78-23.79c.64-.47,1.55-.38,2.04.24.32.4.5,1.06.24,2.11-.68,2.82-12.23,12.93-18.06,21.44Z"/>
      </g>
      <g>
        <path class="cls-12" d="m54.28,54.82s-5.3-9.25-12.77-12.94c-.99-.49-2.05.54-1.6,1.55,0,.02.02.03.02.05.8,1.71,9.51,6.67,14.34,11.34Z"/>
        <path class="cls-12" d="m56.07,57.35s-10.15-10.07-20.94-11.84c-.66-.11-1.31.31-1.44.96-.09.43.03.98.63,1.68,1.59,1.85,14.13,5.04,21.75,9.2Z"/>
      </g>
      <path class="cls-17" d="m171.38,34.82v80.24c0,1.4-1.01,2.54-2.26,2.54H53.35c-1.25,0-2.26-1.14-2.26-2.54V34.82c0-1.4,1.01-2.54,2.26-2.54h115.77c1.25,0,2.26,1.14,2.26,2.54Z"/>
      <g>
        <path class="cls-26" d="m165.65,30.24v6.51H36.46v-6.51c0-1.34,1.09-2.43,2.43-2.43h124.33c1.34,0,2.43,1.09,2.43,2.43Z"/>
        <g>
          <path class="cls-18" d="m40.41,32.28c0-.62.51-1.13,1.13-1.13s1.13.51,1.13,1.13-.51,1.13-1.13,1.13-1.13-.51-1.13-1.13Z"/>
          <path class="cls-18" d="m44.87,32.28c0-.62.51-1.13,1.13-1.13s1.13.51,1.13,1.13-.51,1.13-1.13,1.13-1.13-.51-1.13-1.13Z"/>
          <path class="cls-18" d="m49.44,32.28c0-.62.51-1.13,1.13-1.13s1.13.51,1.13,1.13-.51,1.13-1.13,1.13-1.13-.51-1.13-1.13Z"/>
        </g>
      </g>
      <path class="cls-15" d="m120.16,20.8l1.55-.17c.13-.01.25.05.32.16.09.14.19.28.29.41.19.25.39.48.61.68.1.1.14.24.08.37l-.59,1.51c-.06.16,0,.35.16.42l1.33.66c.15.07.33.02.42-.12l.81-1.26c.08-.12.23-.18.37-.14.61.16,1.25.23,1.89.19.15,0,.3.09.34.24l.27.87c.05.16.22.27.39.23l1.45-.29s.06-.01.08-.03c.13-.06.2-.2.19-.34l-.13-1.16-.03-.28c.24-.14.48-.29.7-.46.3-.23.58-.49.82-.76.09-.1.24-.14.37-.09l1.22.48c.17.06.36,0,.43-.17l.5-1.02.14-.29c.08-.16.03-.35-.12-.45l-1.05-.67c-.12-.08-.18-.22-.15-.36.1-.42.15-.84.16-1.27,0-.04,0-.07,0-.11,0-.01,0-.02,0-.04.01-.14.11-.25.24-.29l1.41-.45s.03-.01.05-.02c.14-.07.22-.22.19-.37l-.29-1.44c-.04-.17-.2-.29-.37-.27l-1.61.18c-.14.02-.27-.05-.33-.17-.15-.26-.31-.52-.51-.77-.1-.13-.21-.26-.32-.38-.09-.1-.12-.24-.07-.36l.57-1.46c.06-.16,0-.34-.16-.42l-1.32-.65c-.16-.08-.35-.03-.45.12l-.64,1c-.09.13-.25.19-.4.14-.59-.2-1.2-.31-1.82-.33-.15,0-.28-.1-.32-.24l-.4-1.27c-.05-.17-.23-.27-.4-.24l-1.44.29c-.17.03-.29.2-.27.37v.07s.16,1.34.16,1.34c.02.14-.06.28-.19.35h0c-.31.16-.61.35-.89.57-.15.12-.3.24-.43.37-.1.09-.23.12-.36.07l-1.24-.49c-.17-.07-.36,0-.44.17l-.65,1.31s-.03.08-.03.12c-.01.13.05.25.16.33l.84.54c.1.07.16.18.16.3,0,.03,0,.06-.02.09-.26.75-.36,1.55-.3,2.34.01.13-.06.26-.18.32-.02,0-.03.02-.05.02l-1.14.36c-.17.05-.27.22-.23.39v.03s.29,1.41.29,1.41c.04.18.2.3.38.28Zm9.89-4.39c.09.22.16.46.21.71.09.49,0,1.25-.22,1.7-.02.05-.05.09-.07.14-1.51,2.81-5.48,2.25-6.13-.92-.08-.41-.03-1.02.12-1.48.04-.11.07-.21.12-.29.2-.4.45-.74.74-1.02,1.63-1.56,4.35-1.05,5.25,1.15Z"/>
      <g>
        <path class="cls-2" d="m48.53,93.4s.17-1.88-1.93-1.88c0,0,.64.17.96.52,0,0-1.34-.79-2.79.42-1.46,1.21-.55,4.23-.99,4.81-.44.57-2.17.69-1.96,2.55.21,1.86,5.47,4.19,5.14,5.72,0,0,2.06-3.03.59-4.41,0,0,.72.68.79,1.48,0,0,.2-1.57-.8-2.07-.88-.44-1.61-2.07-1.53-2.36.08-.29,2.53-4.77,2.53-4.77Z"/>
        <path class="cls-24" d="m46.46,102.41s1.57,6.48,3.11,7.78c.92.78,3.67,2.57,3.67,2.57l-1.14.42s-3.81-1.29-4.67-2.29c-.85-1-3.19-6.03-3.19-6.03l2.22-2.44Z"/>
        <path class="cls-16" d="m31.73,113.8s.03.05.04.08c.34.6,1.13,2.06,2,3.66.41.76.84,1.55,1.25,2.29.7,1.28,1.34,2.42,1.71,3.03.38.61.66,1.04.77,1.22h0c.03.05.04.12.04.18-.04.54-.03,1.08.02,1.61.52,5.2,4.03,7.99,4.03,7.99l1.04.15s-1.48-5.47-1.91-8.56c-.07-.52-.11-.95-.08-1.23.08-.81-.07-1.99-.34-3.34-.48-2.41-1.36-5.37-2.13-7.74-.05-.15-1.51-5.46-1.51-5.46-1.23,1.08-5.72,1.52-5.72,1.52,0,0-.76,1.85.79,4.61Z"/>
        <path class="cls-6" d="m44.82,135.32h-4.35s-.1-.66.12-1.17c.22-.48.53-.5.04-1.26.28.28,1.17.4,1.79.32.08.12.5.96.75,1.15.28.2,1.55.13,1.64.96Z"/>
        <path class="cls-4" d="m31.73,113.8s.03.05.04.08c.34.6,2.2,4.02,3.06,5.62-1-4.13-.31-8.26-.31-8.26l-2.8,2.57Z"/>
        <path class="cls-2" d="m47.94,93.13c.03-.11-2.49,1.14-2.61,1.28-1.18,1.31-.84,3.01-.17,3.03.43.01.35.73.35.73l4.82-2.04s-.58-3.38-2.39-3Z"/>
        <path class="cls-5" d="m46.32,101.44s.73,1.47.64,2.65c0,0-.88,1.4-3.18,1.75,0,0,1.97-4.41,2.54-4.4Z"/>
        <path class="cls-16" d="m35.13,109.52v-.81c-1.61.2-5.58-1.94-5.58-1.94,0,0-1.7,1.13-1.93,4.35-.11,1.57-.83,8.22-.91,10.21-.03.72-.04,1.23-.04,1.44,0,0,0,0,0,0,0,.06-.03.12-.07.17-.34.43-.63.88-.88,1.35-2.47,4.6-1.18,10.86-1.18,10.86l.57-.15s2.09-6.49,3.46-9.29c.23-.48.44-.85.62-1.06.51-.62,1.06-1.69,1.59-2.96,1.01-2.41,4.34-12.17,4.34-12.17Z"/>
        <path class="cls-6" d="m28,135.32h-4.35s-.1-.66.12-1.17c.22-.48.56-.7.48-1.29.28.28.73.6,1.36.52.08.13.5.79.76.98.28.2,1.55.13,1.64.96Z"/>
        <path class="cls-5" d="m43.49,106.78c-.58.1.1.56-.71.65-1.14.12-2.33.21-2.94.46-.23.09-.38.2-.42.34-.27.81-1.97,2.19-1.97,2.19-7.58-.34-8.07-3.72-8.07-3.72,4.92-4.78,9.1-7.38,12.56-7.7.84-.08,1.98.03,2.51.26,1.21.54,1.87,2.18,1.87,2.18,0,0-.61,4.96-2.83,5.34Z"/>
        <path class="cls-19" d="m42.78,107.43c-1.14.12-2.33.21-2.94.46-.25-3.78,1.53-6.62,1.53-6.62,0,0,1.16,4.73,1.41,6.16Z"/>
        <path class="cls-24" d="m44.38,99.57c.22.68.94,2.61,1.94,1.87-.03-.14.18-.56.42-.99.32-.54.69-1.1.69-1.1l-1.63-1.43-.1-.09c-.43.74-.84,1.1-1.21,1.38-.11.08-.16.23-.12.36Z"/>
        <path class="cls-13" d="m47.43,99.35s-.38.55-.69,1.1c-1.01-.62-1.01-1.88-.94-2.53l1.63,1.43Z"/>
        <path class="cls-24" d="m47.48,100.07s-2.46-1.37-1.58-2.89c.88-1.52,1.15-2.72,2.75-1.91,1.61.81,1.57,1.56,1.41,2.14-.17.58-1.91,2.97-2.58,2.65Z"/>
        <path class="cls-2" d="m50.47,96.53c-.11-.67-.45-.74-.69-.69-.91-1.5-2.39-.92-2.39-.92-.79.99-1.94,1.16-1.94,1.16,0,0,.29.53,1.46.86.36.1.77.04,1.16-.09-.82.45-1.67.63-1.67.63,1.55.14,3.02-1.27,3.18-1.43.07.22.2.68.12,1.01-.1.46-.51,1.28-.26,1.39,0,0,1.2-.92,1.03-1.93Z"/>
        <g>
          <rect class="cls-11" x="54.42" y="120.21" width="20.4" height="5.35" transform="translate(60.39 -15.89) rotate(25.99)"/>
          <path class="cls-11" d="m48.54,121.83c-1.68-.82-2.88-2.34-3.28-4.17-.16-.74.31-1.48,1.05-1.64.74-.16,1.48.31,1.64,1.05.22,1,.88,1.84,1.8,2.29,1.65.81,3.66.12,4.46-1.54.81-1.65.12-3.66-1.54-4.46-.75-.37-1.61-.44-2.41-.2-.73.22-1.5-.2-1.71-.93-.22-.73.2-1.5.93-1.71,1.46-.43,3.02-.3,4.4.37,3.02,1.47,4.28,5.13,2.81,8.15-1.47,3.02-5.13,4.28-8.15,2.81Z"/>
          <path class="cls-11" d="m74.48,134.48c-3.02-1.47-4.28-5.13-2.81-8.15,1.47-3.02,5.13-4.28,8.15-2.81,1.37.67,2.44,1.82,3,3.24.28.71-.07,1.51-.78,1.79-.71.28-1.51-.07-1.79-.78-.31-.78-.89-1.41-1.64-1.77-1.65-.81-3.66-.12-4.46,1.54-.81,1.65-.12,3.66,1.54,4.46.92.45,1.98.45,2.91,0,.69-.33,1.51-.04,1.84.65.33.69.04,1.51-.65,1.84-1.69.81-3.63.81-5.31-.02Z"/>
          <path class="cls-4" d="m63.62,116.46h.56c.31,0,.56.25.56.56v10.75c0,.31-.25.56-.56.56h-.56c-.31,0-.56-.25-.56-.56v-10.75c0-.31.25-.56.56-.56Z" transform="translate(-74.12 126.19) rotate(-64.01)"/>
        </g>
        <path class="cls-24" d="m46.07,116.94s.05.46.25.69c.19.24.76.81.77,1.14,0,0-.03.15-.15.12-.12-.03-.54-.44-.76-.41,0,0,.11.67.23.86.11.19.32.9.25,1.06s-1.21-.79-1.55-1.25c-.35-.46,0-2.35,0-2.35l.97.13Z"/>
        <path class="cls-24" d="m43.76,100.62s-2.88-.16-3.39,1.65c-.51,1.81.96,9.02,1.28,9.76.58,1.35,3.39,5.22,3.39,5.22l1.03-.31s-1.87-5.91-2.29-6.49c-.66-.92.85-9.04-.02-9.83Z"/>
        <path class="cls-5" d="m39.81,104.69s2.72.5,4.42-.36c0,0,1.42-4.45-.61-4.23-2.03.21-3.23.85-3.28,1.82-.05.97-.53,2.77-.53,2.77Z"/>
        <path class="cls-24" d="m51.83,109.87c-.14,0-.39.05-.48.12-.16.12-.33.33.02.51.53.26,1.58.15,1.54-.01-.13-.5-.32-.65-1.08-.61Z"/>
      </g>
      <g>
        <path class="cls-24" d="m66.99,39.1c-.14.16-.16.34-.09.53,0,0,0,0,0,0,.13.35.55.74,1.03,1.13.06.05.12.1.17.14.01.01.03.02.04.03,0,0,.02.02.03.03.45.42.28.51,1.1,1.36.93.97,1.57.99,1.75.9.15-.08-.16-.59-.51-1.17-.02-.03-.03-.06-.05-.08-.05-.08-.09-.15-.14-.23-.41-.69-.3-1.02-.21-2.06.08-.84,1.31-4.7,1.31-4.7l-1.78-.31s-.54,3.07-1.13,3.54c-.32.25-.67.26-.98.44-.02.01-.04.03-.06.04-.17.11-.35.23-.49.39Z"/>
        <path class="cls-4" d="m66.99,39.1c-.14.16-.16.34-.09.53,0,0,0,0,0,0,.16.35.56.74,1.04,1.13.06.05.12.1.16.14.01.01.03.02.04.03,0,0,.02.02.03.03.45.42.28.51,1.1,1.36.93.97,1.57.99,1.75.9.15-.08-.16-.59-.51-1.17-.18-.07-1.02-.41-1.66-1.22-.56-.72-.93-1.63-1.32-2.17-.02.01-.04.03-.06.04-.17.11-.35.23-.49.39Z"/>
        <path class="cls-24" d="m81.38,37.99c.11.55.9.46,1.77.24.88-.21.67.04,1.92-.1,1.25-.14,1.63-.6,1.66-.79.03-.16-.58-.22-1.24-.3-.08,0-.17-.02-.25-.03-.75-.09-1.29-.58-1.97-.97-.64-.37-1.6-1.9-1.6-1.9l-1.71.14s.9,1.36,1.25,1.96c.2.35.19.81.17,1.17-.01.19-.03.39.01.59Z"/>
        <path class="cls-4" d="m83.15,38.23c.88-.21.67.04,1.92-.1,1.25-.14,1.63-.6,1.66-.79.03-.16-.58-.22-1.24-.3h0s-.75.54-1.79.57c-.85.02-1.74-.22-2.33-.21-.01.19-.03.39.01.59.11.55.9.46,1.77.24Z"/>
        <path class="cls-2" d="m74.82,27.04l-1.6,4.31-2.09,5.62s-.57.05-1.11-.1c-.5-.14-1.07-.52-1.07-.52,0,0,.58-6.04,1.66-9.5.28-.89.59-1.61.93-2.01,1.68-1.98,3.28,2.21,3.28,2.21Z"/>
        <path class="cls-16" d="m73.19,20.21c-1.05-.34-4.04.1-7.04.68l-.63-1.04-6.49-.51s-2.14,4.75-.97,7.77c.17.44.51.73,1.1.74,0,0,.09,0,.09,0,0,0,3.86,0,5.12,0,3.23,0,6.83-2.22,7.29-2.31.76-.15,1.07,1.37,1.83,2.97.76,1.6,7.17,7.09,7.17,7.09,0,0,.98,0,1.39-.14.44-.16.6-.38.6-.38,0,0-7.1-14.12-9.46-14.89Z"/>
        <path class="cls-11" d="m63.37.1c-.91-.23-2.15,0-2.36.02-2.47.24-3.3,3-2.92,5.13.34,1.97-.66,2.52-1.81,4.07-2.32,3.12-.8,5.76,1.03,6.43,1.1.41,2.63-.62,2.63-.62.03.01,4.8-3.13,6.76-4.89,3.26-1.27-1-9.55-3.31-10.15Z"/>
        <path class="cls-24" d="m63.74,9.13c.06.23-1.01.65-1.84.49-.78-.14-1.64-1.05-1.47-1.14.3-.14.5-.49.33-2.39l.15.02,2.48.28s0,.77.07,1.5c.05.61.17.86.28,1.23Z"/>
        <path class="cls-28" d="m63.39,6.4s0,.77.07,1.5c-1.37.07-2.19-1.11-2.55-1.78l2.48.28Z"/>
        <path class="cls-24" d="m63.91,7.05s-3.23.32-3.4-1.69c-.17-2.01-.7-3.33,1.36-3.62,2.05-.29,2.52.45,2.74,1.1.22.66.14,4.07-.7,4.21Z"/>
        <path class="cls-11" d="m63.56,1.42s-.41,2.46-2.24,3.04c-1.34.43-1.95.15-1.95.15,0,0,.65-.86.88-2.05.07-.35.32-.64.66-.75.95-.31,2.11-1.17,2.66-.39Z"/>
        <path class="cls-11" d="m62.95,1.95s.61.14,1.15.92c.29.43.64,1.51.58,1.99,0,0,.56-2.28-.26-3.12-.87-.9-1.47.21-1.47.21Z"/>
        <path class="cls-5" d="m57.92,15.75c.06.24.11.47.15.68.07.33.11.62.14.88.1.79.07,1.26.14,1.78.04.29.1.59.24.97.13.37,3.64.7,5.64.56.63-.04,1.12-.13,1.29-.28.71-.62.64.74.74-5.77.05-3.17-2.69-6-2.69-6,0,0-.22,1.36-2.94-.26-.1-.06-1.17,1.53-2.2,3.48-1.13,2.16-.82,2.61-.5,3.95Z"/>
        <path class="cls-11" d="m73.22,31.35l-2.09,5.62s-.57.05-1.11-.1c-.5-.14-1.07-.52-1.07-.52,0,0,.58-6.04,1.66-9.5l2.61,4.5Z"/>
        <path class="cls-5" d="m63.56,8.57s2.8.47,3.12,1.68c.33,1.2,2.6,7.94,2.6,7.94,0,0-1.76.6-2.41-.06-.66-.66-2.29-6.09-2.29-6.09l-1.02-3.47Z"/>
        <path class="cls-1" d="m63.16,5.86s.14.33.49.33.45-.05.52-.13c.07-.08.13-.22.13-.22,0,0-.59-.12-1.15.02Z"/>
        <path class="cls-19" d="m58.21,17.3c.1.79.07,1.26.14,1.78,2.54,0,5.93-1.96,5.93-1.96l-6.07.18Z"/>
        <path class="cls-19" d="m64.28,15.46s-3.96-.12-4.62-2.37c-.73-2.47-1.55,1.02-1.55,1.02l.44,2.22h4.34l1.4-.87Z"/>
        <g>
          <path class="cls-25" d="m71.18,9.36l-.21-.53c-.23-.57-.78-.94-1.39-.94h-3.94v13.18h16.31v-10.68h-9.23c-.67,0-1.28-.41-1.53-1.03Z"/>
          <g>
            <path class="cls-1" d="m68.09,15.9v-.95l3.33-1.46v.97l-2.33.96,2.33.96v.98l-3.33-1.46Z"/>
            <path class="cls-1" d="m74.89,12.36h.89l-3.05,6.38h-.89l3.05-6.38Z"/>
            <path class="cls-1" d="m79.48,14.95v.95l-3.33,1.46v-.97l2.33-.96-2.33-.96v-.98l3.33,1.46Z"/>
          </g>
        </g>
        <path class="cls-24" d="m64.28,15.98l.29-.45s.23-.07.54-.3c.38-.27.33-.66.52-.62v.87s-.02,0-.02,0c.81.22,1.76-.02,1.78.18.05.56-.38.81-.74.98-.28.13-.59.33-1.09.18-.36-.11-.94-.23-.94-.23l-.35-.62Z"/>
        <path class="cls-5" d="m60.62,8.31s-2.57.17-3.21,1.17c-.64,1-1.44,6.09-1.1,7.83.33,1.75,8.56-.33,8.56-.33l-.26-1.51s-4.75.03-5.02-.59c-.36-.82,1.04-6.56,1.04-6.56Z"/>
        <path class="cls-24" d="m73.02,10.38c-.02.07.39.74.97.62.36-.07.84-.86.42-1.03-.69-.29-1.33.23-1.39.41Z"/>
      </g>
      <g>
        <rect class="cls-21" x="92.72" y="36.69" width="20.25" height=".1" transform="translate(22 110.17) rotate(-61.91)"/>
        <rect class="cls-21" x="137.12" y="25.71" width=".1" height="15.77" transform="translate(13.73 102.2) rotate(-42.83)"/>
        <g>
          <path class="cls-18" d="m149.19,42.75c.16,1.16-.16,2.27-.8,3.14-.64.87-1.6,1.48-2.74,1.64l-47.93,6.59c-2.45.34-4.71-1.28-5.03-3.6-.16-1.16.2-2.28.9-3.15.7-.87,1.75-1.5,2.97-1.67l47.93-6.59c2.26-.31,4.37,1.33,4.69,3.65Z"/>
          <path class="cls-5" d="m149.19,42.75c.16,1.16-.16,2.27-.8,3.14-.64.87-1.6,1.48-2.74,1.64l-8.67,1.19-1.16-8.42,8.67-1.19c2.26-.31,4.37,1.33,4.69,3.65Z"/>
          <g>
            <path class="cls-1" d="m143.91,45.04c-.11.01-.22.02-.32.02-.58,0-1.12-.24-1.52-.65-.83-.85-.82-2.23.04-3.06h0c.85-.83,2.23-.82,3.06.04.83.85.82,2.23-.04,3.06-.34.33-.76.53-1.21.6Zm-1.56-3.44c-.71.7-.73,1.85-.03,2.56.34.35.79.54,1.27.54.48,0,.94-.18,1.29-.52.71-.7.73-1.85.03-2.56-.7-.71-1.85-.73-2.56-.03h0Z"/>
            <rect class="cls-1" x="140.95" y="43.83" width=".36" height="2.96" transform="translate(74.9 -87.3) rotate(45.66)"/>
            <path class="cls-1" d="m139.34,47.06h0c-.12-.13-.12-.33,0-.45l1.25-1.22c.13-.12.33-.12.45,0h0c.12.13.12.33,0,.45l-1.25,1.22c-.13.12-.33.12-.45,0Z"/>
          </g>
        </g>
      </g>
      <g>
        <path class="cls-5" d="m58.75,87.61h9.91c.24,0,.43.19.43.43v.06c0,.24-.19.43-.43.43h-9.91c-.24,0-.43-.19-.43-.43v-.06c0-.24.19-.43.43-.43Z"/>
        <g>
          <path class="cls-25" d="m63.57,91.66h-4.94c-.17,0-.31-.14-.31-.31h0c0-.17.14-.31.31-.31h4.94c.17,0,.31.14.31.31h0c0,.17-.14.31-.31.31Z"/>
          <g>
            <rect class="cls-25" x="58.32" y="89.73" width="9.33" height=".62" rx=".29" ry=".29"/>
            <rect class="cls-25" x="68.49" y="89.73" width="8.71" height=".62" rx=".29" ry=".29"/>
            <path class="cls-25" d="m69.73,91.66h-4.94c-.17,0-.31-.14-.31-.31h0c0-.17.14-.31.31-.31h4.94c.17,0,.31.14.31.31h0c0,.17-.14.31-.31.31Z"/>
          </g>
        </g>
        <path class="cls-5" d="m70.94,87.61h9.91c.24,0,.43.19.43.43v.06c0,.24-.19.43-.43.43h-9.91c-.24,0-.43-.19-.43-.43v-.06c0-.24.19-.43.43-.43Z"/>
      </g>
      <g>
        <rect class="cls-5" x="58.32" y="94.49" width="10.77" height=".91" rx=".43" ry=".43"/>
        <g>
          <path class="cls-25" d="m63.57,98.54h-4.94c-.17,0-.31-.14-.31-.31h0c0-.17.14-.31.31-.31h4.94c.17,0,.31.14.31.31h0c0,.17-.14.31-.31.31Z"/>
          <g>
            <rect class="cls-25" x="58.32" y="96.61" width="9.33" height=".62" rx=".29" ry=".29"/>
            <rect class="cls-25" x="68.49" y="96.61" width="8.71" height=".62" rx=".29" ry=".29"/>
            <path class="cls-25" d="m69.73,98.54h-4.94c-.17,0-.31-.14-.31-.31h0c0-.17.14-.31.31-.31h4.94c.17,0,.31.14.31.31h0c0,.17-.14.31-.31.31Z"/>
          </g>
        </g>
        <path class="cls-5" d="m70.94,94.49h9.91c.24,0,.43.19.43.43v.06c0,.24-.19.43-.43.43h-9.91c-.24,0-.43-.19-.43-.43v-.06c0-.24.19-.43.43-.43Z"/>
      </g>
      <g>
        <polygon class="cls-4" points="120.75 53.59 115.03 54.92 112.21 60.07 110.05 48.34 120.75 53.59"/>
        <rect class="cls-4" x="115.61" y="53.5" width="1.05" height="6.05" transform="translate(-10.56 81.61) rotate(-37.15)"/>
      </g>
      <g>
        <rect class="cls-18" x="101.92" y="61.71" width="16.12" height="16.12" rx="7.56" ry="7.56"/>
        <g>
          <path class="cls-25" d="m103.98,74.46l3.13-5.65c.36-.66,1.29-.72,1.73-.11l1.81,2.46c.38.52,1.15.57,1.59.09h0c.46-.5,1.26-.43,1.63.14l1.95,3.01c.44.69-.05,1.59-.86,1.59h-10.07c-.79,0-1.28-.84-.9-1.53Z"/>
          <path class="cls-25" d="m110.16,66.17c0-.68.55-1.23,1.23-1.23s1.23.55,1.23,1.23-.55,1.23-1.23,1.23-1.23-.55-1.23-1.23Z"/>
        </g>
      </g>
      <g>
        <path class="cls-18" d="m122.55,63.17h14.06c.57,0,1.03.46,1.03,1.03v14.06c0,.57-.46,1.03-1.03,1.03h-14.06c-.57,0-1.03-.46-1.03-1.03v-14.06c0-.57.46-1.03,1.03-1.03Z" transform="translate(-8.44 18.17) rotate(-7.77)"/>
        <g>
          <path class="cls-25" d="m124.27,76.69l2.34-6.02c.27-.7,1.18-.88,1.7-.34l2.12,2.2c.45.47,1.22.41,1.59-.13h0c.38-.55,1.19-.6,1.63-.09l2.34,2.72c.53.62.17,1.58-.64,1.69l-9.98,1.36c-.78.11-1.38-.66-1.1-1.39Z"/>
          <path class="cls-25" d="m129.27,67.64c-.09-.67.38-1.3,1.05-1.39.67-.09,1.3.38,1.39,1.05.09.67-.38,1.3-1.05,1.39-.67.09-1.3-.38-1.39-1.05Z"/>
        </g>
      </g>
      <g>
        <rect class="cls-5" x="88.54" y="128.07" width="8.13" height="6.97"/>
        <rect class="cls-9" x="88.21" y="127.78" width="8.73" height=".54"/>
        <rect class="cls-23" x="88.54" y="129.96" width="8.13" height="2.21"/>
      </g>
      <path class="cls-5" d="m106.55,135.05h-7.67c-.28,0-.51-.23-.51-.51v-.85c0-.3.26-.54.56-.51l7.67.85c.26.03.45.25.45.51h0c0,.28-.23.51-.51.51Z"/>
      <path class="cls-10" d="m213.86,135.74l-213.6-.07c-.14,0-.26-.12-.26-.26v-.13c0-.14.12-.26.26-.26l213.6.07c.14,0,.26.12.26.26v.13c0,.14-.12.26-.26.26Z"/>
      <path class="cls-18" d="m93.15,78.47h-.88c-.08,0-.15-.07-.15-.15s.07-.15.15-.15h.88c.08,0,.15.07.15.15s-.06.15-.14.15Zm-1.76,0h-.88c-.08,0-.15-.07-.15-.15s.07-.15.15-.15h.88c.08,0,.15.07.15.15s-.07.15-.15.15Zm-1.76,0h-.88c-.08,0-.15-.07-.15-.15s.07-.15.15-.15h.88c.08,0,.15.07.15.15s-.07.15-.15.15Zm-1.76,0h-.88c-.08,0-.15-.07-.15-.15s.07-.15.15-.15h.88c.08,0,.15.07.15.15s-.07.15-.15.15Zm-1.76,0h-.88c-.08,0-.15-.07-.15-.15s.07-.15.15-.15h.88c.08,0,.15.07.15.15s-.07.15-.15.15Zm-1.76,0h-.88c-.08,0-.15-.07-.15-.15s.07-.15.15-.15h.88c.08,0,.15.07.15.15s-.07.15-.15.15Zm-1.76,0h-.88c-.08,0-.15-.07-.15-.15s.07-.15.15-.15h.88c.08,0,.15.07.15.15s-.07.15-.15.15Zm-1.76,0h-.88c-.08,0-.15-.07-.15-.15s.07-.15.15-.15h.88c.08,0,.15.07.15.15s-.07.15-.15.15Zm-1.76,0h-.88c-.08,0-.15-.07-.15-.15s.07-.15.15-.15h.88c.08,0,.15.07.15.15s-.07.15-.15.15Zm-1.76,0h-.88c-.08,0-.15-.07-.15-.15s.07-.15.15-.15h.88c.08,0,.15.07.15.15s-.07.15-.15.15Zm-1.76,0h-.88c-.08,0-.15-.07-.15-.15s.07-.15.15-.15h.88c.08,0,.15.07.15.15s-.07.15-.15.15Zm-1.76,0h-.88c-.08,0-.15-.07-.15-.15s.07-.15.15-.15h.88c.08,0,.15.07.15.15s-.07.15-.15.15Zm-1.76,0h-.88c-.08,0-.15-.07-.15-.15s.07-.15.15-.15h.88c.08,0,.15.07.15.15s-.07.15-.15.15Zm-1.76,0h-.88c-.08,0-.15-.07-.15-.15s.07-.15.15-.15h.88c.08,0,.15.07.15.15s-.07.15-.15.15Zm-1.76,0h-.88c-.08,0-.15-.07-.15-.15s.07-.15.15-.15h.88c.08,0,.15.07.15.15s-.07.15-.15.15Zm-1.76,0h-.88c-.08,0-.15-.07-.15-.15s.07-.15.15-.15h.88c.08,0,.15.07.15.15s-.07.15-.15.15Zm-1.76,0h-.88c-.08,0-.15-.07-.15-.15s.07-.15.15-.15h.88c.08,0,.15.07.15.15s-.07.15-.15.15Zm-1.76,0h-.78s-.07,0-.1,0c-.08,0-.14-.07-.14-.15,0-.08.07-.14.15-.14.03,0,.06,0,.09,0h.78c.08,0,.15.07.15.15s-.07.15-.15.15Zm30.69-.26s-.09-.02-.12-.06c-.05-.07-.03-.16.04-.2.22-.15.39-.36.49-.61.03-.07.11-.11.19-.08.07.03.11.11.08.19-.12.3-.33.56-.6.74-.02.02-.05.03-.08.03Zm-32.38-.05s-.06,0-.09-.03c-.26-.2-.45-.47-.55-.77-.03-.08.02-.16.09-.18.08-.03.16.02.18.09.08.25.24.47.45.64.06.05.08.14.03.2-.03.04-.07.06-.12.06Zm33.03-1.49c-.08,0-.15-.07-.15-.15v-.88c0-.08.07-.15.15-.15s.15.07.15.15v.88c0,.08-.07.15-.15.15Zm-33.61-.09c-.08,0-.15-.07-.15-.15v-.88c0-.08.07-.15.15-.15s.15.07.15.15v.88c0,.08-.07.15-.15.15Zm33.61-1.67c-.08,0-.15-.07-.15-.15v-.88c0-.08.07-.15.15-.15s.15.07.15.15v.88c0,.08-.07.15-.15.15Zm-33.61-.09c-.08,0-.15-.07-.15-.15v-.88c0-.08.07-.15.15-.15s.15.07.15.15v.88c0,.08-.07.15-.15.15Zm33.61-1.67c-.08,0-.15-.07-.15-.15v-.88c0-.08.07-.15.15-.15s.15.07.15.15v.88c0,.08-.07.15-.15.15Zm-33.61-.09c-.08,0-.15-.07-.15-.15v-.88c0-.08.07-.15.15-.15s.15.07.15.15v.88c0,.08-.07.15-.15.15Zm33.61-1.67c-.08,0-.15-.07-.15-.15v-.88c0-.08.07-.15.15-.15s.15.07.15.15v.88c0,.08-.07.15-.15.15Zm-33.61-.09c-.08,0-.15-.07-.15-.15v-.88c0-.08.07-.15.15-.15s.15.07.15.15v.88c0,.08-.07.15-.15.15Zm33.61-1.67c-.08,0-.15-.07-.15-.15v-.88c0-.08.07-.15.15-.15s.15.07.15.15v.88c0,.08-.07.15-.15.15Zm-33.61-.09c-.08,0-.15-.07-.15-.15v-.88c0-.08.07-.15.15-.15s.15.07.15.15v.88c0,.08-.07.15-.15.15Zm33.61-1.67c-.08,0-.15-.07-.15-.15v-.88c0-.08.07-.15.15-.15s.15.07.15.15v.88c0,.08-.07.15-.15.15Zm-33.61-.09c-.08,0-.15-.07-.15-.15v-.88c0-.08.07-.15.15-.15s.15.07.15.15v.88c0,.08-.07.15-.15.15Zm33.61-1.67c-.08,0-.15-.07-.15-.15v-.88c0-.08.07-.15.15-.15s.15.07.15.15v.88c0,.08-.07.15-.15.15Zm-33.61-.09c-.08,0-.15-.07-.15-.15v-.88c0-.08.07-.15.15-.15s.15.07.15.15v.88c0,.08-.07.15-.15.15Zm33.61-1.67c-.08,0-.15-.07-.15-.15v-.88c0-.08.07-.15.15-.15s.15.07.15.15v.88c0,.08-.07.15-.15.15Zm-33.61-.09c-.08,0-.15-.07-.15-.15v-.88c0-.08.07-.15.15-.15s.15.07.15.15v.88c0,.08-.07.15-.15.15Zm33.61-1.67c-.08,0-.15-.07-.15-.15v-.88c0-.08.07-.15.15-.15s.15.07.15.15v.88c0,.08-.07.15-.15.15Zm-33.61-.09c-.08,0-.15-.07-.15-.15v-.88c0-.08.07-.15.15-.15s.15.07.15.15v.88c0,.08-.07.15-.15.15Zm33.61-1.67c-.08,0-.15-.07-.15-.15v-.4c0-.15-.02-.29-.07-.43-.03-.08.02-.16.09-.18.08-.03.16.02.18.09.06.17.08.34.08.52v.4c0,.08-.07.15-.15.15Zm-33.61-.09c-.08,0-.15-.07-.15-.15v-.31c0-.21.04-.42.12-.61.03-.07.12-.11.19-.08.07.03.11.11.08.19-.06.16-.1.33-.1.5v.31c0,.08-.07.15-.15.15Zm33.03-1.48s-.06,0-.09-.03c-.21-.16-.46-.26-.73-.27-.08,0-.14-.07-.14-.15,0-.08.07-.14.15-.14.32.02.63.14.89.33.06.05.08.14.03.2-.03.04-.07.06-.12.06Zm-32.37-.05s-.09-.02-.12-.06c-.05-.07-.03-.16.04-.2.27-.18.58-.28.91-.28h0c.08,0,.15.06.15.15,0,.08-.06.15-.15.15-.27,0-.53.08-.75.23-.02.02-.05.02-.08.02Zm30.68-.25h-.88c-.08,0-.15-.07-.15-.15s.07-.15.15-.15h.88c.08,0,.15.07.15.15s-.07.15-.15.15Zm-1.76,0h-.88c-.08,0-.15-.07-.15-.15s.07-.15.15-.15h.88c.08,0,.15.07.15.15s-.07.15-.15.15Zm-1.76,0h-.88c-.08,0-.15-.07-.15-.15s.07-.15.15-.15h.88c.08,0,.15.07.15.15s-.07.15-.15.15Zm-1.76,0h-.88c-.08,0-.15-.07-.15-.15s.07-.15.15-.15h.88c.08,0,.15.07.15.15s-.07.15-.15.15Zm-1.76,0h-.88c-.08,0-.15-.07-.15-.15s.07-.15.15-.15h.88c.08,0,.15.07.15.15s-.07.15-.15.15Zm-1.76,0h-.88c-.08,0-.15-.07-.15-.15s.07-.15.15-.15h.88c.08,0,.15.07.15.15s-.07.15-.15.15Zm-1.76,0h-.88c-.08,0-.15-.07-.15-.15s.07-.15.15-.15h.88c.08,0,.15.07.15.15s-.07.15-.15.15Zm-1.76,0h-.88c-.08,0-.15-.07-.15-.15s.07-.15.15-.15h.88c.08,0,.15.07.15.15s-.07.15-.15.15Zm-1.76,0h-.88c-.08,0-.15-.07-.15-.15s.07-.15.15-.15h.88c.08,0,.15.07.15.15s-.07.15-.15.15Zm-1.76,0h-.88c-.08,0-.15-.07-.15-.15s.07-.15.15-.15h.88c.08,0,.15.07.15.15s-.07.15-.15.15Zm-1.76,0h-.88c-.08,0-.15-.07-.15-.15s.07-.15.15-.15h.88c.08,0,.15.07.15.15s-.07.15-.15.15Zm-1.76,0h-.88c-.08,0-.15-.07-.15-.15s.07-.15.15-.15h.88c.08,0,.15.07.15.15s-.07.15-.15.15Zm-1.76,0h-.88c-.08,0-.15-.07-.15-.15s.07-.15.15-.15h.88c.08,0,.15.07.15.15s-.07.15-.15.15Zm-1.76,0h-.88c-.08,0-.15-.07-.15-.15s.07-.15.15-.15h.88c.08,0,.15.07.15.15s-.07.15-.15.15Zm-1.76,0h-.88c-.08,0-.15-.07-.15-.15s.07-.15.15-.15h.88c.08,0,.15.07.15.15s-.07.15-.15.15Zm-1.76,0h-.88c-.08,0-.15-.07-.15-.15s.07-.15.15-.15h.88c.08,0,.15.07.15.15s-.07.15-.15.15Zm-1.76,0h-.88c-.08,0-.15-.07-.15-.15s.07-.15.15-.15h.88c.08,0,.15.07.15.15s-.07.15-.15.15Z"/>
      <path class="cls-18" d="m143.07,102.84h-.78c-.07,0-.13-.06-.13-.13s.06-.13.13-.13h.78c.07,0,.13.06.13.13s-.05.13-.13.13Zm-1.56,0h-.78c-.07,0-.13-.06-.13-.13s.06-.13.13-.13h.78c.07,0,.13.06.13.13s-.06.13-.13.13Zm-1.56,0h-.78c-.07,0-.13-.06-.13-.13s.06-.13.13-.13h.78c.07,0,.13.06.13.13s-.06.13-.13.13Zm-1.56,0h-.78c-.07,0-.13-.06-.13-.13s.06-.13.13-.13h.78c.07,0,.13.06.13.13s-.06.13-.13.13Zm-1.56,0h-.78c-.07,0-.13-.06-.13-.13s.06-.13.13-.13h.78c.07,0,.13.06.13.13s-.06.13-.13.13Zm-1.56,0h-.78c-.07,0-.13-.06-.13-.13s.06-.13.13-.13h.78c.07,0,.13.06.13.13s-.06.13-.13.13Zm-1.56,0h-.78c-.07,0-.13-.06-.13-.13s.06-.13.13-.13h.78c.07,0,.13.06.13.13s-.06.13-.13.13Zm-1.56,0h-.78c-.07,0-.13-.06-.13-.13s.06-.13.13-.13h.78c.07,0,.13.06.13.13s-.06.13-.13.13Zm-1.56,0h-.78c-.07,0-.13-.06-.13-.13s.06-.13.13-.13h.78c.07,0,.13.06.13.13s-.06.13-.13.13Zm-1.56,0h-.75s-.02,0-.03,0c-.07,0-.13-.06-.12-.14,0-.07.06-.12.14-.12,0,0,.01,0,.02,0h.75c.07,0,.13.06.13.13s-.06.13-.13.13Zm14.51-.49h0c-.07,0-.13-.06-.12-.13h0v-.77c0-.07.06-.13.13-.13s.13.06.13.13v.78c0,.07-.06.12-.13.12Zm-15.77-.02c-.07,0-.13-.06-.13-.13v-.78c0-.07.06-.13.13-.13s.13.06.13.13v.78c0,.07-.06.13-.13.13Zm15.77-1.54c-.07,0-.13-.06-.13-.13v-.78c0-.07.06-.13.13-.13s.13.06.13.13v.78c0,.07-.06.13-.13.13Zm-15.77-.02c-.07,0-.13-.06-.13-.13v-.78c0-.07.06-.13.13-.13s.13.06.13.13v.78c0,.07-.06.13-.13.13Zm15.77-1.54c-.07,0-.13-.06-.13-.13v-.78c0-.07.06-.13.13-.13s.13.06.13.13v.78c0,.07-.06.13-.13.13Zm-15.77-.02c-.07,0-.13-.06-.13-.13v-.76s0-.02,0-.02c0-.07.06-.13.13-.12.07,0,.13.06.12.13h0v.77c0,.07-.06.13-.13.13Zm15.29-1.27s0,0,0,0h-.02s-.75,0-.75,0c-.07,0-.13-.06-.13-.13s.06-.13.13-.13h.75s.02,0,.03,0c.07,0,.13.06.12.13,0,.07-.06.12-.13.12Zm-1.56,0h-.78c-.07,0-.13-.06-.13-.13s.06-.13.13-.13h.78c.07,0,.13.06.13.13s-.06.13-.13.13Zm-1.56,0h-.78c-.07,0-.13-.06-.13-.13s.06-.13.13-.13h.78c.07,0,.13.06.13.13s-.06.13-.13.13Zm-1.56,0h-.78c-.07,0-.13-.06-.13-.13s.06-.13.13-.13h.78c.07,0,.13.06.13.13s-.06.13-.13.13Zm-1.56,0h-.78c-.07,0-.13-.06-.13-.13s.06-.13.13-.13h.78c.07,0,.13.06.13.13s-.06.13-.13.13Zm-1.56,0h-.78c-.07,0-.13-.06-.13-.13s.06-.13.13-.13h.78c.07,0,.13.06.13.13s-.06.13-.13.13Zm-1.56,0h-.78c-.07,0-.13-.06-.13-.13s.06-.13.13-.13h.78c.07,0,.13.06.13.13s-.06.13-.13.13Zm-1.56,0h-.78c-.07,0-.13-.06-.13-.13s.06-.13.13-.13h.78c.07,0,.13.06.13.13s-.06.13-.13.13Zm-1.56,0h-.78c-.07,0-.13-.06-.13-.13s.06-.13.13-.13h.78c.07,0,.13.06.13.13s-.06.13-.13.13Zm-1.56,0h-.77c-.07,0-.13-.06-.13-.13s.06-.13.13-.13h.78c.07,0,.13.06.13.13s-.06.13-.13.13Z"/>
      <path class="cls-18" d="m87.51,56.41h-.87c-.08,0-.15-.07-.15-.15s.07-.15.15-.15h.86c.08,0,.15.07.15.15s-.06.15-.14.15Zm-1.73,0h-.86c-.08,0-.15-.07-.15-.15s.07-.15.15-.15h.86c.08,0,.15.07.15.15s-.07.15-.15.15Zm-1.72,0h-.86c-.08,0-.15-.07-.15-.15s.07-.15.15-.15h.86c.08,0,.15.07.15.15s-.07.15-.15.15Zm-1.72,0h-.86c-.08,0-.15-.07-.15-.15s.07-.15.15-.15h.86c.08,0,.15.07.15.15s-.07.15-.15.15Zm-1.72,0h-.86c-.08,0-.15-.07-.15-.15s.07-.15.15-.15h.86c.08,0,.15.07.15.15s-.07.15-.15.15Zm-1.72,0h-.86c-.08,0-.15-.07-.15-.15s.07-.15.15-.15h.86c.08,0,.15.07.15.15s-.07.15-.15.15Zm-1.72,0h-.86c-.08,0-.15-.07-.15-.15s.07-.15.15-.15h.86c.08,0,.15.07.15.15s-.07.15-.15.15Zm-1.71-.09s-.05,0-.07-.02c-.27-.15-.44-.44-.44-.75v-.11c0-.08.07-.15.15-.15s.15.07.15.15v.11c0,.2.11.39.29.5.07.04.09.13.05.2-.03.05-.08.07-.13.07Zm12.71-.37s-.03,0-.05,0c-.08-.03-.11-.11-.08-.19.02-.06.04-.13.04-.2v-.6c0-.08.07-.15.15-.15s.15.07.15.15v.6c0,.1-.02.21-.05.3-.02.06-.08.09-.14.09Zm-13.07-1.22c-.08,0-.15-.07-.15-.15v-.86c0-.08.07-.15.15-.15s.15.07.15.15v.86c0,.08-.07.15-.15.15Zm13.11-.5c-.08,0-.15-.07-.15-.15v-.86c0-.08.07-.15.15-.15s.15.07.15.15v.86c0,.08-.07.15-.15.15Zm-13.11-1.22c-.08,0-.15-.07-.15-.15v-.86c0-.08.07-.15.15-.15s.15.07.15.15v.86c0,.08-.07.15-.15.15Zm13.11-.5c-.08,0-.15-.07-.15-.15v-.86c0-.08.07-.15.15-.15s.15.07.15.15v.86c0,.08-.07.15-.15.15Zm-13.11-1.22c-.08,0-.15-.07-.15-.15v-.86c0-.08.07-.15.15-.15s.15.07.15.15v.86c0,.08-.07.15-.15.15Zm13.11-.5c-.08,0-.15-.07-.15-.15v-.86c0-.08.07-.15.15-.15s.15.07.15.15v.86c0,.08-.07.15-.15.15Zm-13.11-1.22c-.08,0-.15-.07-.15-.15v-.86c0-.08.07-.15.15-.15s.15.07.15.15v.86c0,.08-.07.15-.15.15Zm13.11-.5c-.08,0-.15-.07-.15-.15v-.86c0-.08.07-.15.15-.15s.15.07.15.15v.86c0,.08-.07.15-.15.15Zm-13.11-1.22c-.08,0-.15-.07-.15-.15v-.86c0-.08.07-.15.15-.15s.15.07.15.15v.86c0,.08-.07.15-.15.15Zm13.11-.5c-.08,0-.15-.07-.15-.15v-.86c0-.08.07-.15.15-.15s.15.07.15.15v.86c0,.08-.07.15-.15.15Zm-13.11-1.22c-.08,0-.15-.07-.15-.15v-.6c0-.11.02-.21.06-.31.03-.07.11-.11.19-.08.07.03.11.11.08.19-.02.06-.04.13-.04.2v.6c0,.08-.07.15-.15.15Zm13.11-.5c-.08,0-.15-.07-.15-.15v-.1c0-.21-.11-.4-.29-.5-.07-.04-.09-.13-.06-.2.04-.07.13-.09.2-.06.27.15.44.44.44.75v.1c0,.08-.07.15-.15.15Zm-1.21-.82h-.86c-.08,0-.15-.07-.15-.15s.07-.15.15-.15h.86c.08,0,.15.07.15.15s-.07.15-.15.15Zm-1.72,0h-.86c-.08,0-.15-.07-.15-.15s.07-.15.15-.15h.86c.08,0,.15.07.15.15s-.07.15-.15.15Zm-1.72,0h-.86c-.08,0-.15-.07-.15-.15s.07-.15.15-.15h.86c.08,0,.15.07.15.15s-.07.15-.15.15Zm-1.72,0h-.86c-.08,0-.15-.07-.15-.15s.07-.15.15-.15h.86c.08,0,.15.07.15.15s-.07.15-.15.15Zm-1.72,0h-.86c-.08,0-.15-.07-.15-.15s.07-.15.15-.15h.86c.08,0,.15.07.15.15s-.07.15-.15.15Zm-1.72,0h-.86c-.08,0-.15-.07-.15-.15s.07-.15.15-.15h.86c.08,0,.15.07.15.15s-.07.15-.15.15Zm-1.72,0h-.86c-.08,0-.15-.07-.15-.15s.06-.15.14-.15h.86c.08,0,.15.07.15.15s-.07.15-.15.15Z"/>
      <path class="cls-18" d="m143.07,110.02h-.78c-.07,0-.13-.06-.13-.13s.06-.13.13-.13h.78c.07,0,.13.06.13.13s-.05.13-.13.13Zm-1.56,0h-.78c-.07,0-.13-.06-.13-.13s.06-.13.13-.13h.78c.07,0,.13.06.13.13s-.06.13-.13.13Zm-1.56,0h-.78c-.07,0-.13-.06-.13-.13s.06-.13.13-.13h.78c.07,0,.13.06.13.13s-.06.13-.13.13Zm-1.56,0h-.78c-.07,0-.13-.06-.13-.13s.06-.13.13-.13h.78c.07,0,.13.06.13.13s-.06.13-.13.13Zm-1.56,0h-.78c-.07,0-.13-.06-.13-.13s.06-.13.13-.13h.78c.07,0,.13.06.13.13s-.06.13-.13.13Zm-1.56,0h-.78c-.07,0-.13-.06-.13-.13s.06-.13.13-.13h.78c.07,0,.13.06.13.13s-.06.13-.13.13Zm-1.56,0h-.78c-.07,0-.13-.06-.13-.13s.06-.13.13-.13h.78c.07,0,.13.06.13.13s-.06.13-.13.13Zm-1.56,0h-.78c-.07,0-.13-.06-.13-.13s.06-.13.13-.13h.78c.07,0,.13.06.13.13s-.06.13-.13.13Zm-1.56,0h-.78c-.07,0-.13-.06-.13-.13s.06-.13.13-.13h.78c.07,0,.13.06.13.13s-.06.13-.13.13Zm-1.56,0h-.75s-.02,0-.03,0c-.07,0-.13-.06-.12-.14,0-.07.06-.13.14-.12,0,0,.01,0,.02,0h.75c.07,0,.13.06.13.13s-.06.13-.13.13Zm14.51-.49h0c-.07,0-.13-.06-.12-.13h0v-.77c0-.07.06-.13.13-.13s.13.06.13.13v.78c0,.07-.06.12-.13.12Zm-15.77-.02c-.07,0-.13-.06-.13-.13v-.78c0-.07.06-.13.13-.13s.13.06.13.13v.78c0,.07-.06.13-.13.13Zm15.77-1.54c-.07,0-.13-.06-.13-.13v-.78c0-.07.06-.13.13-.13s.13.06.13.13v.78c0,.07-.06.13-.13.13Zm-15.77-.02c-.07,0-.13-.06-.13-.13v-.78c0-.07.06-.13.13-.13s.13.06.13.13v.78c0,.07-.06.13-.13.13Zm15.77-1.54c-.07,0-.13-.06-.13-.13v-.78c0-.07.06-.13.13-.13s.13.06.13.13v.78c0,.07-.06.13-.13.13Zm-15.77-.02c-.07,0-.13-.06-.13-.13v-.76s0-.02,0-.02c0-.07.06-.13.13-.12.07,0,.13.06.12.13h0v.77c0,.07-.06.13-.13.13Zm15.29-1.27s0,0,0,0h-.02s-.75,0-.75,0c-.07,0-.13-.06-.13-.13s.06-.13.13-.13h.75s.02,0,.03,0c.07,0,.13.06.12.13,0,.07-.06.12-.13.12Zm-1.56,0h-.78c-.07,0-.13-.06-.13-.13s.06-.13.13-.13h.78c.07,0,.13.06.13.13s-.06.13-.13.13Zm-1.56,0h-.78c-.07,0-.13-.06-.13-.13s.06-.13.13-.13h.78c.07,0,.13.06.13.13s-.06.13-.13.13Zm-1.56,0h-.78c-.07,0-.13-.06-.13-.13s.06-.13.13-.13h.78c.07,0,.13.06.13.13s-.06.13-.13.13Zm-1.56,0h-.78c-.07,0-.13-.06-.13-.13s.06-.13.13-.13h.78c.07,0,.13.06.13.13s-.06.13-.13.13Zm-1.56,0h-.78c-.07,0-.13-.06-.13-.13s.06-.13.13-.13h.78c.07,0,.13.06.13.13s-.06.13-.13.13Zm-1.56,0h-.78c-.07,0-.13-.06-.13-.13s.06-.13.13-.13h.78c.07,0,.13.06.13.13s-.06.13-.13.13Zm-1.56,0h-.78c-.07,0-.13-.06-.13-.13s.06-.13.13-.13h.78c.07,0,.13.06.13.13s-.06.13-.13.13Zm-1.56,0h-.78c-.07,0-.13-.06-.13-.13s.06-.13.13-.13h.78c.07,0,.13.06.13.13s-.06.13-.13.13Zm-1.56,0h-.77c-.07,0-.13-.06-.13-.13s.06-.13.13-.13h.78c.07,0,.13.06.13.13s-.06.13-.13.13Z"/>
      <path class="cls-18" d="m81.68,104.61h-.78c-.07,0-.13-.06-.13-.13s.06-.13.13-.13h.77c.07,0,.13.06.13.13s-.06.13-.13.13Zm-1.55,0h-.77c-.07,0-.13-.06-.13-.13s.06-.13.13-.13h.77c.07,0,.13.06.13.13s-.06.13-.13.13Zm-1.54,0h-.77c-.07,0-.13-.06-.13-.13s.06-.13.13-.13h.77c.07,0,.13.06.13.13s-.06.13-.13.13Zm-1.54,0h-.77c-.07,0-.13-.06-.13-.13s.06-.13.13-.13h.77c.07,0,.13.06.13.13s-.06.13-.13.13Zm-1.54,0h-.77c-.07,0-.13-.06-.13-.13s.06-.13.13-.13h.77c.07,0,.13.06.13.13s-.06.13-.13.13Zm-1.54,0h-.77c-.07,0-.13-.06-.13-.13s.06-.13.13-.13h.77c.07,0,.13.06.13.13s-.06.13-.13.13Zm-1.54,0h-.77c-.07,0-.13-.06-.13-.13s.06-.13.13-.13h.77c.07,0,.13.06.13.13s-.06.13-.13.13Zm-1.54,0h-.77c-.07,0-.13-.06-.13-.13s.06-.13.13-.13h.77c.07,0,.13.06.13.13s-.06.13-.13.13Zm-1.54,0h-.77c-.07,0-.13-.06-.13-.13s.06-.13.13-.13h.77c.07,0,.13.06.13.13s-.06.13-.13.13Zm-1.54,0h-.77c-.07,0-.13-.06-.13-.13s.06-.13.13-.13h.77c.07,0,.13.06.13.13s-.06.13-.13.13Zm-1.54,0h-.77c-.07,0-.13-.06-.13-.13s.06-.13.13-.13h.77c.07,0,.13.06.13.13s-.06.13-.13.13Zm-1.54,0h-.77c-.07,0-.13-.06-.13-.13s.06-.13.13-.13h.77c.07,0,.13.06.13.13s-.06.13-.13.13Zm-1.54,0h-.77c-.07,0-.13-.06-.13-.13s.06-.13.13-.13h.77c.07,0,.13.06.13.13s-.06.13-.13.13Zm-1.54,0h-.77c-.07,0-.13-.06-.13-.13s.06-.13.13-.13h.77c.07,0,.13.06.13.13s-.06.13-.13.13Zm-1.54,0h-.77c-.07,0-.13-.06-.13-.13s.06-.13.13-.13h.77c.07,0,.13.06.13.13s-.06.13-.13.13Zm-1.54,0h-.62c-.06,0-.11,0-.17,0-.07,0-.12-.07-.11-.14,0-.07.07-.12.14-.11.05,0,.09,0,.14,0h.62c.07,0,.13.06.13.13s-.06.13-.13.13Zm23.87-.22s-.08-.02-.11-.06c-.04-.06-.02-.14.04-.18.19-.13.35-.31.44-.53.03-.07.1-.1.17-.07.07.03.1.1.07.17-.11.26-.29.49-.53.65-.02.01-.05.02-.07.02Zm-25.34-.09s-.06-.01-.08-.03c-.22-.19-.37-.43-.45-.7-.02-.07.02-.14.09-.16.07-.02.14.02.16.09.06.22.19.42.37.58.05.05.06.13.01.18-.03.03-.06.05-.1.05Zm25.92-1.25c-.07,0-.13-.06-.13-.13v-.77c0-.07.06-.13.13-.13s.13.06.13.13v.77c0,.07-.06.13-.13.13Zm-26.38-.15c-.07,0-.13-.06-.13-.13v-.77c0-.07.06-.13.13-.13s.13.06.13.13v.77c0,.07-.06.13-.13.13Zm26.38-1.39c-.07,0-.13-.06-.13-.13v-.77c0-.07.06-.13.13-.13s.13.06.13.13v.77c0,.07-.06.13-.13.13Zm-26.38-.15c-.07,0-.13-.06-.13-.13v-.77c0-.07.06-.13.13-.13s.13.06.13.13v.77c0,.07-.06.13-.13.13Zm26.38-1.39c-.07,0-.13-.06-.13-.13v-.77c0-.07.06-.13.13-.13s.13.06.13.13v.77c0,.07-.06.13-.13.13Zm-26.38-.15c-.07,0-.13-.06-.13-.13v-.77c0-.07.06-.13.13-.13s.13.06.13.13v.77c0,.07-.06.13-.13.13Zm26.38-1.39c-.07,0-.13-.06-.13-.13v-.77c0-.07.06-.13.13-.13s.13.06.13.13v.77c0,.07-.06.13-.13.13Zm-26.38-.15c-.07,0-.13-.06-.13-.13v-.77c0-.07.06-.13.13-.13s.13.06.13.13v.77c0,.07-.06.13-.13.13Zm26.38-1.39c-.07,0-.13-.06-.13-.13v-.77c0-.07.06-.13.13-.13s.13.06.13.13v.77c0,.07-.06.13-.13.13Zm-26.38-.15c-.07,0-.13-.06-.13-.13v-.77c0-.07.06-.13.13-.13s.13.06.13.13v.77c0,.07-.06.13-.13.13Zm26.38-1.39c-.07,0-.13-.06-.13-.13v-.77c0-.07.06-.13.13-.13s.13.06.13.13v.77c0,.07-.06.13-.13.13Zm-26.38-.15c-.07,0-.13-.06-.13-.13v-.77c0-.07.06-.13.13-.13s.13.06.13.13v.77c0,.07-.06.13-.13.13Zm26.38-1.39c-.07,0-.13-.06-.13-.13v-.77c0-.07.06-.13.13-.13s.13.06.13.13v.77c0,.07-.06.13-.13.13Zm-26.38-.15c-.07,0-.13-.06-.13-.13v-.77c0-.07.06-.13.13-.13s.13.06.13.13v.77c0,.07-.06.13-.13.13Zm26.38-1.39c-.07,0-.13-.06-.13-.13v-.77c0-.07.06-.13.13-.13s.13.06.13.13v.77c0,.07-.06.13-.13.13Zm-26.38-.15c-.07,0-.13-.06-.13-.13v-.77c0-.07.06-.13.13-.13s.13.06.13.13v.77c0,.07-.06.13-.13.13Zm26.38-1.39c-.07,0-.13-.06-.13-.13v-.77c0-.07.06-.13.13-.13s.13.06.13.13v.77c0,.07-.06.13-.13.13Zm-26.38-.15c-.07,0-.13-.06-.13-.13v-.77c0-.07.06-.13.13-.13s.13.06.13.13v.77c0,.07-.06.13-.13.13Zm26.38-1.39c-.07,0-.13-.06-.13-.13v-.77c0-.07.06-.13.13-.13s.13.06.13.13v.77c0,.07-.06.13-.13.13Zm-26.38-.15c-.07,0-.13-.06-.13-.13v-.77c0-.07.06-.13.13-.13s.13.06.13.13v.77c0,.07-.06.13-.13.13Zm26.38-1.39c-.07,0-.13-.06-.13-.13v-.77c0-.07.06-.13.13-.13s.13.06.13.13v.77c0,.07-.06.13-.13.13Zm-26.38-.15c-.07,0-.13-.06-.13-.13v-.77c0-.07.06-.13.13-.13s.13.06.13.13v.77c0,.07-.06.13-.13.13Zm26.33-1.39c-.06,0-.11-.04-.12-.09-.06-.22-.19-.42-.37-.58-.05-.05-.06-.13-.01-.18.05-.05.13-.06.18-.01.22.18.37.43.45.7.02.07-.02.14-.09.16-.01,0-.02,0-.04,0Zm-26.23-.14s-.03,0-.05-.01c-.07-.03-.1-.1-.07-.17.11-.26.29-.49.53-.64.06-.04.14-.02.18.04.04.06.02.14-.04.18-.2.13-.35.31-.44.53-.02.05-.07.08-.12.08Zm25.12-.8s0,0-.01,0c-.05,0-.09,0-.14,0h-.62c-.07,0-.13-.06-.13-.13s.06-.13.13-.13h.62c.06,0,.11,0,.17,0,.07,0,.12.07.11.14,0,.07-.06.11-.13.11Zm-1.54,0h-.77c-.07,0-.13-.06-.13-.13s.06-.13.13-.13h.77c.07,0,.13.06.13.13s-.06.13-.13.13Zm-1.54,0h-.77c-.07,0-.13-.06-.13-.13s.06-.13.13-.13h.77c.07,0,.13.06.13.13s-.06.13-.13.13Zm-1.54,0h-.77c-.07,0-.13-.06-.13-.13s.06-.13.13-.13h.77c.07,0,.13.06.13.13s-.06.13-.13.13Zm-1.54,0h-.77c-.07,0-.13-.06-.13-.13s.06-.13.13-.13h.77c.07,0,.13.06.13.13s-.06.13-.13.13Zm-1.54,0h-.77c-.07,0-.13-.06-.13-.13s.06-.13.13-.13h.77c.07,0,.13.06.13.13s-.06.13-.13.13Zm-1.54,0h-.77c-.07,0-.13-.06-.13-.13s.06-.13.13-.13h.77c.07,0,.13.06.13.13s-.06.13-.13.13Zm-1.54,0h-.77c-.07,0-.13-.06-.13-.13s.06-.13.13-.13h.77c.07,0,.13.06.13.13s-.06.13-.13.13Zm-1.54,0h-.77c-.07,0-.13-.06-.13-.13s.06-.13.13-.13h.77c.07,0,.13.06.13.13s-.06.13-.13.13Zm-1.54,0h-.77c-.07,0-.13-.06-.13-.13s.06-.13.13-.13h.77c.07,0,.13.06.13.13s-.06.13-.13.13Zm-1.54,0h-.77c-.07,0-.13-.06-.13-.13s.06-.13.13-.13h.77c.07,0,.13.06.13.13s-.06.13-.13.13Zm-1.54,0h-.77c-.07,0-.13-.06-.13-.13s.06-.13.13-.13h.77c.07,0,.13.06.13.13s-.06.13-.13.13Zm-1.54,0h-.77c-.07,0-.13-.06-.13-.13s.06-.13.13-.13h.77c.07,0,.13.06.13.13s-.06.13-.13.13Zm-1.54,0h-.77c-.07,0-.13-.06-.13-.13s.06-.13.13-.13h.77c.07,0,.13.06.13.13s-.06.13-.13.13Zm-1.54,0h-.77c-.07,0-.13-.06-.13-.13s.06-.13.13-.13h.77c.07,0,.13.06.13.13s-.06.13-.13.13Zm-1.54,0h-.77c-.07,0-.13-.06-.13-.13s.06-.13.13-.13h.77c.07,0,.13.06.13.13s-.06.13-.13.13Z"/>
      <g>
        <path class="cls-18" d="m65.92,61.49h15.33c5.04,0,9.14,4.09,9.14,9.14v1.21c0,5.04-4.09,9.14-9.14,9.14h-15.33c-5.04,0-9.14-4.09-9.14-9.14v-1.21c0-5.04,4.09-9.14,9.14-9.14Z"/>
        <path class="cls-5" d="m69.8,67.37v7.73c0,.48.54.77.94.51l5.87-3.86c.36-.24.36-.77,0-1.01l-5.87-3.86c-.4-.27-.94.02-.94.51Z"/>
        <g>
          <path class="cls-9" d="m58.53,79.21c0-.33.27-.6.6-.6s.6.27.6.6-.27.6-.6.6-.6-.27-.6-.6Z"/>
          <path class="cls-9" d="m86.58,79.37h-27.28c-.09,0-.16-.07-.16-.16h0c0-.09.07-.16.16-.16h27.28c.09,0,.16.07.16.16h0c0,.09-.07.16-.16.16Z"/>
        </g>
      </g>
      <rect class="cls-8" x="88.21" y="85" width="17.39" height="25.95"/>
      <g>
        <g>
          <path class="cls-11" d="m98.58,93.34h-.24v-1.07c0-.38.31-.7.7-.7h2.94c.21,0,.39-.14.44-.34l.47-1.77c.04-.14,0-.28-.08-.4-.09-.11-.22-.18-.36-.18h-3.84v-.24h3.84c.22,0,.42.1.55.27.13.17.18.39.12.6l-.47,1.77c-.08.31-.36.52-.67.52h-2.94c-.25,0-.46.21-.46.46v1.07Z"/>
          <rect class="cls-5" x="95.51" y="87.77" width="6.6" height="2.01" rx=".94" ry=".94"/>
          <path class="cls-11" d="m98.46,97.78h0c-.36,0-.65-.29-.65-.65v-3.96c0-.36.29-.65.65-.65h0c.36,0,.65.29.65.65v3.96c0,.36-.29.65-.65.65Z"/>
        </g>
        <g>
          <path class="cls-24" d="m123.49,106.37s.45,1.39.41,1.7c-.04.32-.32,1.4-.52,1.68-.2.28-.3-1.13-.46-1.34-.16-.21-.03.53-.15.6-.11.07-.35-.55-.45-.76-.1-.22.25-1.01.25-1.57,0-.56.92-.3.92-.3Z"/>
          <path class="cls-4" d="m112.9,95.37c-.12-1.59,1.6-2.68,2.96-1.85.03.02.06.03.08.05,2.04,1.31,6.44,7.44,6.75,8.06.3.61,1.2,5.5,1.2,5.5,0,0-1.11.4-1.62-.02,0,0-1.79-4.63-2.06-4.86-.26-.23-7.17-4.11-7.23-5.56-.02-.38-.05-.85-.08-1.32Z"/>
        </g>
        <g>
          <path class="cls-3" d="m125.23,131.24s.82.75.66,1.28c-.16.53-.9.89-1,1.54-.1.65-.5,1.01-.86,1.01h-1.72s-.27-.46.38-.6c.64-.14.88-.9.84-1.62s.06-1.66.06-1.66l1.36-.32.28.36Z"/>
          <path class="cls-3" d="m115.13,133.18s.15,1.71-.21,1.89h-4.62s0-.54.74-.66c.74-.12,2.05-.55,2.27-1.52.22-.97,1.83.3,1.83.3Z"/>
          <path class="cls-5" d="m111.23,109.04s.24,3,.53,6.6c.39,4.89.86,10.9.9,12.04.08,1.98.4,5.14.4,5.14,0,0,.76.75,2.29.43,0,0,1.36-4.51,1.75-9.29,0-.08.01-.16.02-.24.36-4.86.92-15.1.92-15.1l-6.81.41Z"/>
          <path class="cls-20" d="m111.23,109.04s.24,3,.53,6.6l5.34,8.32c0-.08.01-.16.02-.24.36-4.86.92-15.1.92-15.1l-6.81.41Z"/>
          <path class="cls-5" d="m112.34,109.4s4.39,10.85,7.28,15.95c2.89,5.1,3.79,6.52,3.79,6.52,0,0,1.66-.65,1.81-1.1,0,0-1.11-9.84-3.04-12.24-1.09-1.36-2.38-5.42-2.44-6.85-.06-1.42-.39-4.24-.39-4.24l-7.01,1.96Z"/>
        </g>
        <path class="cls-24" d="m116.13,93.13s-2.94,1.49-4.67,1c0,0,.41-.54,1.14-.95-.07-.34-.12-.64-.15-.89-.08-.58-.09-.91-.09-.91l1.13-.92,1.07-.88c-.04,2.43,1.57,3.57,1.57,3.57Z"/>
        <path class="cls-11" d="m119.06,108.3c-1.19.72-2.31,1.26-3.63,1.56-1.55.37-3.46.26-4.1.36-.07,0-.13,0-.19-.05-.05-.03-.33-1.92-.61-4.31-.01-.1-.03-.19-.03-.29v-.03c-.11-.94-.21-1.92-.29-2.9-.07-.77-.12-1.52-.16-2.24-.05-.89-.07-1.71-.05-2.38,0-.31.03-.58.05-.82.17-1.4.83-2.4,1.46-3.14l.52-.59c.6.04,1.22-.08,1.8-.46.64-.42,1.32-.87,1.45-.79.97.53,1.77,1.91,2.33,3.74.32,1.05.57,2.24.73,3.5.05.39.09.79.13,1.19,0,.07.01.15.02.22.08,1.09.2,2.12.34,3.03.19,1.23.4,2.27.55,3,.08.37.13.66.17.86.03.18-.33.44-.49.54Z"/>
        <path class="cls-13" d="m114.6,90.48s-.72,1.38-2.15,1.8c-.08-.58-.09-.91-.09-.91l1.13-.92,1.11.04Z"/>
        <path class="cls-24" d="m111.84,91.33s2.85.41,3.08-1.34c.23-1.75.75-2.87-1.05-3.21-1.81-.33-2.25.29-2.47.85-.22.57-.29,3.54.45,3.7Z"/>
        <path class="cls-2" d="m115.88,86.54s.08-.06.22-.06c0,0-.11-.06-.25-.06-.03-.18-.14-.51-.45-.58,0,0,.17.09.2.28-.37-.37-1.16-.63-3.33-.41-2.86.28-1.88,2.1-1.5,2.31.38.21,1.3-.41,1.99-.37.69.04.84,1.04,1.08,1.17.24.13.14-.11.45-.26.31-.15.35.38.27.72-.08.34.36.79.36.79l.43-.48c.43-.48.81-2.5.6-2.92-.02-.04-.04-.08-.06-.11Z"/>
        <path class="cls-4" d="m114.98,98.18s-2.4,1.83-4.94,2.23c-.05-.89-.07-1.71-.05-2.38l4.99.16Z"/>
        <g>
          <path class="cls-24" d="m100.24,95.82s-.53-1.68-1.37-1.56c-.55.08-1.45.4-1.21,1.12.09.29,1.78,1.27,1.78,1.27l.81-.84Z"/>
          <path class="cls-11" d="m115.27,94.65c1.37.82,1.26,2.86-.21,3.49-.03.01-.06.03-.09.04-2.25.9-9.8.95-10.47.84-.68-.11-5.18-2.21-5.18-2.21,0,0,.31-1.14.95-1.31,0,0,4.81,1.22,5.16,1.14.34-.08,7.5-3.47,8.72-2.68.32.21.72.45,1.12.69Z"/>
        </g>
      </g>
      <g>
        <path class="cls-7" d="m166.04,40.96h-6.01c-.25,0-.46-.21-.46-.46h0c0-.25.21-.46.46-.46h6.01c.25,0,.46.21.46.46h0c0,.25-.21.46-.46.46Z"/>
        <path class="cls-7" d="m166.04,42.76h-6.01c-.25,0-.46-.21-.46-.46h0c0-.25.21-.46.46-.46h6.01c.25,0,.46.21.46.46h0c0,.25-.21.46-.46.46Z"/>
        <path class="cls-7" d="m166.04,44.6h-6.01c-.25,0-.46-.21-.46-.46h0c0-.25.21-.46.46-.46h6.01c.25,0,.46.21.46.46h0c0,.25-.21.46-.46.46Z"/>
      </g>
      <path class="cls-7" d="m142.52,87.91h-14.3c-.33,0-.61-.27-.61-.61h0c0-.33.27-.61.61-.61h14.3c.33,0,.61.27.61.61h0c0,.33-.27.61-.61.61Z"/>
      <path class="cls-7" d="m72.61,46.13h-14.3c-.33,0-.61-.27-.61-.61h0c0-.33.27-.61.61-.61h14.3c.33,0,.61.27.61.61h0c0,.33-.27.61-.61.61Z"/>
      <path class="cls-7" d="m142.52,93.95h-14.3c-.33,0-.61-.27-.61-.61h0c0-.33.27-.61.61-.61h14.3c.33,0,.61.27.61.61h0c0,.33-.27.61-.61.61Z"/>
      <path class="cls-7" d="m142.52,90.93h-17.1c-.33,0-.61-.27-.61-.61h0c0-.33.27-.61.61-.61h17.1c.33,0,.61.27.61.61h0c0,.33-.27.61-.61.61Z"/>
      <g>
        <rect class="cls-7" x="59.83" y="48.74" width="9" height="1.22" rx=".57" ry=".57"/>
        <path class="cls-7" d="m57.16,49.35c0-.34.27-.61.61-.61s.61.27.61.61-.27.61-.61.61-.61-.27-.61-.61Z"/>
      </g>
      <g>
        <rect class="cls-7" x="59.83" y="51.16" width="10.57" height="1.22" rx=".57" ry=".57"/>
        <path class="cls-7" d="m57.16,51.77c0-.34.27-.61.61-.61s.61.27.61.61-.27.61-.61.61-.61-.27-.61-.61Z"/>
      </g>
      <g>
        <rect class="cls-7" x="59.83" y="53.79" width="9" height="1.22" rx=".57" ry=".57"/>
        <path class="cls-7" d="m57.16,54.4c0-.34.27-.61.61-.61s.61.27.61.61-.27.61-.61.61-.61-.27-.61-.61Z"/>
      </g>
      <g>
        <path class="cls-25" d="m83.04,51.32c-.11.01-.21.02-.32.02-.57,0-1.11-.24-1.51-.65-.83-.85-.81-2.21.04-3.04h0c.85-.83,2.21-.81,3.04.04.83.85.81,2.21-.04,3.04-.33.32-.75.53-1.2.59Zm-1.55-3.41c-.71.69-.72,1.83-.03,2.54.33.34.78.53,1.26.54.48,0,.93-.18,1.27-.51.71-.69.72-1.83.03-2.54-.69-.71-1.83-.72-2.54-.03h0Z"/>
        <rect class="cls-25" x="80.11" y="50.13" width=".35" height="2.93" transform="translate(61.08 -41.89) rotate(45.66)"/>
        <path class="cls-25" d="m78.51,53.33h0c-.12-.12-.12-.32,0-.45l1.23-1.21c.12-.12.32-.12.45,0h0c.12.12.12.32,0,.45l-1.23,1.21c-.12.12-.32.12-.45,0Z"/>
      </g>
      <g>
        <path class="cls-21" d="m161.22,135.11h0c-.27,0-.56-.2-.64-.44l-16.5-50.24c-.08-.25.08-.45.35-.45h0c.27,0,.56.2.64.44l16.5,50.24c.08.25-.08.45-.35.45Z"/>
        <path class="cls-21" d="m174.52,135.03h0c-.27,0-.56-.2-.64-.44l-16.5-50.24c-.08-.25.08-.45.35-.45h0c.27,0,.56.2.64.44l16.5,50.24c.08.25-.08.45-.35.45Z"/>
        <path class="cls-21" d="m160.2,91.35l-13.35.08c-.26,0-.53-.19-.61-.42h0c-.08-.23.07-.42.33-.42l13.35-.08c.26,0,.53.19.61.42h0c.08.23-.07.42-.33.42Z"/>
        <path class="cls-21" d="m163.08,100.12l-13.35.08c-.26,0-.53-.19-.61-.42h0c-.08-.23.07-.42.33-.42l13.35-.08c.26,0,.53.19.61.42h0c.08.23-.07.42-.33.42Z"/>
        <path class="cls-21" d="m165.85,108.57l-13.35.08c-.26,0-.53-.19-.61-.42h0c-.08-.23.07-.42.33-.42l13.35-.08c.26,0,.53.19.61.42h0c.08.23-.07.42-.33.42Z"/>
        <path class="cls-21" d="m168.98,118.08l-13.35.08c-.26,0-.53-.19-.61-.42h0c-.08-.23.07-.42.33-.42l13.35-.08c.26,0,.53.19.61.42h0c.08.23-.07.42-.33.42Z"/>
        <path class="cls-21" d="m172.25,128.04l-13.35.08c-.26,0-.53-.19-.61-.42h0c-.08-.23.07-.42.33-.42l13.35-.08c.26,0,.53.19.61.42h0c.08.23-.07.42-.33.42Z"/>
      </g>
      <g>
        <path class="cls-21" d="m143.5,61.42h0c-.1.02-.21-.05-.23-.15l-.21-1.1c-.02-.1.05-.21.15-.23h0c.1-.02.21.05.23.15l.21,1.1c.02.1-.05.21-.15.23Z"/>
        <rect class="cls-21" x="142.94" y="58.05" width=".13" height="1.63" transform="translate(-8.58 28.25) rotate(-10.95)"/>
        <path class="cls-24" d="m142.92,49.08s-.13-1.1-.39-1.52c-.27-.42-1.27-.69-1.34-.63-.2.19.58.87.61,1.11.03.25-.4.08-.19.56.17.41.74.94.74.94l.56-.47Z"/>
        <path class="cls-27" d="m142.43,48.95c.37-.29.45-.28.45-.28,0,0,3.4,2.94,3.73,3.2.33.26,5.43,1.74,5.43,1.74l.81,4.15s-6.9-3.33-7.73-4.01c-1.36-1.12-3.08-4.27-3.08-4.27,0,0,.11-.3.4-.52Z"/>
        <path class="cls-14" d="m152.14,88.8s-.06,1.42-.33,1.76l-3.79.02c.03-.15.04-.48.57-.58.66-.12,1.44-.58,1.84-1.45.42-.92,1.71.24,1.71.24Z"/>
        <path class="cls-14" d="m159.57,88.6s.26,1.88-.09,1.92c-.05,0-1.53.03-2.17.04-.75.01-1.99-.01-1.99-.01-.16,0-.26-.16-.18-.3.09-.15.25-.3.57-.36.66-.13,1.76-.61,2.14-1.49.41-.93,1.72.21,1.72.21Z"/>
        <path class="cls-4" d="m150.18,69.3s1.05,3.68,4.07,10.08c3.02,6.4,3.15,9.48,3.15,9.48,0,0,.46.16,1.06.1.66-.07,1.12-.36,1.12-.36,0,0-.2-7.61-1.62-10.84-1.42-3.23-1.72-12.06-1.72-12.06l-6.06,3.61Z"/>
        <path class="cls-21" d="m148.49,66.14s-.08,5.7.9,12.7c.99,7,.53,10.26.53,10.26,0,0,.26.19,1.07.19.94,0,1.42-.39,1.42-.39,0,0,1.41-7,1.01-10.51s1.93-12.03,1.93-12.03l-6.86-.22Z"/>
        <path class="cls-24" d="m153.15,52.79l-1.11.83-1.61-.34c.02-.15.13-.76.23-1.31,0-.03.01-.07.02-.1.08-.47.15-.87.15-.87l1.5-.75.56-.28s-.04.52-.05.6c-.11,1.32.31,2.22.31,2.22Z"/>
        <path class="cls-5" d="m156.34,66.84c-.36,1.67-8.16.94-8.06-.08,0-.03.02-.5.05-1.14.06-1.37.15-3.52.16-3.69,0,0,0,0,0,0,.14-1.42.28-2.8.28-3.71,0-.78.12-1.59.26-2.32.13-.67.3-1.28.44-1.76.1-.34.29-.63.53-.86.18-.16.38-.3.61-.39.06-.03.13-.05.19-.07.92-.27,2.19-.6,2.53-.5.93.27,1.63,1.92,2.12,4.01.92,3.92,1.13,9.42.89,10.5Z"/>
        <path class="cls-22" d="m152.72,50.59c-.33.63-1.56,1.18-2.08,1.38,0-.03.01-.07.02-.1.08-.47.15-.87.15-.87l1.5-.75c.33,0,.54.08.4.34Z"/>
        <path class="cls-24" d="m150.09,50.91s2.71.85,3.22-.85c.5-1.7,1.19-2.73-.52-3.35-1.71-.61-2.24-.06-2.55.46-.31.53-.84,3.47-.15,3.74Z"/>
        <path class="cls-14" d="m150.34,47.01s.17,1.98.58,1.89c.41-.09.78-.15.72.45-.06.6-.63,1.28.63,1.39,1.26.11,3.07-3.14,2.72-3.76-1-1.77-6.1-2.13-4.66.03Z"/>
        <path class="cls-27" d="m148.33,65.62c.06-1.37.15-3.52.16-3.69,0,0,0,0,0,0l4.61-2.76s.18,6.43-4.77,6.45Z"/>
        <path class="cls-24" d="m144.67,59.85s-.94-.63-1.11-.69c-.18-.06-.76-.12-.79-.07-.03.05-.11.19,0,.23s.23.03.19.06c-.04.03-.42-.15-.51.05-.09.2-.17.86.28,1.07.45.2,1.56.02,1.64.04.68.2.3-.7.3-.7Z"/>
        <path class="cls-5" d="m144.66,59.68s4.57.78,4.98.58c.65-.31-.25-4.95-.25-4.95,0,0-.04-1.05,1.19-1.3,1.07-.22,2.1.58,2.1.58,0,0,.94.84.82,1.77-.27,2.06-.68,6.25-2.05,6.89-1.78.83-6.92-2.3-6.92-2.3,0,0-.17-.21-.15-.6.02-.34.29-.67.29-.67Z"/>
        <path class="cls-24" d="m141.59,48.55s-.29-.58-.34-.69c-.05-.11.07-.09.18-.02.11.06.27.4.44.36.14-.03-.28.36-.28.36Z"/>
      </g>
    </g>
  </g>
</svg>