<?xml version="1.0" encoding="utf-8"?>
<!-- Generator: Adobe Illustrator 27.7.0, SVG Export Plug-In . SVG Version: 6.00 Build 0)  -->
<svg version="1.1" id="Layer_1" xmlns="http://www.w3.org/2000/svg" xmlns:xlink="http://www.w3.org/1999/xlink" x="0px" y="0px"
	 viewBox="0 0 52.5 54.3" style="enable-background:new 0 0 52.5 54.3;" xml:space="preserve">
<style type="text/css">
	.st0{fill:#38AB49;}
	.st1{fill:#FFFFFF;}
	.st2{fill:#E5E6E6;}
</style>
<g>
	
		<ellipse transform="matrix(0.9996 -2.770051e-02 2.770051e-02 0.9996 -0.7418 0.7371)" class="st0" cx="26.2" cy="27.1" rx="21" ry="21"/>
	<g>
		<path class="st2" d="M35.8,29.2v7.1h-4.1v-6.6c0-1.7-0.6-2.8-2.1-2.8c-1.1,0-1.8,0.8-2.1,1.5c-0.1,0.3-0.1,0.6-0.1,1l0,6.9h-4.1
			c0,0,0.1-11.2,0-12.4l4.1,0v1.8c0,0,0,0,0,0h0v0c0.5-0.8,1.5-2,3.7-2C33.8,23.6,35.8,25.4,35.8,29.2L35.8,29.2z M19,18
			c-1.4,0-2.3,0.9-2.3,2.1c0,1.2,0.9,2.1,2.3,2.1h0c1.4,0,2.3-1,2.3-2.1C21.2,18.9,20.4,18,19,18L19,18z M16.9,36.3H21l0-12.4h-4.1
			L16.9,36.3z"/>
	</g>
</g>
</svg>
