<?xml version="1.0" encoding="utf-8"?>
<!-- Generator: Adobe Illustrator 27.7.0, SVG Export Plug-In . SVG Version: 6.00 Build 0)  -->
<svg version="1.1" id="Layer_1" xmlns="http://www.w3.org/2000/svg" xmlns:xlink="http://www.w3.org/1999/xlink" x="0px" y="0px"
	 viewBox="0 0 52.5 54.3" style="enable-background:new 0 0 52.5 54.3;" xml:space="preserve">
<style type="text/css">
	.st0{fill:#38AB49;}
	.st1{fill:#FFFFFF;}
	.st2{fill:#E5E6E6;}
</style>
<g>
	<g>
		
			<ellipse transform="matrix(0.9996 -2.770045e-02 2.770045e-02 0.9996 -0.7418 0.7371)" class="st0" cx="26.2" cy="27.1" rx="21" ry="21"/>
		<g id="XMLID_00000075845261924692172330000006389348252774140324_">
			<path id="XMLID_00000102510511944103777730000006363245188082986409_" class="st1" d="M26.2,19c2.6,0,3,0,4,0.1
				c1,0,1.5,0.2,1.8,0.3c0.5,0.2,0.8,0.4,1.1,0.7c0.3,0.3,0.6,0.7,0.7,1.1c0.1,0.3,0.3,0.9,0.3,1.8c0,1,0.1,1.4,0.1,4
				c0,2.6,0,3-0.1,4c0,1-0.2,1.5-0.3,1.8c-0.2,0.5-0.4,0.8-0.7,1.1c-0.3,0.3-0.7,0.6-1.1,0.7c-0.3,0.1-0.9,0.3-1.8,0.3
				c-1,0-1.4,0.1-4,0.1c-2.6,0-3,0-4-0.1c-1,0-1.5-0.2-1.8-0.3c-0.5-0.2-0.8-0.4-1.1-0.7c-0.3-0.3-0.6-0.7-0.7-1.1
				c-0.1-0.3-0.3-0.9-0.3-1.8c0-1-0.1-1.4-0.1-4c0-2.6,0-3,0.1-4c0-1,0.2-1.5,0.3-1.8c0.2-0.5,0.4-0.8,0.7-1.1
				c0.3-0.3,0.7-0.6,1.1-0.7c0.3-0.1,0.9-0.3,1.8-0.3C23.3,19,23.6,19,26.2,19 M26.2,17.2c-2.7,0-3,0-4.1,0.1
				c-1.1,0-1.8,0.2-2.4,0.5c-0.7,0.3-1.2,0.6-1.8,1.1c-0.6,0.6-0.9,1.1-1.1,1.8c-0.2,0.6-0.4,1.3-0.5,2.4c0,1.1-0.1,1.4-0.1,4.1
				s0,3,0.1,4.1c0,1.1,0.2,1.8,0.5,2.4c0.3,0.7,0.6,1.2,1.1,1.8c0.6,0.6,1.1,0.9,1.8,1.1c0.6,0.2,1.3,0.4,2.4,0.5
				c1.1,0,1.4,0.1,4.1,0.1c2.7,0,3,0,4.1-0.1c1.1,0,1.8-0.2,2.4-0.5c0.7-0.3,1.2-0.6,1.8-1.1c0.6-0.6,0.9-1.1,1.1-1.8
				c0.2-0.6,0.4-1.3,0.5-2.4c0-1.1,0.1-1.4,0.1-4.1s0-3-0.1-4.1c0-1.1-0.2-1.8-0.5-2.4c-0.3-0.7-0.6-1.2-1.1-1.8
				c-0.6-0.6-1.1-0.9-1.8-1.1c-0.6-0.2-1.3-0.4-2.4-0.5C29.3,17.3,28.9,17.2,26.2,17.2"/>
			<path id="XMLID_00000091701617662428681360000003658990654046113713_" class="st1" d="M26.2,22.1c-2.8,0-5.1,2.3-5.1,5.1
				s2.3,5.1,5.1,5.1c2.8,0,5.1-2.3,5.1-5.1S29,22.1,26.2,22.1 M26.2,30.4c-1.8,0-3.3-1.5-3.3-3.3c0-1.8,1.5-3.3,3.3-3.3
				c1.8,0,3.3,1.5,3.3,3.3C29.5,29,28.1,30.4,26.2,30.4"/>
			<path id="XMLID_00000073720916403871847700000004484300410142400950_" class="st1" d="M32.7,21.9c0,0.7-0.5,1.2-1.2,1.2
				c-0.7,0-1.2-0.5-1.2-1.2c0-0.7,0.5-1.2,1.2-1.2C32.2,20.7,32.7,21.2,32.7,21.9"/>
		</g>
	</g>
</g>
</svg>
