<?xml version="1.0" encoding="utf-8"?>
<!-- Generator: Adobe Illustrator 27.7.0, SVG Export Plug-In . SVG Version: 6.00 Build 0)  -->
<svg version="1.1" id="Layer_1" xmlns="http://www.w3.org/2000/svg" xmlns:xlink="http://www.w3.org/1999/xlink" x="0px" y="0px"
	 viewBox="0 0 612 131" style="enable-background:new 0 0 612 131;" xml:space="preserve">
<style type="text/css">
	.st0{fill:#37AA4A;}
	.st1{fill:#000435;}
	.st2{enable-background:new    ;}
</style>
<g>
	<g>
		<g>
			<g>
				<path class="st0" d="M136.3,42.9c-0.4-0.7-0.8-1.4-1.2-2.1c-2,3.2-5.2,4.5-7.8,4.9c-0.2,0-0.4,0.1-0.6,0.1
					c0.3,0.5,0.6,1.1,0.8,1.6l0,0c0,0.1,0.1,0.2,0.1,0.2c1.6-0.1,3.5-0.4,5.2-1.4C134.3,45.5,135.5,44.4,136.3,42.9z"/>
			</g>
			<g>
				<path class="st0" d="M125,42.8c0.3,0.5,0.7,1,1,1.6c1.5-0.1,3.4-0.5,5-1.5c1.4-0.8,2.5-2,3.3-3.5c-0.3-0.4-0.7-0.9-1.2-1.6
					C131,41.3,127.7,42.5,125,42.8z"/>
			</g>
			<g>
				<path class="st0" d="M122.6,39.8c0.4,0.5,0.9,1.1,1.4,1.8c1.4-0.1,3-0.4,4.5-1.2s2.7-2,3.6-3.6c-0.4-0.5-0.9-1.1-1.4-1.7
					C128.6,38.3,125.3,39.4,122.6,39.8z"/>
			</g>
			<g>
				<path class="st0" d="M134.5,49.9c1.5-0.7,2.7-1.8,3.7-3.2c-0.3-0.8-0.7-1.6-1.1-2.4c-2.1,3.1-5.3,4.3-7.9,4.6
					c-0.2,0-0.5,0.1-0.9,0.1c0.1,0.1,0.1,0.2,0.2,0.4c0.1,0.2,0.2,0.3,0.2,0.5c0,0,0,0.1,0.1,0.1c0.1,0.3,0.2,0.5,0.3,0.8
					C130.6,50.9,132.6,50.8,134.5,49.9z"/>
			</g>
			<g>
				<path class="st0" d="M24.9,88.2c0.4,0.8,0.8,1.7,1.2,2.5c1.7-3.6,4.8-5.2,7.5-5.9c0.2,0,0.4-0.1,0.6-0.1
					c-0.3-0.6-0.5-1.2-0.8-1.8c-1.6,0.1-3.5,0.5-5.2,1.6C26.8,85.4,25.7,86.6,24.9,88.2z"/>
			</g>
			<g>
				<path class="st0" d="M35.9,87.8c0.1,0,0.2,0,0.3-0.1c-0.5-0.7-0.9-1.3-1.2-1.8c-1.5,0.3-3.2,0.8-4.7,1.9s-2.6,2.6-3.3,4.5
					c0.4,0.7,0.9,1.4,1.3,2.1C29.9,90.4,33.1,88.6,35.9,87.8z"/>
			</g>
			<g>
				<path class="st0" d="M31.8,81.7c0.3-0.1,0.7-0.1,1.1-0.1c-1.7-4.6-2.7-9.6-2.7-14.7c0-15.5,8.4-29.2,21.3-37.6l29.8,31.3
					L111.5,30c2.6,1.8,5.1,3.9,7.3,6.1c0,0,1.1,0.7,2.7,2.4c1.5-0.1,3.2-0.4,4.9-1.3c1.5-0.8,2.6-1.9,3.5-3.4
					c-1.5-1.7-3.1-3.5-4.5-4.7c-4.5-4.4-9.8-8.1-15.7-11l-4.5,4.8l-23.7,24l-21-22.3c0,0,0,0,0.1,0l-6.7-7.1
					C34,26.6,20.3,45.3,20.3,66.9c0,7,1.5,13.6,4.1,19.8C26.2,83.4,29.3,82.1,31.8,81.7z"/>
			</g>
			<g>
				<path class="st0" d="M40.1,93.4c-0.4-0.6-0.8-1.1-1.3-1.7c-1.1,0.3-2.3,0.8-3.4,1.6c-1.8,1.3-3,3.1-3.6,5.5
					c0.5,0.6,1,1.1,1.4,1.6C34.5,96.3,37.4,94.4,40.1,93.4z"/>
			</g>
			<g>
				<path class="st0" d="M38,90.5c-0.4-0.5-0.7-1-1-1.5c-1.4,0.3-3,0.9-4.3,2c-1.6,1.2-2.7,2.9-3.2,5c0.4,0.5,0.8,1,1.3,1.5
					C32.1,93.3,35.2,91.3,38,90.5z"/>
			</g>
			<path class="st1" d="M138.8,48.2c-2.3,2.9-5.5,3.8-8.2,4c-0.2,0-0.4,0-0.7,0c-0.1,0-0.2,0-0.4,0c1.7,4.6,2.7,9.6,2.7,14.7
				c0,1.1,0,2.2-0.1,3.3c0,0.1,0,0.1,0,0.2c-0.1,1-0.2,1.9-0.3,2.8c-0.1,0.4-0.1,0.8-0.2,1.3c-0.1,0.4-0.1,0.7-0.2,1.1
				c-0.5,2.5-1.3,4.9-2.2,7.2V83c-3.4,8.3-9.3,15.5-17,20.8L81.4,73l-29.2,31.6c-3.6-2.3-6.8-5-9.6-8.1c-0.5-0.5-1-1.1-1.6-1.9
				c-1,0.3-2.1,0.8-3.1,1.5c-1.8,1.3-3,3.1-3.6,5.5c1.9,2.1,3.3,3.5,3.3,3.5c4.8,4.6,10.5,8.4,16.7,11.2l6.7-7.1c0,0,0,0-0.1,0
				l20.7-22.3l24,24l4.5,4.8c16.9-8.3,29.1-23.6,31.7-41.6c0-0.1,0-0.2,0-0.3c0.1-0.5,0.1-1.1,0.2-1.6c0-0.4,0.1-0.7,0.1-1.1
				c0-0.2,0-0.3,0-0.5c0.1-1.3,0.2-2.5,0.2-3.8C142.4,60.3,141.1,54,138.8,48.2z"/>
		</g>
	</g>
	<g class="st2">
		<path class="st0" d="M192.3,49.9h7.7l3.8,11.6l3.8-11.6h7.8l-6.2,16.8l3.7,9.6l9.1-26.5h9.1l-14.1,36.2h-7.2l-5.9-14.2l-5.8,14.2
			h-7.3l-14.1-36.2h9.1l9.1,26.5l3.6-9.6L192.3,49.9z"/>
		<path class="st0" d="M259.7,78.8v7.4h-25.5V49.9h25v7.4h-16.6v7h14.3v6.8h-14.3v7.7H259.7z"/>
		<path class="st0" d="M294.7,76.8c0,2.1-0.6,3.8-1.7,5.2c-1.1,1.4-2.6,2.4-4.5,3.1c-1.9,0.7-3.9,1-6.2,1h-17.7V49.9h20.2
			c1.7,0,3.2,0.5,4.4,1.4c1.2,0.9,2.2,2.1,2.9,3.5s1,2.9,1,4.4c0,1.7-0.4,3.3-1.3,4.9c-0.9,1.5-2.2,2.7-3.9,3.5
			c2.1,0.6,3.7,1.7,4.9,3.3C294.1,72.4,294.7,74.4,294.7,76.8z M273.1,57v7.5h8.2c0.6,0,1.2-0.1,1.7-0.4c0.5-0.3,1-0.7,1.3-1.3
			c0.3-0.6,0.5-1.3,0.5-2.1c0-0.8-0.1-1.5-0.4-2c-0.3-0.5-0.7-1-1.1-1.3c-0.5-0.3-1-0.4-1.6-0.4H273.1z M286.2,75.1
			c0-0.8-0.2-1.5-0.5-2.1c-0.3-0.6-0.7-1.1-1.2-1.4c-0.5-0.4-1.1-0.5-1.8-0.5h-9.6V79h9.3c0.7,0,1.4-0.2,1.9-0.5
			c0.6-0.3,1-0.8,1.4-1.4C286,76.6,286.2,75.9,286.2,75.1z"/>
	</g>
	<g class="st2">
		<path class="st1" d="M352,86.1V64.5l-7.8,15.7h-4.6l-7.8-15.7v21.6h-8.4V49.9h9.1l9.4,18.9l9.4-18.9h9v36.2H352z"/>
		<path class="st1" d="M392.8,78.8v7.4h-25.5V49.9h25v7.4h-16.6v7H390v6.8h-14.3v7.7H392.8z"/>
		<path class="st1" d="M395.2,67.6c0-2.2,0.4-4.4,1.2-6.5s2-4.1,3.6-5.8c1.6-1.7,3.5-3.1,5.7-4.2c2.2-1,4.8-1.6,7.7-1.6
			c3.4,0,6.4,0.7,8.9,2.2c2.5,1.5,4.4,3.4,5.6,5.7l-6.4,4.5c-0.5-1.3-1.3-2.3-2.2-3c-0.9-0.7-1.9-1.2-3-1.5s-2.1-0.4-3.1-0.4
			c-1.6,0-3,0.3-4.2,0.9c-1.2,0.6-2.2,1.5-3,2.5c-0.8,1.1-1.4,2.2-1.7,3.5c-0.4,1.3-0.6,2.6-0.6,3.9c0,1.4,0.2,2.8,0.7,4.1
			s1.1,2.5,1.9,3.5c0.8,1,1.8,1.8,3,2.4c1.2,0.6,2.5,0.9,3.9,0.9c1,0,2.1-0.2,3.1-0.5c1.1-0.3,2-0.9,2.9-1.6
			c0.9-0.7,1.6-1.7,2.1-2.9l6.8,4c-0.7,1.8-1.9,3.3-3.5,4.5c-1.6,1.3-3.5,2.2-5.5,2.9c-2.1,0.7-4.1,1-6.1,1c-2.6,0-5-0.5-7.2-1.6
			c-2.2-1.1-4.1-2.5-5.7-4.3c-1.6-1.8-2.8-3.8-3.7-6C395.6,72.2,395.2,70,395.2,67.6z"/>
		<path class="st1" d="M463.6,49.9v36.2h-8.4V71.3h-14.4v14.9h-8.4V49.9h8.4v14h14.4v-14H463.6z"/>
		<path class="st1" d="M479.7,49.9h9l12.5,36.2h-8.6l-2.5-8.1h-11.9l-2.5,8.1h-8.6L479.7,49.9z M488.4,72.2l-4.2-13.9l-4.2,13.9
			H488.4z"/>
		<path class="st1" d="M513.1,65.4v20.7h-8.4V49.9h6.6l16.8,21.3V49.9h8.4v36.2h-6.8L513.1,65.4z"/>
		<path class="st1" d="M543.5,86.1V49.9h8.4v36.2H543.5z"/>
		<path class="st1" d="M556.7,67.6c0-2.2,0.4-4.4,1.2-6.5s2-4.1,3.6-5.8c1.6-1.7,3.5-3.1,5.7-4.2c2.2-1,4.8-1.6,7.7-1.6
			c3.4,0,6.4,0.7,8.9,2.2c2.5,1.5,4.4,3.4,5.6,5.7l-6.4,4.5c-0.5-1.3-1.3-2.3-2.2-3c-0.9-0.7-1.9-1.2-3-1.5s-2.1-0.4-3.1-0.4
			c-1.6,0-3,0.3-4.2,0.9c-1.2,0.6-2.2,1.5-3,2.5c-0.8,1.1-1.4,2.2-1.7,3.5c-0.4,1.3-0.6,2.6-0.6,3.9c0,1.4,0.2,2.8,0.7,4.1
			s1.1,2.5,1.9,3.5c0.8,1,1.8,1.8,3,2.4c1.2,0.6,2.5,0.9,3.9,0.9c1,0,2.1-0.2,3.1-0.5c1.1-0.3,2-0.9,2.9-1.6
			c0.9-0.7,1.6-1.7,2.1-2.9l6.8,4c-0.7,1.8-1.9,3.3-3.5,4.5c-1.6,1.3-3.5,2.2-5.5,2.9c-2.1,0.7-4.1,1-6.1,1c-2.6,0-5-0.5-7.2-1.6
			c-2.2-1.1-4.1-2.5-5.7-4.3c-1.6-1.8-2.8-3.8-3.7-6C557.1,72.2,556.7,70,556.7,67.6z"/>
	</g>
</g>
</svg>
