<?xml version="1.0" encoding="UTF-8"?>
<svg xmlns="http://www.w3.org/2000/svg" xmlns:xlink="http://www.w3.org/1999/xlink" viewBox="0 0 82.22 82.94">
  <defs>
    <style>
      .cls-1 {
        fill: #26264f;
      }

      .cls-2 {
        fill: url(#linear-gradient-2);
      }

      .cls-3, .cls-4 {
        fill: #fff;
      }

      .cls-5 {
        fill: url(#linear-gradient-17);
      }

      .cls-6 {
        fill: #37b34a;
      }

      .cls-7 {
        fill: url(#linear-gradient-15);
      }

      .cls-8 {
        fill: url(#linear-gradient-18);
      }

      .cls-9 {
        fill: url(#linear-gradient-28);
      }

      .cls-10 {
        fill: url(#linear-gradient-14);
      }

      .cls-11, .cls-12 {
        fill: url(#linear-gradient-20);
      }

      .cls-12, .cls-13, .cls-14, .cls-15, .cls-16, .cls-17 {
        mix-blend-mode: multiply;
        opacity: .3;
      }

      .cls-13, .cls-18, .cls-19 {
        fill: none;
      }

      .cls-14, .cls-20 {
        fill: #faaf40;
      }

      .cls-21 {
        fill: url(#linear-gradient-11);
      }

      .cls-22 {
        fill: url(#linear-gradient-10);
      }

      .cls-23 {
        fill: url(#linear-gradient-16);
      }

      .cls-24 {
        fill: #8bc53f;
      }

      .cls-18 {
        isolation: isolate;
      }

      .cls-19, .cls-4 {
        opacity: .64;
      }

      .cls-15 {
        fill: url(#linear-gradient-25);
      }

      .cls-25 {
        fill: url(#linear-gradient-21);
      }

      .cls-26 {
        fill: url(#linear-gradient-5);
      }

      .cls-16 {
        fill: url(#linear-gradient-6);
      }

      .cls-27 {
        fill: url(#linear-gradient-7);
      }

      .cls-28 {
        fill: #d6de23;
      }

      .cls-29 {
        fill: #de8bdf;
      }

      .cls-30 {
        fill: url(#linear-gradient-24);
      }

      .cls-31 {
        fill: #f4f7fa;
      }

      .cls-32 {
        fill: url(#linear-gradient-9);
      }

      .cls-33 {
        fill: url(#linear-gradient-22);
      }

      .cls-34 {
        fill: url(#linear-gradient);
      }

      .cls-35 {
        fill: url(#linear-gradient-27);
      }

      .cls-17 {
        fill: url(#linear-gradient-3);
      }

      .cls-36 {
        fill: url(#linear-gradient-23);
      }

      .cls-37 {
        fill: url(#linear-gradient-19);
      }

      .cls-38 {
        fill: url(#linear-gradient-4);
      }

      .cls-39 {
        fill: url(#linear-gradient-8);
      }

      .cls-40 {
        fill: url(#linear-gradient-12);
      }

      .cls-41 {
        fill: url(#linear-gradient-13);
      }

      .cls-42 {
        fill: url(#linear-gradient-26);
      }
    </style>
    <linearGradient id="linear-gradient" x1="59.27" y1="64.24" x2="25.28" y2="35.25" gradientUnits="userSpaceOnUse">
      <stop offset="0" stop-color="#444b8c"/>
      <stop offset="1" stop-color="#26264f"/>
    </linearGradient>
    <linearGradient id="linear-gradient-2" x1="-2014.18" y1="1366.76" x2="-1887.55" y2="1371.47" gradientTransform="translate(-1335.55 -1939.15) rotate(-90)" xlink:href="#linear-gradient"/>
    <linearGradient id="linear-gradient-3" x1="14.72" y1="16.61" x2="115.66" y2="109.85" gradientUnits="userSpaceOnUse">
      <stop offset="0" stop-color="#ffc444"/>
      <stop offset="1" stop-color="#f36f56"/>
    </linearGradient>
    <linearGradient id="linear-gradient-4" x1="-7" y1="48.57" x2="95.64" y2="143.4" gradientUnits="userSpaceOnUse">
      <stop offset="0" stop-color="#aa80f9"/>
      <stop offset="1" stop-color="#6165d7"/>
    </linearGradient>
    <linearGradient id="linear-gradient-5" x1="8.75" y1="36.81" x2="98.73" y2="119.93" xlink:href="#linear-gradient-4"/>
    <linearGradient id="linear-gradient-6" x1="46.12" y1="14.29" x2="99.83" y2="63.91" gradientUnits="userSpaceOnUse">
      <stop offset="0" stop-color="#ff9085"/>
      <stop offset="1" stop-color="#fb6fbb"/>
    </linearGradient>
    <linearGradient id="linear-gradient-7" x1="38.28" y1="4.21" x2="23.04" y2="29.12" xlink:href="#linear-gradient"/>
    <linearGradient id="linear-gradient-8" x1="24.99" y1="18.29" x2="21.37" y2="29.6" xlink:href="#linear-gradient-6"/>
    <linearGradient id="linear-gradient-9" x1="28.07" y1="22.05" x2="26.06" y2="28.31" xlink:href="#linear-gradient-6"/>
    <linearGradient id="linear-gradient-10" x1="31.43" y1="23.79" x2="30.19" y2="27.66" xlink:href="#linear-gradient-6"/>
    <linearGradient id="linear-gradient-11" x1="36.85" y1="13.6" x2="31.32" y2="30.84" xlink:href="#linear-gradient-6"/>
    <linearGradient id="linear-gradient-12" x1="40.13" y1="15.02" x2="35.24" y2="30.3" xlink:href="#linear-gradient-6"/>
    <linearGradient id="linear-gradient-13" x1="44.03" y1="12.64" x2="38.15" y2="30.98" xlink:href="#linear-gradient-6"/>
    <linearGradient id="linear-gradient-14" x1="46.79" y1="16.32" x2="42.5" y2="29.72" xlink:href="#linear-gradient-6"/>
    <linearGradient id="linear-gradient-15" x1="49.43" y1="20.34" x2="46.86" y2="28.36" xlink:href="#linear-gradient-6"/>
    <linearGradient id="linear-gradient-16" x1="-4103.27" y1="49.99" x2="-4100.73" y2="49.99" gradientTransform="translate(-4054.63) rotate(-180) scale(1 -1)" gradientUnits="userSpaceOnUse">
      <stop offset="0" stop-color="#40447e"/>
      <stop offset="1" stop-color="#3c3b6b"/>
    </linearGradient>
    <linearGradient id="linear-gradient-17" x1="-4094.47" y1="45.62" x2="-4092.79" y2="45.62" xlink:href="#linear-gradient-16"/>
    <linearGradient id="linear-gradient-18" x1="-4102.03" y1="49.86" x2="-4101.11" y2="51.77" gradientTransform="translate(-4054.63) rotate(-180) scale(1 -1)" gradientUnits="userSpaceOnUse">
      <stop offset="0" stop-color="#311944"/>
      <stop offset="1" stop-color="#a03976"/>
    </linearGradient>
    <linearGradient id="linear-gradient-19" x1="-4093.16" y1="42.31" x2="-4094.57" y2="48.59" xlink:href="#linear-gradient-18"/>
    <linearGradient id="linear-gradient-20" x1="-4093.52" y1="47.11" x2="-4100.03" y2="40.6" gradientTransform="translate(-4054.63) rotate(-180) scale(1 -1)" gradientUnits="userSpaceOnUse">
      <stop offset="0" stop-color="#ab316d"/>
      <stop offset="1" stop-color="#792d3d"/>
    </linearGradient>
    <linearGradient id="linear-gradient-21" x1="-4089.21" y1="42.8" x2="-4095.72" y2="36.29" xlink:href="#linear-gradient-20"/>
    <linearGradient id="linear-gradient-22" x1="-4097.75" y1="22.42" x2="-4101.35" y2="33.53" gradientTransform="translate(-4054.63) rotate(-180) scale(1 -1)" xlink:href="#linear-gradient-4"/>
    <linearGradient id="linear-gradient-23" x1="-4085.99" y1="29.86" x2="-4087.11" y2="28.74" xlink:href="#linear-gradient-18"/>
    <linearGradient id="linear-gradient-24" x1="-4092.99" y1="23.96" x2="-4096.59" y2="35.08" gradientTransform="translate(-4054.63) rotate(-180) scale(1 -1)" xlink:href="#linear-gradient-4"/>
    <linearGradient id="linear-gradient-25" x1="-4097.91" y1="22.37" x2="-4101.51" y2="33.48" gradientTransform="translate(-4054.63) rotate(-180) scale(1 -1)" xlink:href="#linear-gradient-4"/>
    <linearGradient id="linear-gradient-26" x1="-4102.46" y1="25.22" x2="-4099.56" y2="20.45" xlink:href="#linear-gradient-18"/>
    <linearGradient id="linear-gradient-27" x1="-4102.66" y1="25.1" x2="-4099.77" y2="20.32" xlink:href="#linear-gradient-18"/>
    <linearGradient id="linear-gradient-28" x1="-4102.61" y1="25.13" x2="-4099.72" y2="20.35" xlink:href="#linear-gradient-18"/>
  </defs>
  <g class="cls-18">
    <g id="Layer_2" data-name="Layer 2">
      <g id="Layer_1-2" data-name="Layer 1">
        <g>
          <path class="cls-31" d="m77.61,55.44c-5.87,6.66-15.66,6-15.63,9.14.02,3.46,11.96,4.05,12.18,7.31.3,4.42-20.96,12.92-43.15,9.44-7.65-1.2-14.89-2.36-21.13-8C-7.23,57.86,5.3,25.13,7.34,19.71c4.04-10.71,9.04-14.16,10.58-15.24C25.98-1.12,35.24-.2,43.51.62c6.26.62,15.64,1.68,24.2,8.74,1.46,1.2,4.68,4.06,7.58,8.6,7.05,11.03,10.17,28.57,2.32,37.48Z"/>
          <g>
            <g>
              <g>
                <path class="cls-34" d="m51.58,3.69v70.48c0,1.05-.9,1.31-1.92,1.39l-35.71,3.19-.55.04c-1.13.08-2.06-.76-2.06-1.88V2.51c0-1.11.93-1.99,2.06-1.96l.75.02,35.83,2.73c1.02.03,1.61-.67,1.61.38Z"/>
                <path class="cls-2" d="m52.67,3.69v70.44c0,1.05-.83,1.97-1.86,2.05l-36.29,2.56c-1.13.08-2.06-.76-2.06-1.88V2.5c0-1.11.93-1.99,2.06-1.96l36.29,1.16c1.02.03,1.86.92,1.86,1.97Z"/>
                <path class="cls-6" d="m51.52,7.56v65.29c0,.98-.78,1.84-1.74,1.91l-34.12,2.34c-1.05.07-1.91-.72-1.91-1.75V6.66c0-1.04.86-1.86,1.91-1.83l34.12.9c.96.03,1.74.85,1.74,1.84Z"/>
              </g>
              <path class="cls-29" d="m33.79,3.35c0,.37-.3.67-.67.66-.37-.01-.67-.32-.67-.7s.3-.67.67-.66c.37.01.67.32.67.7Z"/>
            </g>
            <polygon class="cls-4" points="31.69 55.86 16.73 56.47 16.73 43.07 31.69 42.7 31.69 55.86"/>
            <polygon class="cls-4" points="48.79 55.16 34.44 55.75 34.44 42.63 48.79 42.27 48.79 55.16"/>
            <polygon class="cls-4" points="31.69 72.04 16.73 72.93 16.73 59.54 31.69 58.88 31.69 72.04"/>
            <polygon class="cls-4" points="48.79 71.02 34.44 71.88 34.44 58.75 48.79 58.12 48.79 71.02"/>
            <g class="cls-19">
              <path class="cls-3" d="m26.42,35.79c0,2.57-2.15,4.69-4.82,4.75-2.68.06-4.87-2-4.87-4.6s2.19-4.72,4.87-4.75c2.67-.03,4.82,2.03,4.82,4.6Z"/>
              <path class="cls-3" d="m37.75,35.62c0,2.53-2.09,4.63-4.69,4.68-2.61.05-4.74-1.98-4.74-4.54s2.13-4.66,4.74-4.68c2.6-.03,4.69,2.01,4.69,4.54Z"/>
              <path class="cls-3" d="m48.79,35.45c0,2.5-2.04,4.57-4.57,4.62-2.54.05-4.62-1.95-4.62-4.48s2.07-4.59,4.62-4.62c2.53-.02,4.57,1.98,4.57,4.48Z"/>
            </g>
          </g>
          <g>
            <g>
              <path class="cls-17" d="m74.19,69.14l.54-1.18c.2-.44.08-.98-.27-1.19l-1.39-.86c.38-1.07.64-2.2.77-3.37l1.55-.11c.4-.03.72-.45.72-.94v-1.3c0-.49-.32-.87-.72-.84l-1.51.09c-.1-1.18-.34-2.3-.7-3.35l1.28-.95s.08-.06.11-.1l.16.43,2.1-2.58-2.74-.23c-.12-.16-.28-.25-.45-.27-.15-.02-.31.02-.46.13l-1.26.92c-.59-.94-1.29-1.79-2.09-2.5l.1-.2,1.93.39.25-3.2-2.93-.48c-.34-.13-.72.03-.9.42l-.73,1.5c-.94-.47-.16-.96-1.23-1.1l1.11-1.64c0-.51-3.26-.85-3.7-.85h-1.18c-.45,0-.81.42-.81.94v1.76c-1.1.17-2.16.52-3.16,1.03l2.02-1.48s-3.55-.67-3.95-.41l-1.08.71c-.41.27-.55.86-.31,1.32l.82,1.58c-.89.8-1.27,1.26-1.95,2.31l-1.9-.43c-.42-.26-.96-.08-1.2.39l-.65,1.27c-.25.48-.1,1.07.32,1.33l1.53.92c-.42,1.18-.71,2.43-.84,3.73l-1.84.1c-.49.03-.9.49-.9,1.04v1.45c0,.49.33.88.76.92h0s2.09.33,2.09.33c.17,1.08.46,2.11.85,3.07l-1.66,1.21c-.42.31-.57.92-.32,1.37l.65,1.18c.24.44,4.11.71,4.11.71l-1.23-1.72c.67.9,1.45,1.68,2.32,2.32l-.97,2c-.24.49-.1,1.06.31,1.28l1.08.58c.07.04.14.06.21.07v.02s3.37.42,3.37.42l.33-2.54c.39.06.79.1,1.19.11v2.18c0,.39.2.69.49.8v.06s3.32.42,3.32.42l.07-4.12c.61-.23,1.2-.52,1.76-.86l.89,1.72c.11.21.29.34.49.37h0s3.23.44,3.23.44l-1.11-3.04-.45.14-.74-1.44c.77-.77,1.46-1.64,2.05-2.6l1.44.86c.35.21.8.02,1.01-.43Zm-11.06-1.11c-3.16.28-5.78-2.49-5.78-6.2s2.62-6.81,5.78-6.92c3.08-.11,5.52,2.67,5.52,6.21s-2.44,6.63-5.52,6.91Zm13.49-7.12l2.19-1.03-2.19-.27v1.3Zm-2.68,8.83l2.5.34.36-.85-2.07-1.26-.79,1.77Z"/>
              <path class="cls-24" d="m78.62,59.84l-1.5.09c-.1-1.17-.34-2.29-.7-3.34l1.27-.95c.35-.26.47-.81.27-1.22l-.53-1.11c-.2-.42-.65-.55-1-.3l-1.26.92c-.58-.94-1.28-1.78-2.07-2.49l.72-1.51c.21-.43.08-.98-.28-1.23l-.96-.66c-.36-.25-.83-.1-1.04.34l-.73,1.5c-.93-.46-1.94-.78-3-.92v-1.73c0-.51-.35-.92-.79-.92h-1.17c-.44,0-.81.42-.81.94v1.75c-1.1.17-2.15.52-3.15,1.03l-.78-1.54c-.23-.45-.74-.61-1.14-.34l-1.07.71c-.41.27-.55.86-.31,1.31l.81,1.58c-.89.79-1.68,1.73-2.36,2.78l-1.47-.91c-.42-.26-.95-.08-1.19.39l-.65,1.26c-.24.48-.1,1.07.32,1.32l1.52.91c-.42,1.18-.71,2.43-.83,3.72l-1.83.11c-.49.03-.89.49-.89,1.04v1.45c0,.54.4.96.89.92l1.87-.13c.16,1.25.47,2.43.91,3.52l-1.65,1.21c-.42.31-.57.92-.32,1.36l.65,1.18c.24.44.78.55,1.19.24l1.67-1.24c.67.9,1.44,1.68,2.31,2.31l-.96,1.99c-.23.49-.1,1.06.31,1.27l1.07.57c.4.21.91,0,1.14-.49l.96-2c.94.34,1.94.53,2.97.56v2.17c0,.52.36.89.81.83l1.17-.15c.44-.06.79-.52.79-1.03v-2.15c1-.26,1.95-.67,2.84-1.2l.88,1.72c.21.41.68.5,1.04.21l.96-.78c.36-.29.48-.86.28-1.27l-.86-1.69c.77-.77,1.45-1.64,2.03-2.6l1.43.86c.35.21.8.02,1-.43l.53-1.18c.2-.44.08-.97-.27-1.19l-1.38-.85c.37-1.07.64-2.19.77-3.36l1.55-.11c.4-.03.72-.45.72-.93v-1.3c0-.49-.32-.86-.72-.84Zm-12.19,8.65c-3.14.28-5.75-2.48-5.75-6.18s2.6-6.79,5.75-6.91c3.06-.11,5.49,2.66,5.49,6.19s-2.43,6.61-5.49,6.89Z"/>
            </g>
            <g class="cls-13">
              <path class="cls-38" d="m18.51,73.36c0-1.19-.43-2.07-1.29-2.64-.86-.57-2.43-1.13-4.72-1.68-2.33-.56-4.2-1.15-5.59-1.77-3.86-1.72-5.83-4.28-5.83-7.65,0-1.75.53-3.32,1.59-4.72,1.05-1.38,2.54-2.47,4.46-3.25,1.9-.78,4-1.17,6.3-1.19,2.28-.02,4.28.36,6.01,1.13,1.71.76,3.03,1.84,3.96,3.24.92,1.39-1.35,3.74-1.35,5.53l-3.53-.51c0-1.4-.45-2.47-1.35-3.22-.91-.75-2.19-1.11-3.86-1.07-1.63.04-2.91.41-3.83,1.11-.92.7-1.39,1.6-1.39,2.7,0,1.03.54,1.87,1.63,2.51,1.07.64,2.64,1.2,4.69,1.69,3.7.88,6.33,2.05,7.96,3.53,1.61,1.46,2.41,3.34,2.41,5.67,0,2.59-.98,4.72-2.95,6.41-2,1.72-4.74,2.78-8.25,3.2-2.49.29-4.8.12-6.91-.53-2.14-.66-3.79-1.72-4.94-3.18-1.16-1.47-1.74-3.26-1.74-5.36l7.1-.59,3.59.51s-.77,4.46,2.9,4.09c1.56-.16,2.77-.58,3.64-1.28.86-.69,1.29-1.58,1.29-2.67Z"/>
              <path class="cls-26" d="m48.58,62.31l-13.88,4.7v7.72l12.28-1.21,3.36.48-18.03,6.6-3.43-1.07v-28.81l18.07-.19,3.33.48-15.58,4.46v6.87l10.53-.56,3.35.52Z"/>
            </g>
            <g>
              <path class="cls-24" d="m22.01,73.82c0-1.18-.42-2.06-1.28-2.63-.86-.57-2.42-1.13-4.69-1.68-2.31-.56-4.17-1.14-5.56-1.76-3.84-1.72-5.79-4.27-5.79-7.62,0-1.74.53-3.31,1.58-4.7,1.04-1.38,2.52-2.46,4.44-3.25,1.89-.77,3.98-1.17,6.26-1.19,2.26-.02,4.25.35,5.98,1.12,1.7.76,3.01,1.83,3.94,3.22.92,1.38,1.38,2.97,1.38,4.75l-6.22.26c0-1.39-.45-2.46-1.34-3.21-.9-.75-2.18-1.11-3.84-1.06-1.62.04-2.89.41-3.8,1.11-.92.7-1.38,1.6-1.38,2.7,0,1.03.54,1.86,1.62,2.5,1.07.64,2.63,1.2,4.66,1.69,3.67.88,6.29,2.04,7.91,3.51,1.6,1.45,2.39,3.33,2.39,5.65,0,2.58-.97,4.7-2.93,6.39-1.99,1.71-4.71,2.78-8.2,3.19-2.48.29-4.77.12-6.86-.53-2.13-.66-3.77-1.71-4.91-3.17-1.15-1.47-1.73-3.25-1.73-5.34l7.05-.59c0,3.49,2.18,5.02,6.45,4.59,1.56-.16,2.76-.58,3.62-1.28.85-.69,1.28-1.58,1.28-2.67Z"/>
              <path class="cls-24" d="m48.58,66.74l-10.47.74v7.7l12.21-1.21v4.55l-18,2.1v-29.36l17.97-.2v4.58l-12.17.35v6.85l10.47-.56v4.46Z"/>
            </g>
            <g>
              <path class="cls-14" d="m59.05,67.41c-1.23-.03-2.37.13-3.44.39.04.1.07.2.11.29l-1.63,1.19c-.42.3-.56.91-.32,1.34l.64,1.16c.24.44.77.54,1.18.23l1.65-1.23c.66.89,1.42,1.65,2.27,2.28l-.95,1.96c-.23.48-.09,1.04.31,1.25l1.06.57c.4.21.9,0,1.13-.48l.94-1.97c.93.34,1.91.53,2.93.55v2.14c0,.51.36.88.79.82l1.16-.15c.43-.06.78-.51.78-1.01v-2.11c.99-.26,1.92-.66,2.8-1.19l.87,1.69c.21.4.67.49,1.02.21-5.34-6.28-9.88-7.86-13.29-7.95Z"/>
              <path class="cls-14" d="m10.7,52.19c-1.91.78-3.4,1.87-4.44,3.25-1.05,1.39-1.58,2.96-1.58,4.7,0,3.35,1.96,5.91,5.79,7.62,1.38.62,3.24,1.2,5.56,1.76,2.28.55,3.84,1.11,4.69,1.68.85.57,1.28,1.44,1.28,2.63,0,1.09-.42,1.97-1.28,2.67-.86.69-2.06,1.12-3.62,1.28-4.27.43-6.45-1.1-6.45-4.59l-7.05.59c0,2.09.58,3.87,1.73,5.34,1.14,1.46,2.78,2.51,4.91,3.17,2.1.65,4.39.82,6.86.53,3.49-.41,6.22-1.48,8.2-3.19,1.96-1.69,2.93-3.81,2.93-6.39,0-2.32-.79-4.2-2.39-5.65-1.62-1.47-4.24-2.64-7.91-3.51-2.03-.49-3.59-1.05-4.66-1.69-1.08-.64-1.62-1.47-1.62-2.5,0-1.1.46-2,1.38-2.7.24-.18.51-.34.8-.48-.96-1.03-1.84-2.54-2.37-4.81-.26.09-.53.19-.78.29Z"/>
              <path class="cls-20" d="m21.92,59.23c.07.35.11.72.11,1.12l6.22-.26c0-.32-.02-.63-.04-.94-2.16-.2-4.28,0-6.29.08Z"/>
              <path class="cls-14" d="m34.48,61.39c-.72-.5-1.44-.9-2.16-1.22v20.44l18-2.1v-4.55l-12.21,1.21v-7.7l1.05-.07c-1.18-1.74-1.74-3.95-4.68-6.02Z"/>
            </g>
          </g>
          <g>
            <path class="cls-16" d="m77.77,42.24l.29-.63c.11-.24.04-.52-.14-.63l-.74-.46c.2-.57.34-1.17.41-1.79l.83-.06c.21-.01.39-.24.39-.5v-.69c0-.26-.17-.46-.39-.45l-.81.05c-.06-.63-.18-1.22-.37-1.78l.68-.5s.04-.03.06-.05l.09.23,1.12-1.38-1.46-.12c-.06-.08-.15-.13-.24-.14-.08,0-.17.01-.24.07l-.67.49c-.31-.5-.69-.95-1.11-1.33l.05-.11,1.03.21.13-1.7-1.56-.26c-.18-.07-.38.02-.48.22l-.39.8c-.5-.25-.09-.51-.65-.58l.59-.87c0-.27-1.74-.45-1.97-.45h-.63c-.24,0-.43.22-.43.5v.93c-.59.09-1.15.28-1.68.55l1.07-.79s-1.89-.36-2.1-.22l-.57.38c-.22.14-.29.46-.17.7l.43.84c-.48.42-.68.67-1.04,1.23l-1.01-.23c-.22-.14-.51-.04-.64.21l-.35.67c-.13.25-.05.57.17.71l.81.49c-.23.63-.38,1.29-.44,1.99l-.98.06c-.26.02-.48.26-.48.55v.77c0,.26.18.47.4.49h0s1.11.18,1.11.18c.09.58.25,1.12.45,1.63l-.88.64c-.23.16-.3.49-.17.73l.35.63c.13.24,2.19.38,2.19.38l-.65-.92c.36.48.77.9,1.23,1.24l-.52,1.06c-.13.26-.05.56.17.68l.57.31s.07.03.11.04h0s1.79.23,1.79.23l.18-1.35c.21.03.42.05.64.06v1.16c0,.21.11.37.26.43v.03s1.77.22,1.77.22l.04-2.19c.33-.12.64-.28.94-.46l.47.92c.06.11.15.18.26.2h0s1.72.23,1.72.23l-.59-1.62-.24.07-.39-.77c.41-.41.78-.87,1.09-1.39l.77.46c.19.11.43.01.54-.23Zm-5.88-.59c-1.68.15-3.07-1.33-3.07-3.3s1.39-3.62,3.07-3.68c1.64-.06,2.94,1.42,2.94,3.31s-1.3,3.53-2.94,3.68Zm7.18-3.79l1.16-.55-1.16-.14v.69Zm-1.43,4.7l1.33.18.19-.45-1.1-.67-.42.94Z"/>
            <path class="cls-28" d="m80.12,37.29l-.8.05c-.06-.63-.18-1.22-.37-1.78l.68-.5c.18-.14.25-.43.14-.65l-.28-.59c-.11-.22-.35-.29-.53-.16l-.67.49c-.31-.5-.68-.95-1.1-1.33l.38-.81c.11-.23.04-.52-.15-.65l-.51-.35c-.19-.13-.44-.05-.55.18l-.39.8c-.5-.25-1.03-.42-1.6-.49v-.92c0-.27-.19-.49-.42-.49h-.62c-.24,0-.43.22-.43.5v.93c-.58.09-1.15.28-1.67.55l-.42-.82c-.12-.24-.39-.32-.61-.18l-.57.38c-.22.14-.29.46-.17.7l.43.84c-.47.42-.9.92-1.25,1.48l-.78-.48c-.22-.14-.51-.04-.64.21l-.34.67c-.13.25-.05.57.17.7l.81.49c-.22.63-.38,1.29-.44,1.98l-.97.06c-.26.02-.47.26-.47.55v.77c0,.29.21.51.47.49l1-.07c.08.67.25,1.3.49,1.88l-.88.64c-.22.16-.3.49-.17.73l.34.63c.13.24.41.29.64.13l.89-.66c.36.48.77.89,1.23,1.23l-.51,1.06c-.12.26-.05.56.17.68l.57.31c.21.11.49,0,.61-.26l.51-1.06c.5.18,1.03.28,1.58.3v1.15c0,.27.19.47.43.44l.62-.08c.23-.03.42-.27.42-.55v-1.14c.53-.14,1.04-.36,1.51-.64l.47.91c.11.22.36.27.55.11l.51-.42c.19-.16.26-.46.15-.67l-.46-.9c.41-.41.77-.87,1.08-1.38l.76.46c.19.11.43.01.53-.23l.28-.63c.11-.24.04-.52-.14-.63l-.74-.45c.2-.57.34-1.17.41-1.79l.82-.06c.21-.01.38-.24.38-.5v-.69c0-.26-.17-.46-.38-.45Zm-6.49,4.6c-1.67.15-3.06-1.32-3.06-3.29s1.39-3.61,3.06-3.67c1.63-.06,2.92,1.42,2.92,3.3s-1.29,3.52-2.92,3.67Z"/>
          </g>
          <g>
            <g>
              <path class="cls-4" d="m17.35,8.79v19.06c0,.63.49,1.14,1.09,1.12l34.24-.74c.51-.01.91-.49.91-1.06V9.8l-36.25-1Z"/>
              <path class="cls-27" d="m52.68,7.56l-34.24-1.15c-.6-.02-1.09.48-1.09,1.11v1.95l36.25.94v-1.78c0-.58-.41-1.06-.91-1.08Z"/>
              <path class="cls-3" d="m19.85,7.98c0,.28-.22.5-.48.49-.27,0-.48-.24-.48-.52s.22-.5.48-.49c.27,0,.48.24.48.52Z"/>
            </g>
            <g>
              <polygon class="cls-3" points="24.83 26.38 22.11 26.42 22.11 12.28 24.83 12.33 24.83 26.38"/>
              <polygon class="cls-39" points="24.83 26.38 22.11 26.42 22.11 19.71 24.83 19.71 24.83 26.38"/>
              <polygon class="cls-3" points="28.56 26.32 25.89 26.36 25.89 12.36 28.56 12.41 28.56 26.32"/>
              <polygon class="cls-32" points="28.56 26.32 25.89 26.36 25.89 23.04 28.56 23.02 28.56 26.32"/>
              <polygon class="cls-3" points="32.22 26.26 29.6 26.31 29.6 12.43 32.22 12.48 32.22 26.26"/>
              <polygon class="cls-22" points="32.22 26.26 29.6 26.31 29.6 24.58 32.22 24.55 32.22 26.26"/>
              <polygon class="cls-3" points="35.81 26.21 33.24 26.25 33.24 12.5 35.81 12.55 35.81 26.21"/>
              <polygon class="cls-21" points="35.81 26.21 33.24 26.25 33.24 15.48 35.81 15.51 35.81 26.21"/>
              <polygon class="cls-3" points="39.34 26.15 36.81 26.19 36.81 12.57 39.34 12.62 39.34 26.15"/>
              <polygon class="cls-40" points="39.34 26.15 36.81 26.19 36.81 16.73 39.34 16.75 39.34 26.15"/>
              <polygon class="cls-3" points="42.8 26.1 40.32 26.14 40.32 12.64 42.8 12.68 42.8 26.1"/>
              <polygon class="cls-41" points="42.8 26.1 40.32 26.14 40.32 14.6 42.8 14.63 42.8 26.1"/>
              <polygon class="cls-3" points="46.21 26.05 43.77 26.09 43.77 12.7 46.21 12.75 46.21 26.05"/>
              <polygon class="cls-10" points="46.21 26.05 43.77 26.09 43.77 17.86 46.21 17.88 46.21 26.05"/>
              <polygon class="cls-3" points="49.55 26 47.15 26.03 47.15 12.77 49.55 12.81 49.55 26"/>
              <polygon class="cls-7" points="49.55 26 47.15 26.03 47.15 21.43 49.55 21.42 49.55 26"/>
            </g>
          </g>
          <g>
            <path class="cls-23" d="m48.29,49.47c.29.3.41.62.31.8-.07.13-.24.16-.42.2-.28.05-.58.04-1.19-.13-.57-.16-.9-.25-.9-.39,0-.13.29-.23.55-.31.36-.12.68-.16.9-.17h.75Z"/>
            <path class="cls-5" d="m39.48,44.65c.13.06.3.16.35.33.07.26-.21.54-.66.96-.34.32-.8.75-.95.64-.1-.07-.04-.31.01-.53.06-.27.21-.68.56-1.14l.69-.26Z"/>
            <path class="cls-8" d="m47.64,48.82l.63.7c.07.07.03.19-.06.21-.14.04-.33.07-.51.02-.04-.01-.07-.03-.1-.06l-.63-.62.67-.26Z"/>
            <path class="cls-37" d="m39.13,44.22l.34.49c.05.07.03.17-.05.21-.05.03-.11.06-.17.08-.1.04-.21,0-.28-.07l-.37-.42.53-.29Z"/>
            <path class="cls-11" d="m45.27,33.9c-.33.68-.72,1.66-.96,2.89-.1.52-.57,3.11.44,6.24.94,2.91,2.66,4.77,3.58,5.63-.13.11-.31.24-.54.35-.37.17-.71.22-.93.22-2.8-2-4.16-4.27-4.78-5.5-2.08-4.16-1.56-8.24-.65-9.97.3-.57.64-.87,1.02-1.01,1.23-.44,2.65.97,2.82,1.15Z"/>
            <path class="cls-12" d="m41.43,33.76c.3-.57.64-.87,1.02-1.01,1.23-.44,2.65.97,2.82,1.15-.32.67-.71,1.63-.94,2.84-.86.2-2.05.68-2.64,1.81-.94,1.83.41,4.02.69,4.47.62,1,.99.91,1.91,2.34.69,1.09.74,1.56,1.35,2.08.71.62,1.59.8,2.3.84.14.14.27.27.39.38-.13.11-.31.24-.54.35-.37.17-.71.22-.93.22-2.8-2-4.16-4.27-4.78-5.5-2.08-4.16-1.56-8.24-.65-9.97Z"/>
            <path class="cls-25" d="m43.69,33.75c-.15.31-.41.76-.85,1.22-1.1,1.15-2.13,1.04-3.29,1.98-.14.12-1.18.97-1.56,2.22-.73,2.4,1.4,4.77,1.63,5.03-.14.13-.34.29-.63.43-.26.13-.5.19-.67.22-3.06-2.79-4.55-6.18-3.53-8.38.55-1.2,1.87-2.07,2.84-2.72,1.59-1.05,3.1-1.53,4.09-1.76.66.59,1.31,1.18,1.97,1.76Z"/>
            <path class="cls-33" d="m41.87,27.37c-.05,1.35.27,2.05-.17,3.15-.32.79-.84,1.34-1.23,1.68.23.43.75,1.3,1.78,1.97,1.24.82,2.47.87,2.96.87,1.03-.53,2.58-1.52,3.83-3.29.85-1.2,1.78-2.52,1.53-4.2-.31-2.13-2.29-3.27-2.85-3.6-.37-.21-2.92-1.68-4.48-.6-1.25.87-1.33,3.01-1.36,4.02Z"/>
            <path class="cls-36" d="m33.35,28.91c-.04-.22-.2-.38-.29-.47-.1-.1-.12-.09-.19-.17-.17-.22-.13-.44-.19-.44-.06,0-.16.15-.15.32,0,.19.14.24.12.34-.04.14-.36.25-.64.2-.33-.06-.49-.33-.62-.26-.09.05-.09.22-.09.24.01.33.45.67.88.72.25.03.34-.06.63.01.19.05.26.12.36.08.16-.07.22-.34.18-.55Z"/>
            <path class="cls-30" d="m33.3,28.79c2.63.18,4.2-.5,5.15-1.16,2.15-1.49,2.57-3.85,5.06-4.49.45-.12,1.25-.32,1.68.09.9.84-.16,3.92-2.03,5.82-.41.42-1.9,1.88-4.34,2.21-3.14.42-5.39-1.35-5.78-1.66-.12-.14-.16-.33-.1-.5.09-.24.33-.3.35-.31Z"/>
            <path class="cls-15" d="m46.32,32.93c.74-.7.39-1.14,1.3-2.55.93-1.44,1.6-1.46,2.03-2.43.22-.5.36-1.22.11-2.25.38.51.68,1.12.79,1.85.25,1.68-.68,3-1.53,4.2-1.25,1.77-2.8,2.77-3.83,3.29-.48,0-1.72-.05-2.96-.87-.46-.3-.82-.64-1.1-.97.38.21.82.39,1.33.5.25.05,2.49.51,3.85-.78Z"/>
            <path class="cls-42" d="m47,22.49l.21.72c.07.23.21.44.4.59l.57.45s-1.74-.29-2.56-1.1l.51-.16c.05-.02.09-.07.09-.12v-.53l.79.16Z"/>
            <g>
              <path class="cls-35" d="m46.38,22.86c-.08-.02-.68.08-.85-.21-.23-.39,0-1.02.02-1.11.1-.4.13-.47.21-.55l.11-.11s0,0,.01,0c.07-.05.35-.13.41-.14.19,0,.58.67.8,1.72.02.04.04.08.05.11.05.1-.75.33-.76.3Z"/>
              <path class="cls-1" d="m45.41,20.68c.09.32.33.62.42.66.01,0,.08.03.15.1,0,0,.02.02.03.03.12.18-.13.51-.05.58.06.05.26-.09.3-.04.04.05-.11.21-.07.26.03.04.13-.03.22.02.04.03.04.06.11.16.04.06.09.12.12.15.16.16.49.14.53.05.01-.03,0-.04,0-.11,0,0,0-.07.02-.16.04-.13.17-.24.3-.4.24-.29.27-.49.28-.56,0-.02,0-.04,0-.05.01-.26-.08-.6-.24-.79-.27-.31-.63-.03-1.05-.3-.49-.31-.41-.93-.63-.93-.24,0-.59.74-.43,1.33Z"/>
              <path class="cls-9" d="m46.06,21.94c.05-.13.21-.06.25.08.04.14-.06.32-.2.33-.14,0-.12-.23-.06-.4Z"/>
            </g>
          </g>
        </g>
      </g>
    </g>
  </g>
</svg>