<?xml version="1.0" encoding="UTF-8"?>
<svg xmlns="http://www.w3.org/2000/svg" xmlns:xlink="http://www.w3.org/1999/xlink" viewBox="0 0 86.86 83.42">
  <defs>
    <style>
      .cls-1 {
        fill: #26264f;
      }

      .cls-2 {
        fill: url(#linear-gradient-37);
      }

      .cls-2, .cls-3, .cls-4, .cls-5, .cls-6, .cls-7 {
        mix-blend-mode: multiply;
        opacity: .3;
      }

      .cls-8 {
        fill: url(#linear-gradient-2);
      }

      .cls-9 {
        fill: #fff;
      }

      .cls-10 {
        fill: url(#linear-gradient-17);
      }

      .cls-11 {
        fill: #37b34a;
      }

      .cls-12 {
        fill: url(#linear-gradient-43);
      }

      .cls-3 {
        fill: url(#linear-gradient-9);
      }

      .cls-13 {
        fill: url(#linear-gradient-15);
      }

      .cls-14 {
        fill: url(#linear-gradient-40);
      }

      .cls-15 {
        fill: url(#linear-gradient-28);
      }

      .cls-16 {
        fill: url(#linear-gradient-14);
      }

      .cls-17 {
        fill: url(#linear-gradient-36);
      }

      .cls-18 {
        fill: url(#linear-gradient-6);
      }

      .cls-4 {
        fill: url(#linear-gradient-20);
      }

      .cls-5 {
        fill: url(#linear-gradient-29);
      }

      .cls-6 {
        fill: url(#linear-gradient-35);
      }

      .cls-19 {
        fill: url(#linear-gradient-32);
      }

      .cls-20 {
        fill: url(#linear-gradient-11);
      }

      .cls-21 {
        mix-blend-mode: soft-light;
        opacity: .8;
      }

      .cls-21, .cls-22 {
        fill: none;
      }

      .cls-23 {
        fill: url(#linear-gradient-39);
      }

      .cls-24 {
        fill: url(#linear-gradient-10);
      }

      .cls-25 {
        fill: url(#linear-gradient-16);
      }

      .cls-26 {
        fill: url(#linear-gradient-31);
      }

      .cls-7 {
        fill: url(#linear-gradient-18);
      }

      .cls-27 {
        fill: url(#linear-gradient-41);
      }

      .cls-22 {
        isolation: isolate;
      }

      .cls-28 {
        fill: url(#linear-gradient-21);
      }

      .cls-29 {
        fill: url(#linear-gradient-25);
      }

      .cls-30 {
        fill: url(#linear-gradient-5);
      }

      .cls-31 {
        fill: url(#linear-gradient-34);
      }

      .cls-32 {
        fill: url(#linear-gradient-7);
      }

      .cls-33 {
        fill: url(#linear-gradient-24);
      }

      .cls-34 {
        fill: #f4f7fa;
      }

      .cls-35 {
        fill: url(#linear-gradient-22);
      }

      .cls-36 {
        fill: url(#linear-gradient-42);
      }

      .cls-37 {
        fill: url(#linear-gradient-3);
      }

      .cls-38 {
        fill: url(#linear-gradient);
      }

      .cls-39 {
        fill: url(#linear-gradient-27);
      }

      .cls-40 {
        fill: url(#linear-gradient-33);
      }

      .cls-41 {
        fill: url(#linear-gradient-38);
      }

      .cls-42 {
        fill: url(#linear-gradient-30);
      }

      .cls-43 {
        fill: url(#linear-gradient-23);
      }

      .cls-44 {
        fill: url(#linear-gradient-19);
      }

      .cls-45 {
        fill: url(#linear-gradient-4);
      }

      .cls-46 {
        fill: url(#linear-gradient-8);
      }

      .cls-47 {
        fill: url(#linear-gradient-12);
      }

      .cls-48 {
        fill: url(#linear-gradient-13);
      }

      .cls-49 {
        fill: url(#linear-gradient-26);
      }
    </style>
    <linearGradient id="linear-gradient" x1="27.73" y1="18.52" x2="43.35" y2="100.6" gradientUnits="userSpaceOnUse">
      <stop offset="0" stop-color="#ffc444"/>
      <stop offset="1" stop-color="#f36f56"/>
    </linearGradient>
    <linearGradient id="linear-gradient-2" x1="28.54" y1="46.82" x2="36.73" y2="89.83" gradientUnits="userSpaceOnUse">
      <stop offset="0" stop-color="#aa80f9"/>
      <stop offset="1" stop-color="#6165d7"/>
    </linearGradient>
    <linearGradient id="linear-gradient-3" x1="1.99" y1="50.66" x2="17.43" y2="50.66" gradientUnits="userSpaceOnUse">
      <stop offset="0" stop-color="#26264f"/>
      <stop offset="1" stop-color="#444b8c"/>
    </linearGradient>
    <linearGradient id="linear-gradient-4" x1="-436.26" y1="30.05" x2="-435.74" y2="36.65" gradientTransform="translate(-411.62 1.78) rotate(-177.8) scale(1 -1)" xlink:href="#linear-gradient-3"/>
    <linearGradient id="linear-gradient-5" x1="-210.41" y1="49.82" x2="-210.51" y2="43" gradientTransform="translate(-188.2) rotate(-180) scale(1 -1)" gradientUnits="userSpaceOnUse">
      <stop offset="0" stop-color="#893976"/>
      <stop offset="1" stop-color="#311944"/>
    </linearGradient>
    <linearGradient id="linear-gradient-6" x1="-202.62" y1="49.51" x2="-202.1" y2="56.13" gradientTransform="translate(-188.2) rotate(-180) scale(1 -1)" xlink:href="#linear-gradient-3"/>
    <linearGradient id="linear-gradient-7" x1="-202.44" y1="49.65" x2="-202.54" y2="42.84" xlink:href="#linear-gradient-5"/>
    <linearGradient id="linear-gradient-8" x1="-838.17" y1="38.74" x2="-833.66" y2="38.74" gradientTransform="translate(-814.46) rotate(-180) scale(1 -1)" gradientUnits="userSpaceOnUse">
      <stop offset="0" stop-color="#ab316d"/>
      <stop offset="1" stop-color="#792d3d"/>
    </linearGradient>
    <linearGradient id="linear-gradient-9" x1="-837.86" y1="38.74" x2="-833.66" y2="38.74" xlink:href="#linear-gradient-8"/>
    <linearGradient id="linear-gradient-10" x1="-836.92" y1="38.24" x2="-827.85" y2="38.24" xlink:href="#linear-gradient-8"/>
    <linearGradient id="linear-gradient-11" x1="18.21" y1="18.06" x2="31.61" y2="8.07" xlink:href="#linear-gradient-3"/>
    <linearGradient id="linear-gradient-12" x1="-2292.94" y1="-1196.17" x2="-2291.33" y2="-1196.17" gradientTransform="translate(-2544.83 111.63) rotate(-154.51) scale(1 -1)" xlink:href="#linear-gradient-5"/>
    <linearGradient id="linear-gradient-13" x1="-2285.15" y1="-1188.83" x2="-2277.97" y2="-1163.07" gradientTransform="translate(-2544.83 111.63) rotate(-154.51) scale(1 -1)" gradientUnits="userSpaceOnUse">
      <stop offset="0" stop-color="#ff9085"/>
      <stop offset="1" stop-color="#fb6fbb"/>
    </linearGradient>
    <linearGradient id="linear-gradient-14" x1="-835.94" y1="17.91" x2="-828.75" y2="43.66" gradientTransform="translate(-814.46) rotate(-180) scale(1 -1)" xlink:href="#linear-gradient-13"/>
    <linearGradient id="linear-gradient-15" x1="-840.12" y1="22.97" x2="-842.94" y2="27.65" gradientTransform="translate(-814.46) rotate(-180) scale(1 -1)" gradientUnits="userSpaceOnUse">
      <stop offset="0" stop-color="#6165d7"/>
      <stop offset="1" stop-color="#aa80f9"/>
    </linearGradient>
    <linearGradient id="linear-gradient-16" x1="-838.2" y1="22.8" x2="-845.19" y2="26.53" gradientTransform="translate(-814.46) rotate(-180) scale(1 -1)" xlink:href="#linear-gradient-3"/>
    <linearGradient id="linear-gradient-17" x1="-841.38" y1="18.07" x2="-842.21" y2="20.78" gradientTransform="translate(-814.46) rotate(-180) scale(1 -1)" xlink:href="#linear-gradient-2"/>
    <linearGradient id="linear-gradient-18" x1="-838.47" y1="22.36" x2="-845.43" y2="26.06" gradientTransform="translate(-814.46) rotate(-180) scale(1 -1)" xlink:href="#linear-gradient-3"/>
    <linearGradient id="linear-gradient-19" x1="-839.36" y1="25.24" x2="-836.82" y2="25.24" gradientTransform="translate(-814.46) rotate(-180) scale(1 -1)" xlink:href="#linear-gradient-5"/>
    <linearGradient id="linear-gradient-20" x1="9.53" y1="25.22" x2="26.06" y2="25.22" gradientTransform="matrix(1,0,0,1,0,0)" xlink:href="#linear-gradient-13"/>
    <linearGradient id="linear-gradient-21" x1="-835.17" y1="17.69" x2="-827.98" y2="43.45" gradientTransform="translate(-814.46) rotate(-180) scale(1 -1)" xlink:href="#linear-gradient-13"/>
    <linearGradient id="linear-gradient-22" x1="-571.74" y1="-25.36" x2="-568.48" y2="-30.09" gradientTransform="translate(-540.12 -76.33) rotate(-168.15) scale(1 -1)" xlink:href="#linear-gradient-5"/>
    <linearGradient id="linear-gradient-23" x1="-572.11" y1="-27.68" x2="-566.35" y2="-31.15" gradientTransform="translate(-540.12 -76.33) rotate(-168.15) scale(1 -1)" xlink:href="#linear-gradient-5"/>
    <linearGradient id="linear-gradient-24" x1="856.34" y1="81.68" x2="856.9" y2="88.89" gradientTransform="translate(-790.33 -1.41) rotate(-.14)" gradientUnits="userSpaceOnUse">
      <stop offset="0" stop-color="#311944"/>
      <stop offset="1" stop-color="#a03976"/>
    </linearGradient>
    <linearGradient id="linear-gradient-25" x1="857.8" y1="85.7" x2="857.7" y2="78.23" gradientTransform="translate(-790.33 -1.41) rotate(-.14)" xlink:href="#linear-gradient"/>
    <linearGradient id="linear-gradient-26" x1="867.04" y1="80.84" x2="867.61" y2="88.05" xlink:href="#linear-gradient-24"/>
    <linearGradient id="linear-gradient-27" x1="867.61" y1="85.56" x2="867.51" y2="78.1" gradientTransform="translate(-790.33 -1.41) rotate(-.14)" xlink:href="#linear-gradient"/>
    <linearGradient id="linear-gradient-28" x1="856.02" y1="73.6" x2="861.54" y2="73.6" gradientTransform="translate(-790.33 -1.41) rotate(-.14)" gradientUnits="userSpaceOnUse">
      <stop offset="0" stop-color="#444b8c"/>
      <stop offset="1" stop-color="#3e4177"/>
    </linearGradient>
    <linearGradient id="linear-gradient-29" x1="856.02" y1="73.6" x2="861.54" y2="73.6" xlink:href="#linear-gradient-28"/>
    <linearGradient id="linear-gradient-30" x1="857.55" y1="73.06" x2="868.66" y2="73.06" xlink:href="#linear-gradient-28"/>
    <linearGradient id="linear-gradient-31" x1="76.65" y1="44.46" x2="64.12" y2="65.02" xlink:href="#linear-gradient-2"/>
    <linearGradient id="linear-gradient-32" x1="71.57" y1="45.15" x2="76.18" y2="45.15" xlink:href="#linear-gradient"/>
    <linearGradient id="linear-gradient-33" x1="897.79" y1="-47.46" x2="898.06" y2="-38.12" gradientTransform="translate(-810.92 -118.98) rotate(13.1)" gradientUnits="userSpaceOnUse">
      <stop offset="0" stop-color="#444b8c"/>
      <stop offset="1" stop-color="#26264f"/>
    </linearGradient>
    <linearGradient id="linear-gradient-34" x1="898.02" y1="-42.62" x2="897.8" y2="-31.26" gradientTransform="translate(-810.92 -118.98) rotate(13.1)" xlink:href="#linear-gradient"/>
    <linearGradient id="linear-gradient-35" x1="59.53" y1="55.08" x2="68.47" y2="55.08" xlink:href="#linear-gradient-2"/>
    <linearGradient id="linear-gradient-36" x1="83.42" y1="48.58" x2="70.9" y2="69.15" xlink:href="#linear-gradient-2"/>
    <linearGradient id="linear-gradient-37" x1="65.21" y1="57.91" x2="83.56" y2="57.91" xlink:href="#linear-gradient-2"/>
    <linearGradient id="linear-gradient-38" x1="480.12" y1="907.99" x2="486.26" y2="911.86" gradientTransform="translate(-953.54 163.91) rotate(-67.91)" xlink:href="#linear-gradient-8"/>
    <linearGradient id="linear-gradient-39" x1="484.88" y1="908.39" x2="480.66" y2="909" gradientTransform="translate(-953.54 163.91) rotate(-67.91)" xlink:href="#linear-gradient-8"/>
    <linearGradient id="linear-gradient-40" x1="482.17" y1="883.12" x2="480.09" y2="903.89" gradientTransform="translate(-953.54 163.91) rotate(-67.91)" xlink:href="#linear-gradient"/>
    <linearGradient id="linear-gradient-41" x1="481.48" y1="881.3" x2="481.31" y2="888.78" gradientTransform="translate(-953.54 163.91) rotate(-67.91)" xlink:href="#linear-gradient-8"/>
    <linearGradient id="linear-gradient-42" x1="4042.86" y1="-1290.58" x2="4044.87" y2="-1290.58" gradientTransform="translate(-3323.24 -2506.27) rotate(54.85)" xlink:href="#linear-gradient"/>
    <linearGradient id="linear-gradient-43" x1="76.9" y1="61.91" x2="79.07" y2="61.91" xlink:href="#linear-gradient"/>
  </defs>
  <g class="cls-22">
    <g id="Layer_2" data-name="Layer 2">
      <g id="Layer_1-2" data-name="Layer 1">
        <g>
          <path class="cls-34" d="m36.25,82.15C14.7,78.88-2.81,58.51.37,35.87,3.09,16.56,20.02,1.53,40.32.11c1.47-.1,2.96-.13,4.46-.09,11.33.33,21.39,4.86,28.83,11.71,7.41,6.82,12.22,15.95,13.1,25.52,2.33,25.47-23.66,48.95-50.46,44.89Z"/>
          <g>
            <g>
              <path class="cls-38" d="m41.75,75.03c3.17-.79,5.99-3.91,6.41-7.1.76-5.81-5.65-6.63-7.73-10.96-1.69-3.52-.76-7.76-2.59-11.24-1.61-3.06-5.17-5.17-8.65-4.76-3.01.35-5.78,2.77-6.5,5.76-.54,2.23-.21,5.46.81,7.54.83,1.7,1.93,3.23,3.44,4.39,1.23.94,2.78,1.56,3.71,2.83,1.78,2.42,1.24,5.95,2.14,8.65.63,1.89,2.29,3.75,4.13,4.52,1.6.67,3.27.76,4.84.37Z"/>
              <g class="cls-21">
                <path class="cls-9" d="m41.84,74.1s-.09-.03-.1-.08c0-.04-.96-3.88-2.89-8.88-1.77-4.61-4.75-11.17-8.89-16.25-.04-.04-.03-.11.01-.15.04-.04.11-.03.15.01,4.15,5.1,7.15,11.68,8.92,16.31,1.93,5.01,2.88,8.87,2.89,8.9.01.06-.02.11-.08.12,0,0-.02,0-.02,0Z"/>
              </g>
            </g>
            <g>
              <path class="cls-8" d="m36.22,62.21c-6.38-5.68-11.74-3.15-12.43-.31-.69,2.81-.54,17.44,17.78,13.45.33-.07.56-.36.55-.7-.03-1.83-.58-7.71-5.89-12.44Z"/>
              <g class="cls-21">
                <path class="cls-9" d="m41.55,74.77s-.07-.02-.09-.05c0-.02-.93-1.64-3.01-3.76-1.92-1.96-5.27-4.76-10.25-6.98-.05-.02-.08-.08-.05-.14.02-.05.08-.08.14-.05,5.02,2.24,8.38,5.06,10.32,7.03,2.1,2.14,3.03,3.78,3.04,3.8.03.05.01.11-.04.14-.02,0-.03.01-.05.01Z"/>
                <path class="cls-9" d="m36.09,68.78s-.02,0-.03,0c-.05-.02-.09-.07-.07-.13,0-.03.92-3.3-1.95-5.43-.05-.03-.06-.1-.02-.14.03-.05.1-.06.14-.02,1.56,1.16,2.03,2.64,2.14,3.67.13,1.12-.11,1.95-.12,1.99-.01.05-.05.07-.1.07Z"/>
                <path class="cls-9" d="m30.61,68.11c-.69,0-1.5-.15-2.42-.6-.05-.02-.07-.09-.05-.14s.09-.07.14-.05c3.25,1.57,5.17-.57,5.19-.6.04-.04.1-.05.15-.01.04.04.05.1.01.15-.02.02-.52.58-1.44.95-.41.16-.94.3-1.58.3Z"/>
                <path class="cls-9" d="m35.98,72.79c-.69,0-1.5-.15-2.42-.6-.05-.02-.07-.09-.05-.14.02-.05.09-.07.14-.05,3.25,1.57,5.17-.57,5.19-.6.04-.04.1-.05.15-.01.04.04.05.1.01.15-.02.02-.52.58-1.44.95-.41.16-.94.3-1.58.3Z"/>
              </g>
            </g>
          </g>
          <g>
            <path class="cls-9" d="m82.36,4.35c0-1.83-1.52-3.28-3.38-3.22l-2.39.07s-.01,0-.02,0l-5.1.15-33.11.95h0s-2.22.07-2.22.07c-1.69.05-3.09,1.51-3.09,3.27v69.08c0,.77.29,1.49.72,2.07.56.74,1.42,1.25,2.37,1.31l40.41,2.68c.23.02.46,0,.68-.02h.02c1.87.08,5.2-1.42,5.2-4.13l-.1-72.27Z"/>
            <path class="cls-11" d="m37.47,8.72l37.54-.78c1.37-.03,2.45,1.05,2.45,2.41v64.02c0,1.36-1.06,2.4-2.43,2.31l-37.58-2.31c-1.25-.08-2.26-1.19-2.26-2.48V11.11c0-1.29,1.04-2.36,2.29-2.39Z"/>
            <g>
              <path class="cls-11" d="m77.4,80.92s-.09,0-.14,0l-38.9-2.6.02-.33,38.89,2.6c1.09.04,2.79-.48,3.93-1.57.72-.69,1.1-1.52,1.1-2.4l-.1-72.27c0-.83-.33-1.61-.92-2.18-.61-.59-1.42-.9-2.29-.88l-40.61,1.17v-.33s40.6-1.17,40.6-1.17c.96-.03,1.85.32,2.53.97.66.64,1.02,1.5,1.02,2.42l.1,72.27c0,.97-.42,1.88-1.2,2.64-1.15,1.11-2.87,1.66-4.03,1.66Z"/>
              <g>
                <path class="cls-11" d="m76.83,80.97h0c-.08,0-.16-.02-.24-.02l-40.42-2.68c-.96-.06-1.87-.57-2.48-1.38-.47-.62-.72-1.37-.72-2.17V5.63c0-1.84,1.46-3.38,3.24-3.43l40.41-1.17c1.98-.06,3.62,1.51,3.62,3.44v73.17c0,.9-.36,1.76-1,2.38-.63.61-1.49.97-2.39.97Zm-.11-79.62s-.07,0-.1,0l-40.42,1.17c-1.6.05-2.93,1.44-2.93,3.1v69.08c0,.73.24,1.41.66,1.97.55.74,1.38,1.19,2.24,1.25l40.43,2.7c.07,0,.15.03.22.03h0c.82,0,1.6-.32,2.17-.88.57-.56.91-1.33.91-2.15V4.46c0-1.71-1.44-3.11-3.18-3.11Z"/>
                <path class="cls-11" d="m75.21,76.85c-.05,0-.11,0-.17,0l-37.56-2.31c-1.32-.08-2.4-1.27-2.4-2.64V11.11c0-1.38,1.08-2.52,2.42-2.55l37.55-.78s.04,0,.06,0c1.44,0,2.57,1.13,2.57,2.58v64.02c0,1.39-1.09,2.48-2.47,2.48Zm-.1-68.75h-.05s-37.55.78-37.55.78c-1.15.02-2.1,1.02-2.1,2.22v60.79c0,1.2.94,2.24,2.09,2.31l37.57,2.31c1.27.08,2.29-.89,2.29-2.15V10.35c0-1.26-.99-2.25-2.25-2.25Z"/>
                <path class="cls-11" d="m55.84,6.38c-.65,0-1.19-.54-1.19-1.2s.54-1.24,1.21-1.25h.03c.65,0,1.19.54,1.19,1.2s-.54,1.24-1.21,1.25h-.03Zm.05-2.12h-.02c-.49.01-.88.43-.88.92s.38.87.85.87h.02c.49-.01.89-.43.89-.92s-.38-.87-.85-.87Z"/>
              </g>
            </g>
            <g>
              <g>
                <path class="cls-9" d="m73.22,34.29l-33.99-.66c-.12,0-.22-.1-.22-.22V12.55c0-.12.12-.22.23-.22h33.97c.13,0,.21.1.21.23v21.5c0,.13-.08.23-.2.22Zm-33.68-1.09l33.46.63V12.79s-33.46-.02-33.46-.02v20.42Z"/>
                <path class="cls-9" d="m73.31,34.23s-.08-.01-.12-.04L39.21,12.68c-.1-.06-.13-.2-.07-.3.06-.1.19-.14.29-.07l33.99,21.5c.11.07.14.21.07.31-.04.07-.12.11-.19.1Z"/>
                <path class="cls-9" d="m39.32,33.58c-.07,0-.14-.04-.18-.11-.06-.11-.03-.24.07-.3l33.98-20.86c.11-.07.25-.03.31.07.07.11.03.25-.07.31l-33.99,20.85s-.07.03-.11.03Z"/>
              </g>
              <g>
                <path class="cls-9" d="m54.59,63.69l-15.23-.7c-.12,0-.25-.11-.25-.23v-12.58c0-.12.12-.22.24-.21l15.23.52c.12,0,.26.11.26.23v12.76c0,.12-.12.22-.24.21Zm-14.94-1.13l14.76.67v-12.31s-14.76-.51-14.76-.51v12.14Z"/>
                <path class="cls-9" d="m54.51,63.58s-.1-.02-.14-.06l-15.11-13.22c-.09-.08-.11-.22-.03-.31.07-.09.21-.1.3-.02l15.11,13.22c.09.08.11.22.03.32-.04.05-.11.08-.17.07Z"/>
                <path class="cls-9" d="m39.4,62.88c-.06,0-.12-.03-.17-.09-.07-.1-.06-.24.03-.31l15.11-12.01c.09-.07.23-.06.31.04.08.1.06.24-.03.31l-15.11,12.01s-.09.05-.14.04Z"/>
              </g>
              <g>
                <path class="cls-9" d="m73.11,64.54l-15.55-.72c-.12,0-.18-.11-.18-.23v-12.79c0-.12.07-.22.19-.22l15.55.53c.13,0,.19.11.19.24v12.97c0,.13-.08.22-.21.22Zm-15.3-1.15l15.08.69v-12.51s-15.08-.52-15.08-.52v12.34Z"/>
                <path class="cls-9" d="m73.17,64.43c-.05,0-.1-.02-.14-.06l-15.61-13.45c-.09-.08-.11-.22-.03-.32.08-.09.22-.1.31-.02l15.62,13.45c.1.08.11.23.03.32-.04.05-.11.08-.18.08Z"/>
                <path class="cls-9" d="m57.56,63.72c-.06,0-.13-.03-.17-.09-.08-.1-.06-.24.03-.31l15.61-12.2c.1-.08.24-.06.32.04.08.1.06.24-.03.32l-15.62,12.2s-.09.05-.14.04Z"/>
              </g>
              <polygon class="cls-9" points="73.21 41.34 39.22 40.47 39.22 36.94 73.21 37.7 73.21 41.34"/>
              <polygon class="cls-9" points="73.21 48.16 39.22 47.09 39.22 43.56 73.21 44.52 73.21 48.16"/>
              <polygon class="cls-9" points="73.21 70.57 39.22 68.83 39.22 65.3 73.21 66.93 73.21 70.57"/>
            </g>
          </g>
          <g>
            <g>
              <path class="cls-1" d="m26.59,79.76c.08,0,.14-.06.14-.14v-28.61c0-.08-.06-.14-.14-.14s-.14.06-.14.14v28.61c0,.08.06.14.14.14Z"/>
              <path class="cls-1" d="m18.88,77.96c.08,0,.14-.06.14-.14v-27.54c0-.08-.06-.14-.14-.14s-.14.06-.14.14v27.54c0,.08.06.14.14.14Z"/>
              <path class="cls-1" d="m1.06,79.25c.06,0,.11-.03.13-.09l10.3-28.39c.03-.07-.01-.15-.08-.17-.07-.03-.15.01-.17.08L.93,79.06c-.03.07.01.15.08.17.02,0,.03,0,.05,0Z"/>
              <path class="cls-1" d="m8.67,81.47c.06,0,.11-.04.13-.1l9.25-29.94c.02-.07-.02-.15-.09-.17-.07-.02-.15.02-.17.09l-9.25,29.94c-.02.07.02.15.09.17.01,0,.03,0,.04,0Z"/>
              <polygon class="cls-1" points="18.97 50.26 26.7 50.83 26.7 51.01 17.86 51.4 11.26 50.59 11.26 50.42 18.97 50.26"/>
              <polygon class="cls-37" points="18.97 50.09 26.7 50.83 17.86 51.23 11.26 50.42 18.97 50.09"/>
              <path class="cls-1" d="m10.67,74.99c.06,0,.12-.04.13-.1.02-.07-.02-.15-.1-.17l-7.36-1.93c-.07-.02-.15.02-.17.1-.02.07.02.15.1.17l7.36,1.93s.02,0,.03,0Z"/>
              <path class="cls-1" d="m12.75,68.21c.06,0,.12-.05.13-.11.01-.07-.04-.14-.11-.16l-7.23-1.28c-.08-.01-.14.04-.16.11-.01.07.04.14.11.16l7.23,1.28s.02,0,.02,0Z"/>
              <path class="cls-1" d="m14.92,61.21s-.01,0-.02,0l-6.99-.9c-.07,0-.12-.07-.11-.14,0-.07.07-.12.14-.11l6.99.9c.07,0,.12.07.11.14,0,.06-.06.11-.13.11Z"/>
              <path class="cls-1" d="m16.31,56.36s-.01,0-.02,0l-6.58-1.03c-.07-.01-.12-.08-.11-.14.01-.07.08-.12.14-.11l6.58,1.03c.07.01.12.08.11.14,0,.06-.06.11-.12.11Z"/>
            </g>
            <g>
              <path class="cls-45" d="m22.39,49.44s1.82,1.02,1.85,1.17c.02.15-1.19-.1-1.7-.09-.5,0-.91-.18-.85-.41.05-.24.25-.82.25-.82l.45.16Z"/>
              <path class="cls-30" d="m22.58,48.67l-.11.94s-.29.12-.49-.02l-.08-1.03.69.11Z"/>
              <path class="cls-18" d="m13.85,48.65l-.22.39c-.06.11-.08.24-.05.36.08.32.23.95.29,1.12.09.22,1.29.36,1.29.36,0,0,.11-.17-.14-.37-.25-.2-.41-.24-.5-.54-.09-.3-.15-1.15-.15-1.15l-.53-.16Z"/>
              <path class="cls-32" d="m14.75,47.66c-.08.07-.47,1.38-.47,1.38,0,0-.13.18-.36-.09-.24-.26-.11-.12-.11-.12l.04-1.29.89.11Z"/>
              <path class="cls-46" d="m23.64,29.81c.1,2.79.1,5.83-.04,9.07-.16,3.65-.49,7.03-.9,10.09-.15,0-.31,0-.48,0-.11,0-.22,0-.33-.02-.21-.63-.46-1.47-.69-2.47-.24-1.05-.38-1.99-.48-2.89-.36-3.16.06-3.44-.23-5.79-.26-2.08-.62-2.16-1.05-5.11-.47-3.2-.12-3.68.05-3.85.72-.74,2.41-.24,4.15.96Z"/>
              <path class="cls-3" d="m19.49,28.85c.69-.7,2.25-.28,3.91.8-1.91,2.3-2.11,3.79-1.88,4.76.26,1.09,1.04,1.41,1.04,2.61,0,1.47-1.19,1.86-1.17,3.42.02,1.03.54,1.02.66,2.29.15,1.5-.54,2.02-.32,3.14.1.48.37,1.1,1.14,1.75-.06.46-.11.91-.17,1.35-.15,0-.31,0-.48,0-.11,0-.22,0-.33-.02-.21-.63-.46-1.47-.69-2.47-.24-1.05-.38-1.99-.48-2.89-.36-3.16.06-3.44-.23-5.79-.26-2.08-.62-2.16-1.05-5.11-.47-3.2-.12-3.68.05-3.85Z"/>
              <path class="cls-24" d="m22.46,29.76c-1.64,2.68-3.41,6.02-4.99,10.02-1.2,3.02-2.06,5.86-2.7,8.39-.09.04-.29.13-.55.1-.35-.05-.57-.31-.62-.38-.26-1.81-.23-3.35-.14-4.46.06-.71.16-1.89.56-3.35.45-1.63.76-1.73,1.36-3.45.61-1.79.46-2.24,1.05-4.49.24-.92.65-2.29,1.31-3.94,1.58.52,3.15,1.03,4.73,1.55Z"/>
              <path class="cls-20" d="m25.54,12.07c-.73-.48-1.6-.35-2.19.28-.63.68-.66,1.68-1.41,2.28-1,.8-2.3.65-3.18.54-2.12-.25-2.67-1.44-3.65-1.03-1.24.51-.93,2.61-2.18,3-.84.26-1.23-.6-2.41-.61-1.38-.02-2.66,1.14-3.26,2.35-1.1,2.22-.12,4.99,1.17,6.54,1.06,1.27,3.04,2.58,4.36,1.94,1.04-.5,1.11-1.96,2.08-2.01.69-.04.86.68,1.73.9,1.43.35,2.79-1.15,3.16-1.56,1.06-1.17.74-1.71,1.98-3.87.49-.85,1.19-2.08,2.41-3.29,1.37-1.36,2.08-1.38,2.35-2.41.24-.9.06-2.05-.58-2.74-.11-.12-.24-.23-.38-.32Z"/>
              <path class="cls-47" d="m37.99,18.38s.46-.25.77-.46c.31-.2,1.52-.62,1.52-.62,0,0,0,.16-.27.28-.27.12-.81.3-.8.48.01.19.19.43-.12.63-.31.2-.52-.14-.78.01-.26.15-.54.32-.54.32l.21-.65Z"/>
              <path class="cls-48" d="m38.01,18.08c.04.4.07.81.11,1.21-.5.54-1.25,1.26-2.28,1.91-.45.29-1.83,1.11-3.65,1.43-2.47.43-6.42.06-6.74-1.81-.28-1.67,1.76-3.81,2.26-4.18.98.48,1.79,1.36,2.86,1.98.35.2,1.27.72,2.52.87,2.31.26,4.24-.93,4.92-1.4Z"/>
              <path class="cls-16" d="m28.87,17.9c-.1.52-1.71.24-2.04,1.18-.18.5.2.82.22,1.68.02.96-.44,1.5-.79,2.26-.51,1.1-.52,2.19-.52,4.35,0,3.08.68,3.7.09,4.69-.76,1.29-2.57,1.38-3.07,1.4-1.68.08-1.88-.82-3.7-.92-2.08-.12-2.38,1.01-3.87.53-1.36-.44-1.82-1.61-2.88-1.37-.66.15-.84.69-1.46.63-.63-.06-1.28-.68-1.32-1.32-.05-.79.81-1.79,2.17-1.79.54.21,1.43.46,2.43.18,1.63-.45,2.48-2,3.42-3.72.65-1.19,1.85-3.38,1.86-6.25,0-1.18-.19-1.53.09-2.16.94-2.05,4.57-1.75,4.88-1.72,2.48.24,4.61,1.73,4.48,2.35Z"/>
              <g>
                <path class="cls-13" d="m29.68,20.48l-4.56.2c-.05,0-.09.04-.11.09l-2.15,6.67c-.03.1.07.33.16.32l4.51-.69s.09-.04.1-.09l2.24-6.23c.03-.09-.09-.29-.18-.28Z"/>
                <path class="cls-25" d="m29.75,20.65l-4.56.2c-.05,0-.09.04-.11.09l-2.15,6.67c-.03.1.04.19.13.18l4.54-.55s.09-.04.1-.09l2.17-6.32c.03-.09-.03-.19-.12-.19Z"/>
                <path class="cls-10" d="m28.5,20.9l.18-.53s-.02-.1-.06-.1h-1.66s-.05.02-.06.05l-.17.59s.02.1.06.1l1.65-.06s.05-.02.06-.05Z"/>
                <path class="cls-7" d="m25.69,26.18c.3-1.07-.19-1.78.31-2.61.7-1.18,2.22-.68,2.69-1.63.13-.26.19-.64.02-1.24l1.05-.05c.09,0,.15.09.12.19l-2.17,6.32s-.06.08-.1.09l-2.76.33c.49-.48.74-.96.86-1.4Z"/>
              </g>
              <path class="cls-44" d="m22.36,25.38s.69-.15.96-.34c.27-.19.55-.49.94-.47.39.02.79.24.61.29-.18.05-.52.45-.78.61-.26.16-.85.17-.96.16-.11,0-.54.28-.54.28l-.22-.54Z"/>
              <path class="cls-4" d="m26.03,30.73c-.31.33-2.85-1.54-3.38-1.32.31-1.09-1.45-1.89-1.38-3.52.06-1.36,1.32-1.89,1.06-2.77-.24-.82-1.38-.55-1.84-1.5-.48-.99.44-1.93.25-3.09-.08-.47-.36-1.01-1.07-1.55-.06.09-.11.18-.16.28-.29.63-.09.98-.09,2.16-.01,2.87-1.21,5.06-1.86,6.25-.94,1.72-1.79,3.27-3.42,3.72-.99.27-1.89.03-2.43-.18-1.36,0-2.22,1-2.17,1.79.04.64.69,1.26,1.32,1.32.62.06.8-.48,1.46-.63,1.06-.24,1.52.93,2.88,1.37,1.49.48,1.79-.65,3.87-.53,1.82.11,2.02,1,3.7.92.49-.02,2.31-.1,3.07-1.4.26-.44.27-.8.2-1.33Z"/>
              <path class="cls-28" d="m22.38,25.06c.21.42.42.84.64,1.27-.33.18-3.83,2.03-6.36.2-.31-.23-1.15-.83-1.6-2.01-.5-1.3-.22-2.51-.04-3.29.45-1.94,1.71-3.98,3.5-4.8.68-.31,1.49-.47,2.26-.62.65-.13,1.66-.28,1.69-.17.01.05-.23.12-.39.23-1.01.64.27,3.27-.91,4.53-1.14,1.21-2.61,1.01-2.85,2.11-.11.51.12.97.22,1.17.57,1.14,2.1,1.65,3.85,1.39Z"/>
              <path class="cls-35" d="m24.75,13.65s-.41,1.34-.92,1.54c-.51.21-1.32.45-1.42.54-.1.09,2.72,1.12,4.3.64h0c-.45-.22-.57-.29-.57-.29-.12-.07-.34-.2-.56-.41-.14-.14-.37-.41-.54-.84l.15-.76-.44-.42Z"/>
              <path class="cls-43" d="m24.57,14.24s.24.59.8.5c.51-.08.48-1.5.14-1.75-.11-.08-.35-.11-.52-.04-.12.05-.48.38-.4.86-.11-.07-.22-.06-.26,0-.05.08.03.21.05.24.06.11.15.15.2.17Z"/>
            </g>
          </g>
          <g>
            <path class="cls-33" d="m67.32,81.82s-2.28,1.04-2.31,1.21c-.04.17,1.47-.06,2.08-.04.61.02,1.12-.16,1.06-.42-.06-.26-.27-.91-.27-.91l-.56.16Z"/>
            <path class="cls-29" d="m67.23,80.98l.14,1.03s.36.13.6-.02l.1-1.13-.85.12Z"/>
            <path class="cls-49" d="m77.97,80.97l.27.43c.07.12.1.26.06.4-.09.35-.28,1.04-.36,1.22-.11.25-1.58.39-1.58.39,0,0-.13-.18.17-.41.31-.22.5-.26.61-.59.11-.33.18-1.26.18-1.26l.65-.18Z"/>
            <path class="cls-39" d="m76.87,79.9c.1.08.57,1.51.57,1.51,0,0,.15.2.44-.09.29-.29.13-.13.13-.13l-.06-1.41-1.09.12Z"/>
            <path class="cls-15" d="m65.93,60.35c-.11,3.06-.11,6.39.07,9.94.21,4,.62,7.7,1.13,11.05.19,0,.38,0,.59,0,.14,0,.27-.01.4-.02.26-.7.57-1.61.84-2.7.29-1.15.46-2.18.58-3.17.43-3.47-.08-3.77.27-6.34.31-2.28.76-2.37,1.28-5.6.56-3.51.14-4.03-.07-4.22-.88-.81-2.95-.25-5.08,1.06Z"/>
            <path class="cls-5" d="m71.01,59.29c-.84-.77-2.76-.3-4.79.88,2.34,2.52,2.6,4.15,2.32,5.22-.31,1.2-1.27,1.55-1.27,2.86,0,1.61,1.46,2.04,1.44,3.74-.02,1.13-.66,1.12-.81,2.51-.17,1.65.66,2.22.39,3.44-.12.53-.45,1.21-1.39,1.92.07.5.14,1,.21,1.48.19,0,.38,0,.59,0,.14,0,.27-.01.4-.02.26-.7.57-1.61.84-2.7.29-1.15.46-2.18.58-3.17.43-3.47-.08-3.77.27-6.34.31-2.28.76-2.37,1.28-5.6.56-3.51.14-4.03-.07-4.22Z"/>
            <path class="cls-42" d="m67.38,60.3c2.02,2.94,4.2,6.59,6.15,10.97,1.47,3.31,2.54,6.42,3.33,9.19.11.05.36.15.67.1.43-.06.69-.34.76-.41.31-1.99.27-3.67.16-4.88-.07-.78-.2-2.07-.7-3.67-.56-1.79-.94-1.89-1.67-3.78-.76-1.96-.58-2.46-1.3-4.91-.3-1.01-.8-2.51-1.62-4.31-1.93.57-3.86,1.14-5.79,1.71Z"/>
            <path class="cls-26" d="m59.18,56.15c.02.71,1.19,1.34,2.14,1.54,2.21.45,4.78-1.16,5.99-2.93.24-.35.5-.77.57-.74.14.07-1.18,2.26-1.76,4.74-.29,1.27-.22,1.87-.77,2.71-.12.19-.28.39-.22.62.14.57,1.43.72,2.34.82.95.11,1.84.1,2.71.08,1.4-.02,1.51-.09,1.83.06.98.48.91,1.63,1.64,1.78.62.13,1.24-.56,1.44-.78,1.03-1.14.98-2.5,1.16-3.89.43-3.21,2.17-6.73,3.88-8.95.52-.68.88-1.03.9-1.66.07-1.84-2.85-3.88-5.28-4.11-.67-.06-1.86-.04-2.98.06-.45.04-.92.1-1.43.19-1.24.22-2.1.37-2.98.77-3.55,1.62-2.77,5.24-6.61,7.74-1.32.86-2.58,1.19-2.56,1.94Z"/>
            <path class="cls-19" d="m73.72,43.54s.15.85.5,1.46c.32.55,1.63.74,1.9.84.27.1-.41.57-1.14.74-.73.17-2.86.29-3.28.06-.42-.23.27-.3.77-.56.5-.26.67-1.33.51-1.79-.16-.46.73-.74.73-.74Z"/>
            <g>
              <path class="cls-40" d="m72.55,43.02c-.43-.49-.34-1.52,0-1.67.1-.04.17,0,1.22.74.52.37.78.55.81.83.02.17-.04.38-.14.53-.05.08-.14.17-.33.34-.17.15-.16.15-.21.19-.12.1-.35.27-.73.44,0-.1,0-.22-.02-.35,0-.05-.04-.26-.12-.44-.14-.32-.35-.45-.49-.61Z"/>
              <path class="cls-31" d="m73.65,44.27s-.45.42-1.06.21c-.54-.19-.28-1.46.15-1.62.14-.06.39-.03.57.08.1.06.13.12.3.22.16.09.21.09.25.15.05.07.06.22-.15.55.14-.08.27-.08.35-.02.01.01.04.05.05.09.04.16-.14.31-.47.33Z"/>
            </g>
            <path class="cls-6" d="m62.28,56.04c1.6-.36,2.24-.35,3.04-.99,1.32-1.06,1.52-2.68,2.29-2.66.36,0,.66.38.87.74-.19.3-.39.6-.58.91,0-.01,0-.02,0-.02-.06-.03-.33.39-.57.74-1.22,1.78-3.78,3.38-5.99,2.93-.63-.13-1.37-.46-1.79-.87,1.09-.37,2.02-.61,2.75-.78Z"/>
            <path class="cls-17" d="m79.16,62.21c.97.09,3.16.13,4.7-1.3,2.57-2.38,1.3-6.92.4-8.87-1.03-2.24-2.66-3.49-3.66-4.25-1.23-.94-1.99-1.52-2.89-1.39-2.34.33-3.96,5.13-2.68,6.51.42.45.84.2,2.06.58.4.13,3.36,1.07,3.87,3.25.36,1.53-.56,3.31-2.19,4.51.13.32.26.64.38.96Z"/>
            <path class="cls-2" d="m68.27,61.42c1.1-.69,1.26-1.4,2.49-1.88,1.6-.62,2.37.17,3.16-.47.94-.75.11-2.07.81-4.35.12-.39,1.03-3.33,3.12-3.7.97-.17,2.26.2,2.76,1.02.39.65.03,1.13.5,1.84.47.71,1.04.54,1.64,1.13.95.94,1.1,2.93.24,4.06-.4.53-.92.73-1.91,1.12-.6.24-1.16.39-1.64.48,1.2-1.15,1.83-2.64,1.52-3.95-.32-1.36-1.59-2.24-2.6-2.74-1.01,1.9-1.83,4.1-2.11,6.17-.18,1.38-.13,2.75-1.16,3.89-.2.22-.82.91-1.44.78-.73-.15-.67-1.3-1.64-1.78-.32-.16-.43-.08-1.83-.06-.88.01-1.76.02-2.71-.08-.8-.09-1.91-.22-2.25-.64,1.45-.04,2.41-.44,3.06-.85Z"/>
            <g>
              <path class="cls-41" d="m86.33,65.02c.03.93-.29,1.71-.96,2.36l-32.66-13.25.96-2.36,32.66,13.25Z"/>
              <path class="cls-23" d="m85.89,66.74c.17-.28.29-.57.36-.89l-32.88-13.34-.36.89,32.88,13.34Z"/>
              <path class="cls-14" d="m53.67,51.77c.14.96-.17,1.75-.96,2.36l-6.94-4.1c-.08-.05-.03-.17.06-.15l7.84,1.9Z"/>
              <path class="cls-27" d="m45.77,50.02l2.7,1.59c.22-.3.36-.64.41-1.01l-3.05-.74c-.09-.02-.14.1-.06.15Z"/>
            </g>
            <path class="cls-36" d="m61.62,57.74s-.79-.45-1.19-.87c-.4-.43-.85-.26-.9-.03-.05.23.64.88.96,1.03.32.15,1.14-.12,1.14-.12Z"/>
            <path class="cls-12" d="m79.07,62l-.22-.54s-.35.02-.64-.19c-.16-.11-.41-.06-.5-.03-.08.02-.48.07-.13.23.35.17.41.15.27.28-.15.14-.7.43-.9.45-.2.01.16.32.36.36.2.04.53.09.94-.15.15-.09.81-.42.81-.42Z"/>
          </g>
        </g>
      </g>
    </g>
  </g>
</svg>