<?xml version="1.0" encoding="UTF-8"?>
<svg id="Layer_2" data-name="Layer 2" xmlns="http://www.w3.org/2000/svg" viewBox="0 0 435.75 339.35">
  <defs>
    <style>
      .cls-1 {
        fill: #bbe2f2;
      }

      .cls-2 {
        fill: #fff;
      }

      .cls-3 {
        fill: #37b34a;
      }

      .cls-4 {
        fill: #264cbe;
      }

      .cls-5 {
        fill: #18315b;
      }

      .cls-6 {
        fill: #0f172a;
      }

      .cls-7 {
        fill: #ffa681;
      }

      .cls-8 {
        fill: #6fef7e;
      }

      .cls-9 {
        fill: #ea5143;
      }

      .cls-10 {
        fill: #f97853;
      }

      .cls-11 {
        fill: #000b29;
      }

      .cls-12 {
        fill: #e3e3e3;
      }
    </style>
  </defs>
  <g id="OBJECTS">
    <g>
      <path class="cls-1" d="m185.33,72.78C169.71,16.09,99.29-2.17,58.93,40.19c-.58.61-1.16,1.23-1.74,1.86C-.67,104.94,26.66,259.94,147.41,299.22c120.75,39.28,246.35-32.45,253.4-96.58,7.06-64.13-48.65-84.28-135.11-66.35-48.84,10.13-70.65-28.23-80.38-63.52Z"/>
      <path class="cls-1" d="m285.78,82.47c-16.16,2.63-20.63,16.94-8.16,27.1,4.12,3.36,10.01,6.14,18.4,7.54,31.95,5.3,48.91-8.84,36.1-27.17-7.91-11.31-30.33-10.07-46.34-7.47Z"/>
      <path class="cls-1" d="m28.18,197.02c-10.04-12.92-24.75-10-27.7,5.81-.97,5.23-.6,11.73,2.19,19.76,10.64,30.59,31.17,38.71,41.14,18.69,6.15-12.36-5.68-31.45-15.63-44.26Z"/>
      <path class="cls-1" d="m412.2,210.09c-1.49,7.79,4.95,13.31,12.23,10.31,2.41-.99,4.84-2.91,7-6.27,8.24-12.81,4.06-23.8-7.4-22.68-7.08.7-10.36,10.92-11.83,18.64Z"/>
      <path class="cls-1" d="m371.36,127.88c7.76,1.62,13.39-4.72,10.51-12.06-.95-2.43-2.82-4.89-6.15-7.11-12.67-8.45-23.73-4.47-22.8,7.02.58,7.09,10.74,10.54,18.43,12.15Z"/>
      <path class="cls-1" d="m182.64,44.5c6.15,5.01,14.06,1.97,14.88-5.87.27-2.59-.26-5.64-2.19-9.14-7.36-13.34-19.01-14.89-23.47-4.26-2.75,6.56,4.68,14.3,10.77,19.27Z"/>
    </g>
    <g>
      <g>
        <path class="cls-5" d="m106.83,311.69c.06,3.77.12,7.69.21,11.66h36.36c.07-4.34.12-8.51.16-12.41.11-10.58.12-19.29.11-24.71,0-3.84-.02-6.02-.02-6.02l-37.08-.39s0,3.2.03,8.44c.02,5.82.09,14.16.23,23.42Z"/>
        <path class="cls-11" d="m106.6,288.27c.02,5.82.09,14.16.23,23.42,11.42.87,23.94.88,36.73-.75.11-10.58.12-19.29.11-24.71l-37.07,2.03Z"/>
      </g>
      <g>
        <path class="cls-5" d="m61.01,303.33c.04,5.93.11,12.72.23,20.02h36.36c.09-4.28.16-8.5.22-12.54.13-8.66.19-16.47.22-22.07.03-5.52.03-8.91.03-8.91l-37.09.39s-.03,3.93-.02,10.55c0,3.5.02,7.74.05,12.56Z"/>
        <path class="cls-11" d="m60.96,290.77c0,3.5.02,7.74.05,12.56,7.38,2.18,20.6,5.56,36.81,7.48.13-8.66.19-16.47.22-22.07l-37.08,2.03Z"/>
      </g>
      <g>
        <path class="cls-5" d="m121.91,84.75s5.84-5.63,5.82-11.18c-.02-5.56-3.8-3.92-5.82-9.09s-8.05-8.34-11.35-7.7c-3.3.63-10.28-12.25-19.74-9.98-9.46,2.27-8.64,14.4-12.71,16.17-4.07,1.77-2.94,8.97-.79,10.61,2.15,1.64,3.06,8.24,4.26,8.09,1.21-.15,40.33,3.09,40.33,3.09Z"/>
        <g>
          <path class="cls-10" d="m82.59,84.62s-3.67-4.9-6.4-.85c-2.73,4.05,1.13,16.01,7.82,13.09l-1.41-12.24Z"/>
          <path class="cls-9" d="m82.54,93.17c-.25,0-.47-.16-.54-.41-1.04-3.69-4.86-5.19-4.9-5.21-.29-.11-.44-.44-.33-.73.11-.29.44-.44.73-.33.18.07,4.4,1.7,5.59,5.96.08.3-.09.61-.39.7-.05.01-.1.02-.15.02Z"/>
          <path class="cls-9" d="m78.68,91.31c-.1,0-.21-.03-.31-.09-.26-.17-.34-.52-.17-.78.03-.04.71-1.08,2.12-1.71.28-.13.62,0,.75.29.13.28,0,.62-.28.75-1.09.49-1.63,1.28-1.63,1.29-.11.17-.29.26-.48.26Z"/>
        </g>
        <g>
          <path class="cls-10" d="m120.45,84.62s3.67-4.9,6.4-.85c2.73,4.05-1.13,16.01-7.82,13.09l1.41-12.24Z"/>
          <path class="cls-9" d="m120.49,93.17c.25,0,.47-.16.54-.41,1.04-3.69,4.86-5.19,4.9-5.21.29-.11.44-.44.33-.73-.11-.29-.44-.44-.73-.33-.18.07-4.4,1.7-5.59,5.96-.08.3.09.61.39.7.05.01.1.02.15.02Z"/>
          <path class="cls-9" d="m124.36,91.31c.1,0,.21-.03.31-.09.26-.17.34-.52.17-.78-.03-.04-.71-1.08-2.12-1.71-.28-.13-.62,0-.75.29-.13.28,0,.62.29.75,1.09.49,1.63,1.28,1.63,1.29.11.17.29.26.48.26Z"/>
        </g>
        <path class="cls-7" d="m110.56,107.01v11.9s-3.55,6.06-8.35,6.47c-4.79.42-9.05-5.22-9.05-5.22v-12.31l17.4-.84Z"/>
        <path class="cls-10" d="m110.56,107.01v5.28c-3.22,3.57-8.94,4.46-17.4,3.22v-7.66l17.4-.84Z"/>
        <path class="cls-7" d="m123.1,76.46c-.22,4.62-.66,10.4-1.54,15.03-.22,1.15-.47,2.24-.75,3.21-2.5,8.77-8.77,23.8-26.3,17.54-7.74-2.76-11.33-11.39-12.93-20.16-1.09-5.96-1.25-11.98-1.17-16.28.08-4.39,2.48-8.4,6.3-10.57,10.35-5.87,21.27-3.68,28.46-.92,4.99,1.92,8.18,6.82,7.93,12.15Z"/>
        <path class="cls-5" d="m81.59,92.07s1.7,10.14,3.31,13.83c1.61,3.69,6,4.39,7.65,7.51,2.35,4.45,5.93,7.98,11.83,5.83,4.9-1.79,4.68-4.3,7.43-6.24,4.71-3.32,7.04-6.98,7.23-10.01.19-3.03,2.53-11.51,2.53-11.51l-2.53-.18s-1.44,2.98-3.56,6.27c-2.13-4.67-12.37-1.27-12.37-1.27l-1.96.63-2.01-.63s-10.36-3.25-12.41,1.64c-1.25-1.92-2.27-4.07-2.74-6.36l-2.41.48Zm19.57,6.44c11.75-2.02,9.65,4.86,9.57,5.11h0c-.8.77-1.61,1.4-2.41,1.84-4.55,2.46-5.04,2.09-6.84,2.17-1.83.09-4.35-.45-6.9-1.88-.8-.45-1.99-1.31-3.29-2.5,0,0-1.85-6.31,9.88-4.73Z"/>
        <path class="cls-5" d="m94.09,86.17c0,1.27-.65,2.3-1.46,2.3s-1.46-1.03-1.46-2.3.65-2.3,1.46-2.3,1.46,1.03,1.46,2.3Z"/>
        <path class="cls-5" d="m111.47,86.17c0,1.27-.65,2.3-1.46,2.3s-1.46-1.03-1.46-2.3.65-2.3,1.46-2.3,1.46,1.03,1.46,2.3Z"/>
        <path class="cls-5" d="m115.76,78.6s-6.04-2.39-10.69-.38l.47,2.59s6.83-.58,10.27.82c.31-1,.35-2-.04-3.03Z"/>
        <path class="cls-5" d="m87.04,78.61s6.09-2.4,10.77-.38l-.47,2.61s-6.88-.58-10.34.82c-.31-1-.36-2.02.04-3.05Z"/>
        <path class="cls-10" d="m101.71,95.81c.95,0,1.9-.37,2.05-.43.29-.12.43-.45.31-.74-.12-.29-.45-.43-.74-.31-.51.21-1.74.53-2.27.21-.1-.06-.24-.18-.28-.53-.2-1.97.34-8.59.34-8.66.03-.31-.21-.58-.52-.61-.31-.03-.58.21-.61.52-.02.28-.55,6.79-.34,8.86.08.78.49,1.18.82,1.38.36.22.8.29,1.23.29Z"/>
        <path class="cls-2" d="m94.51,99.64c.43,2.16,1.85,6.13,6.66,6.13s6.17-3.63,6.63-6.13h-13.29Z"/>
        <path class="cls-5" d="m123.1,76.46c-.22,4.62-.66,10.4-1.54,15.03l-2.53-.18s.61-3.9.89-6.45c.28-2.54.76-7.3-1.41-7.89-2.16-.59-.89-6.01-3.91-8.36-3.01-2.36-9.7-4.43-14.15-1.7-4.44,2.73-9.49,1.22-11.54,1.7-2.05.47-4.83,3.29-4.08,5.93.76,2.63-1.5,4.24-2.05,6.97-.55,2.73,1.2,10.08,1.2,10.08l-2.41.49c-1.09-5.96-1.25-11.98-1.17-16.28.08-4.39,2.48-8.4,6.3-10.57,10.35-5.87,21.27-3.68,28.46-.92,4.99,1.92,8.18,6.82,7.93,12.15Z"/>
      </g>
      <g>
        <path class="cls-3" d="m151.33,298.1c-11.43,2.9-22.87,4.77-34.31,5.63-.52.04-1.03.08-1.55.11-1.57.11-3.15.19-4.72.26-7.78.34-15.57.2-23.35-.4-1.57-.12-3.14-.26-4.71-.42-.5-.05-1-.1-1.51-.16-9.3-1.01-18.59-2.69-27.89-5.03-.09-8.57.01-35.66.54-65.04.06-3.53.13-7.09.21-10.66.82-38.72,2.41-78.03,5.28-81.96,2.74-3.77,11.01-8.56,18.91-12.88.47-.26.94-.51,1.41-.77,1.78-.97,3.51-1.9,5.15-2.79,3.5-1.91,6.52-3.6,8.39-4.91v1.08s4.25,5.63,9.05,5.21c4.37-.38,7.7-5.42,8.26-6.33,2.06,1.45,5.76,3.45,10.06,5.72,1.19.63,2.43,1.28,3.69,1.95.46.24.93.49,1.4.74,8.74,4.63,18.16,9.86,20.99,13.74.21.29.41.77.6,1.43,1.67,5.67,2.71,24.47,3.34,47.24,0,.08,0,.16,0,.25.03.92.05,1.85.07,2.78,0,.12,0,.24.01.37.21,7.99.36,16.4.48,24.84.01.67.02,1.34.03,2.01,0,.34,0,.67.01,1.01.03,1.66.05,3.33.06,4.98.02,1.22.03,2.44.04,3.66.32,30.54.19,59.34.06,68.32Z"/>
        <path class="cls-8" d="m150.64,192.9c-2.75-4.49-5.71-9.08-8.49-13.14,0-.01-.02-.02-.02-.03-1.17-1.7-2.31-3.31-3.39-4.78-.02-.03-.04-.05-.06-.08-.34-.46-.67-.91-1-1.35-.05-.08-.09-.15-.12-.24h0c-.09-.3.01-.63.27-.82.34-.25.81-.19,1.06.15,3.34,4.43,7.62,10.79,11.66,17.26,0,.08,0,.16,0,.25.03.92.05,1.85.07,2.78Z"/>
        <path class="cls-3" d="m146.72,140.58s17.24,31.59,27.76,47.61c0,0,5.98-5.49,13.75-12.84,8.43-7.97,19.96-21.28,19.96-21.28l6.38,7.57s-25.9,46.62-37.52,52.47c-11.62,5.86-33.03-35.61-33.03-35.61l2.7-37.92Z"/>
        <path class="cls-8" d="m73.71,265.1s-.02,0-.03,0c-.43-.02-.77-.38-.75-.81.9-25.51-12.33-33.78-12.46-33.86-.37-.22-.49-.7-.27-1.07.22-.37.7-.49,1.07-.27.15.09,3.64,2.21,7.03,7.66,3.09,4.97,6.68,13.79,6.19,27.6-.01.42-.36.75-.78.75Z"/>
        <path class="cls-8" d="m130.15,241.06c-.4,0-.74-.31-.78-.72-.42-5.37,1.35-9.29,3.59-14.25.66-1.45,1.33-2.95,2.03-4.64,4.35-10.55,2.16-22.61,2.14-22.73-.08-.42.2-.83.62-.91.42-.08.83.2.91.62.1.51,2.29,12.64-2.23,23.61-.7,1.71-1.39,3.22-2.05,4.68-2.23,4.94-3.85,8.52-3.46,13.49.03.43-.29.8-.72.84-.02,0-.04,0-.06,0Z"/>
        <g>
          <path class="cls-2" d="m84.78,123.99c.33,2.51.82,5.77,1.36,9.47.16,1.1.33,2.24.49,3.41.54,3.82,1.1,7.98,1.58,12.19.13,1.13.25,2.26.36,3.39.42,4.16.74,8.3.85,12.15.04,1.16.05,2.3.05,3.4,0,2.94-.17,5.63-.53,7.94-.23,1.46-.43,2.88-.61,4.28-.15,1.16-.28,2.29-.4,3.41-.45,4.34-.68,8.38-.75,12.19-.02,1.16-.02,2.29-.01,3.4.03,4.32.28,8.35.64,12.19.11,1.15.22,2.28.34,3.39.47,4.19,1.03,8.18,1.57,12.12.16,1.13.31,2.25.45,3.38.23,1.8.45,3.61.64,5.42.2,1.92.33,4.18.39,6.67.03,1.09.05,2.23.05,3.41.02,3.73-.08,7.87-.25,12.19-.05,1.13-.09,2.27-.15,3.43-.19,4.02-.45,8.15-.73,12.22-.08,1.15-.17,2.29-.25,3.43-.31,4.24-.66,8.38-1.02,12.22-.11,1.17-.21,2.31-.32,3.41-.41,4.23-.8,7.99-1.14,11,7.79.6,15.57.73,23.36.39.18-3.19.68-8.35,1.17-14.41.09-1.11.18-2.25.27-3.42.29-3.86.56-7.98.73-12.14.05-1.14.09-2.28.12-3.43.12-4.15.12-8.28-.06-12.15-.05-1.17-.12-2.32-.21-3.44-.09-1.14-.2-2.26-.33-3.33-.38-3.04-.52-5.96-.5-8.84,0-1.14.03-2.28.09-3.42.18-3.96.61-7.92,1.11-12.13.13-1.12.27-2.25.41-3.41.45-3.74.92-7.71,1.29-12.06.1-1.11.19-2.25.27-3.42.26-3.73.43-7.73.46-12.1,0-1.13,0-2.27-.01-3.45-.04-3.78-.2-7.82-.51-12.17-.03-.39-.05-.78-.08-1.17-.06-.76-.11-1.53-.14-2.3-.2-3.97-.15-8.06.08-12.13.06-1.14.14-2.29.22-3.43.31-4.08.77-8.12,1.3-11.99.16-1.15.32-2.29.48-3.41.64-4.24,1.32-8.24,1.95-11.81.21-1.17.41-2.3.6-3.38.43-2.41.8-4.56,1.07-6.38-4.29-2.27-7.99-4.27-10.06-5.72-.56.91-3.89,5.95-8.26,6.33-4.79.42-9.05-5.21-9.05-5.21v-1.08c-1.86,1.31-4.88,3-8.38,4.91Z"/>
          <g>
            <path class="cls-12" d="m86.13,133.47c.16,1.1.33,2.24.49,3.41,4.3.1,9.35-.55,15.44-1.95,6.52-1.5,12.26-1.24,16.8-.4.21-1.17.41-2.3.6-3.38-4.91-.91-11.11-1.17-18.16.46-6.01,1.38-11.01,2.02-15.16,1.86Z"/>
            <path class="cls-12" d="m88.21,149.07c.13,1.13.25,2.26.36,3.39,3.86-.1,8.3-.75,13.49-1.95,5.39-1.24,10.26-1.27,14.36-.76.16-1.15.32-2.29.48-3.41-4.44-.55-9.73-.5-15.61.85-5.04,1.16-9.37,1.8-13.09,1.88Z"/>
            <path class="cls-12" d="m89.42,164.6c.04,1.16.05,2.3.05,3.4,3.65-.17,7.8-.81,12.59-1.91,4.74-1.09,9.07-1.25,12.83-.92.06-1.14.14-2.29.22-3.43-4.05-.33-8.71-.14-13.82,1.03-4.5,1.04-8.43,1.66-11.87,1.83Z"/>
            <path class="cls-12" d="m87.94,183.64c4.01-.05,8.65-.7,14.13-1.96,4.8-1.11,9.18-1.25,12.98-.91-.03-.39-.05-.78-.08-1.17-.06-.76-.11-1.53-.14-2.3-3.98-.3-8.54-.09-13.52,1.06-4.98,1.15-9.27,1.78-12.96,1.87-.15,1.16-.28,2.29-.4,3.41Z"/>
            <path class="cls-12" d="m87.18,199.22c4.18.03,9.06-.61,14.88-1.96,5.03-1.16,9.59-1.27,13.5-.87,0-1.13,0-2.27-.01-3.45-4.15-.38-8.96-.22-14.25,1-5.51,1.27-10.17,1.91-14.11,1.88-.02,1.16-.02,2.29-.01,3.4Z"/>
            <path class="cls-12" d="m87.82,211.41c.11,1.15.22,2.28.34,3.39,3.96-.06,8.53-.71,13.9-1.95,4.72-1.09,9.03-1.25,12.77-.94.1-1.11.19-2.25.27-3.42-4.05-.33-8.7-.14-13.81,1.03-5.21,1.2-9.68,1.84-13.48,1.88Z"/>
            <path class="cls-12" d="m89.73,226.92c.16,1.13.31,2.25.45,3.38,3.47-.22,7.39-.84,11.88-1.87,4.02-.93,7.74-1.18,11.07-1.05.13-1.12.27-2.25.41-3.41-3.67-.17-7.79.11-12.25,1.14-4.37,1-8.2,1.62-11.57,1.81Z"/>
            <path class="cls-12" d="m91.22,242.4c.03,1.09.05,2.23.05,3.41,3.2-.27,6.77-.86,10.8-1.8,3.54-.81,6.86-1.11,9.87-1.08,0-1.14.03-2.28.09-3.42-3.27-.03-6.87.29-10.72,1.18-3.74.86-7.09,1.43-10.08,1.71Z"/>
            <path class="cls-12" d="m90.86,261.42c3.3-.25,7.01-.86,11.2-1.83,3.95-.91,7.62-1.17,10.92-1.04-.05-1.17-.12-2.32-.21-3.44-3.47-.1-7.32.2-11.47,1.16-3.82.88-7.24,1.46-10.29,1.72-.05,1.13-.09,2.27-.15,3.43Z"/>
            <path class="cls-12" d="m89.87,277.07c3.55-.2,7.57-.83,12.19-1.89,3.93-.91,7.58-1.17,10.85-1.05.05-1.14.09-2.28.12-3.43-3.54-.12-7.48.17-11.74,1.16-4.19.97-7.9,1.57-11.17,1.79-.08,1.15-.17,2.29-.25,3.43Z"/>
            <path class="cls-12" d="m88.54,292.71c3.87-.1,8.32-.75,13.52-1.95,3.54-.81,6.85-1.11,9.86-1.08.09-1.11.18-2.25.27-3.42-3.32-.05-6.97.27-10.89,1.17-4.75,1.09-8.87,1.72-12.44,1.86-.11,1.17-.21,2.31-.32,3.41Z"/>
          </g>
        </g>
        <g>
          <path class="cls-8" d="m115.47,303.84c.52-.03,1.03-.07,1.55-.11,3.07-18.04,1.3-44.53.64-52.64-.68-8.43.63-19.26,3.6-29.72,2.3-8.12.89-26.96-.24-42.09-.32-4.25-.62-8.26-.8-11.56-.58-10.65,3.28-30.37,5.4-40.25-.47-.25-.94-.5-1.4-.74-2.13,9.78-6.13,29.95-5.52,41.08.18,3.31.48,7.33.8,11.59,1.13,15.02,2.53,33.7.3,41.56-3.02,10.63-4.35,21.66-3.65,30.26.66,8.13,2.44,34.78-.69,52.63Z"/>
          <path class="cls-8" d="m84.03,230.42c1.8,11.09,1.24,18.3.58,26.64-.21,2.7-.43,5.48-.59,8.56-.48,9.65-2.11,29.1-2.84,37.5.5.06,1,.11,1.51.16.72-8.41,2.36-27.9,2.85-37.59.15-3.05.37-5.83.58-8.51.66-8.44,1.24-15.73-.59-27-.39-2.42-.81-4.88-1.22-7.32-2.04-12.09-4.16-24.59-3.16-30.58.24-1.46.55-3.12.89-4.88,1.36-7.23,3.05-16.22,2.52-24.03-.53-7.74-3.7-28.69-4.92-36.58-.47.25-.94.51-1.41.77,1.27,8.26,4.3,28.4,4.82,35.92.52,7.61-1.15,16.5-2.49,23.65-.33,1.77-.65,3.43-.89,4.91-1.04,6.24,1,18.31,3.16,31.09.41,2.44.83,4.89,1.22,7.31Z"/>
        </g>
      </g>
      <g>
        <path class="cls-7" d="m54.21,153.3s-15.44,51.48-19.26,69.82c-3.82,18.35-4.12,56.48-4.12,56.48,0,0-6.75,14.01-6.91,20.24-.17,6.65,3.32,11.93,2.92,16.28-.4,4.35,4.9,1.99,3.4-6.82s2.75-16.79,4.58-16.53c1.83.26-1.52,9.62.11,12.99,1.63,3.37,3.73-3.18,5.83-7.16,2.17-4.13,2.05-13.14,1.06-19.57-.99-6.43,10.67-45.5,10.73-56.82l14.76-49.89s-4.88-20.83-13.1-19.04Z"/>
        <path class="cls-3" d="m69.2,171.08c-.52,3.31-2.35,8.99-4.72,16.13h0c-.2.61-.41,1.22-.61,1.85-.01.03-.02.06-.03.09-.59,1.78-1.21,3.64-1.85,5.56,0,.01,0,.02-.01.03-2.62,7.95-5.52,17.04-7.95,26.39-.84,3.2-1.62,6.43-2.31,9.65-.89,4.11-1.64,8.21-2.19,12.22-1.97,14.45-5.75,32.76-5.75,32.76-5.54,2.27-14.19-.73-14.19-.73,0,0-.22-26.37,1.01-36.61,1.53-12.67,3.47-21.68,5.88-32.04,6.63-28.49,18.3-56.36,21.5-63.76.25-.59.45-1.05.59-1.37h2.75c5.42,3.44,9.27,20.9,7.85,29.82Z"/>
        <path class="cls-8" d="m29.15,269.76l.43,6.07s8.23,2.67,14.4.79l1.63-5.41c-5.94.31-11.43.17-16.46-1.45Z"/>
        <path class="cls-4" d="m64.48,187.21h0c0,.09-.02.18-.05.27-.19.51-.38,1.04-.56,1.58-.01.03-.02.06-.03.09-.61,1.72-1.22,3.59-1.85,5.56,0,.01,0,.02-.01.03-3.22,10.25-6.5,23.14-8.01,31.37.02-1.66.03-3.32.06-4.98-.84,3.2-1.62,6.43-2.31,9.65.31-3.02,1.17-7.54,2.35-12.67,2.38-10.37,6.03-23.22,8.93-31.15.14-.39.58-.59.97-.45.31.11.5.4.5.7Z"/>
      </g>
    </g>
    <g>
      <g>
        <path class="cls-5" d="m340.62,323.35h36.46c-.12-2.53-.24-4.95-.36-7.24-.64-12.49-1.18-20.99-1.18-20.99l-29.66,1.32-2.46.11-4.36.2s.42,7.6,1.08,18.74c.15,2.46.3,5.1.47,7.87Z"/>
        <path class="cls-11" d="m343.44,296.55l-4.36.2s.42,7.6,1.08,18.74c11.39.95,23.83,1.34,36.58.62-.64-12.49-1.18-20.99-1.18-20.99l-29.66,1.32-2.46.11Z"/>
        <path class="cls-11" d="m347.41,323.35c-.67-11.56-1.21-21.43-1.51-26.91l-2.46.11c.3,5.46.84,15.28,1.51,26.8h2.46Z"/>
      </g>
      <g>
        <path class="cls-5" d="m329.92,323.35c.19-3.13.36-6.1.52-8.84.63-10.61,1.02-17.77,1.02-17.77l-4.73-.21-2.45-.11-29.29-1.3s-.32,5.07-.76,13.12c-.23,4.29-.5,9.44-.77,15.11h36.47Z"/>
        <path class="cls-11" d="m294.23,308.24c7.95,1.87,20.77,4.49,36.22,6.27.63-10.61,1.02-17.77,1.02-17.77l-4.73-.21-2.45-.11-29.29-1.3s-.32,5.07-.76,13.12Z"/>
        <path class="cls-11" d="m325.23,323.35c.66-11.53,1.21-21.36,1.51-26.82l-2.45-.11c-.3,5.48-.85,15.36-1.51,26.93h2.46Z"/>
      </g>
      <g>
        <path class="cls-3" d="m380.84,300.81c-7.43,2.04-14.86,3.59-22.28,4.62-2.58.36-5.16.67-7.75.9-3.48.32-6.96.54-10.44.65-5.75.18-11.51.05-17.26-.38-11.13-.81-22.25-2.76-33.38-5.8-.1-10.38.05-47.59.83-83.48.04-1.61.07-3.22.11-4.82,0-.34.02-.68.02-1.02,0-.37.02-.74.03-1.11.03-1.14.06-2.27.08-3.4.06-2.31.12-4.59.18-6.86.04-1.35.08-2.7.12-4.03,0-.28.02-.55.03-.83.03-.88.06-1.75.08-2.62h0c.01-.27.02-.54.03-.81.03-.8.05-1.6.08-2.39.03-.67.05-1.34.07-2,.86-24.21,2.12-43.31,3.93-46,3.06-4.56,13.48-10.62,21.86-15.56,2.99-1.75,6.55-3.58,8.59-4.93,2.98,2.4,5.14,4.56,9.55,4.41,4.94-.17,6.15-3.14,8.04-5.68,1.15.75,4.07,3.14,5.59,4.03,1.3.77,2.7,1.58,4.17,2.42,2.27,1.3,4.68,2.68,7.07,4.08,3.54,2.08,7.03,4.23,9.93,6.29,2.89,2.05,5.19,4.02,6.32,5.72,1.64,2.46,2.7,18.39,3.38,39.35.03.73.05,1.48.08,2.23,0,.09,0,.18,0,.27.03.76.05,1.54.07,2.32.07,2.36.13,4.77.2,7.22.01.52.03,1.04.03,1.56.01.39.02.78.03,1.17.02,1.01.05,2.02.07,3.04,0,.2,0,.41.01.61.06,2.69.11,5.42.16,8.17.02.8.03,1.61.04,2.42.62,37.73.48,79.09.34,90.24Z"/>
        <path class="cls-8" d="m380.51,210.57l-11.76,11.93-10.96-11.11-10.96,11.11-11-11.16-11,11.16-11.07-11.23-11.07,11.23-11.96-12.13c.03-1.14.06-2.27.08-3.4.06-2.31.12-4.59.18-6.86l11.69-11.86,11.07,11.23,11.07-11.23,11,11.16,11-11.16,10.96,11.11,10.96-11.11,11.57,11.72c.06,2.69.11,5.42.16,8.17.02.8.03,1.61.04,2.42Z"/>
        <path class="cls-8" d="m360.21,272.06h0c-15.75-.07-29.19-7.24-37.7-13.24-9.2-6.49-14.77-13.06-14.83-13.13-.27-.32-.23-.8.09-1.07.32-.27.8-.23,1.07.09.05.06,5.53,6.51,14.57,12.89,8.32,5.86,21.46,12.87,36.8,12.93.42,0,.76.34.75.76,0,.42-.34.75-.76.75Z"/>
        <path class="cls-8" d="m350.38,262.75c-13.41-2.64-25.28-12.91-25.82-13.38-.31-.28-.35-.75-.07-1.07.28-.32.75-.35,1.07-.07.14.12,14.11,12.2,28.34,13.5.42.03.72.41.69.82-.04.42-.41.72-.82.69-1.14-.1-2.27-.27-3.38-.49Z"/>
        <path class="cls-8" d="m323.53,146.2c-.36,0-.67-.25-.74-.62-.08-.41.19-.81.6-.89,19.2-3.64,24.99-16,25.05-16.12.17-.38.62-.55,1-.38.38.17.55.62.38,1-.24.54-6.18,13.2-26.14,16.99-.05,0-.1.01-.14.01Z"/>
        <path class="cls-8" d="m300.1,179.45h0c-.02.09-.06.17-.1.25-.29.46-.59.94-.89,1.42-.02.03-.03.05-.05.08-.96,1.55-1.96,3.25-2.99,5.04,0,.01,0,.02-.02.03-1.61,2.82-3.28,5.88-4.91,8.98.03-.88.06-1.75.08-2.62h0c.01-.27.02-.54.03-.81,2.63-4.89,5.26-9.46,7.46-12.93.23-.36.69-.46,1.05-.23.27.18.4.5.34.8Z"/>
      </g>
      <g>
        <path class="cls-7" d="m396.86,151.36s24.55-7.89,31.82-24c2.1-4.67-15.21-52.05-15.21-52.05l-8.36.4s2.38,16.44,3.83,25.75c1.19,7.65,3.11,16.8,3.75,19.81.14.65.22,1.02.22,1.02-.41.07-.82.15-1.24.23-11.47,2.33-26.12,9.8-26.12,9.8l11.31,19.04Z"/>
        <path class="cls-10" d="m419.07,126.83c.35.25.85.18,1.1-.17.26-.36.18-.85-.17-1.1-1.79-1.3-4.48-2.82-7.31-4.29.14.65.22,1.02.22,1.02-.41.07-.82.15-1.24.23,2.88,1.48,5.64,3.02,7.41,4.31Z"/>
        <path class="cls-3" d="m359.28,129.69s-7.43,17.43,11.48,27.13c13.09,6.72,42.9-10.82,42.9-10.82l-10.63-22.56s-27.27,11.25-43.75,6.25Z"/>
        <path class="cls-7" d="m409.19,48.68c-.74.52-.59,3.72-.26,6.74-.1.02-.21.03-.32.05-.88-4.02-2.63-10.87-4.13-9.56-.98.86.33,6.76,1.23,10.29-.18.06-.37.12-.55.18-1.13-4.19-3.56-12.26-5.17-10.69-1.08,1.05.99,8.15,2.14,11.78-.16.06-.32.12-.47.19-1.1-3.52-3.45-10.17-5.06-8.61-1.46,1.42,2.72,11.47,2.72,11.47h0l1.1,3.95s-1.3.56-3.33-1.74c-2.03-2.3-4.46-2.7-2.77.62,1.91,3.76,4.73,6.45,5.97,9.11,1.24,2.66,5.15,3.54,5.15,3.54l7.85-.38s1.52-13.26-1.41-19.59h0c-.5-3.76-1.39-8.25-2.67-7.34Z"/>
      </g>
      <g>
        <path class="cls-5" d="m312.1,79.26c0,13.37,8.23,22.58,21.59,22.58s22.68-9.9,22.68-23.27c0-3.69-.6-7.13-1.76-10.17-.07-.18-.14-.36-.21-.54-.14-.35-.29-.69-.45-1.03-.23-.52-.49-1.02-.77-1.51-3.48-6.26-9.72-10.24-18.1-10.24-16.03,0-22.99,10.81-22.99,24.18Z"/>
        <g>
          <path class="cls-10" d="m315.1,85.02s-3.71-4.95-6.47-.86c-2.76,4.09,1.14,16.19,7.9,13.23l-1.43-12.38Z"/>
          <path class="cls-9" d="m315.05,93.66c-.25,0-.48-.17-.55-.42-1.05-3.73-4.92-5.25-4.95-5.26-.29-.11-.44-.44-.33-.74.11-.29.44-.44.74-.33.18.07,4.44,1.72,5.65,6.02.09.3-.09.62-.4.7-.05.01-.1.02-.15.02Z"/>
          <path class="cls-9" d="m311.15,91.78c-.11,0-.21-.03-.31-.09-.27-.17-.34-.52-.17-.79.03-.04.71-1.09,2.14-1.73.29-.13.63,0,.75.29.13.29,0,.63-.29.75-1.11.5-1.64,1.3-1.65,1.3-.11.17-.29.26-.48.26Z"/>
        </g>
        <g>
          <path class="cls-10" d="m353.36,85.02s3.71-4.95,6.47-.86c2.76,4.09-1.14,16.19-7.9,13.23l1.43-12.38Z"/>
          <path class="cls-9" d="m353.41,93.66c.25,0,.48-.17.55-.42,1.05-3.73,4.91-5.25,4.95-5.26.29-.11.44-.44.33-.74-.11-.29-.44-.44-.74-.33-.18.07-4.44,1.72-5.65,6.02-.08.3.09.62.4.7.05.01.1.02.15.02Z"/>
          <path class="cls-9" d="m357.32,91.78c.11,0,.21-.03.31-.09.27-.17.34-.52.17-.79-.03-.04-.71-1.09-2.14-1.73-.29-.13-.63,0-.75.29-.13.29,0,.63.29.75,1.11.5,1.64,1.3,1.65,1.3.11.17.29.26.48.26Z"/>
        </g>
        <path class="cls-7" d="m343.37,107.65v12.02s-3.59,6.12-8.44,6.54c-4.84.42-9.15-5.27-9.15-5.27v-12.45l17.59-.85Z"/>
        <path class="cls-10" d="m343.37,107.65v5.34c-3.25,3.61-9.03,4.51-17.59,3.25v-7.74l17.59-.85Z"/>
        <path class="cls-7" d="m356.05,76.77c-.22,4.67-.67,10.52-1.56,15.19-.22,1.17-.47,2.26-.75,3.24-2.53,8.86-8.86,24.06-26.58,17.73-7.83-2.79-11.45-11.51-13.07-20.38-1.1-6.02-1.26-12.1-1.18-16.45.09-4.44,2.51-8.49,6.37-10.68,10.46-5.93,21.5-3.72,28.76-.93,5.04,1.94,8.27,6.89,8.01,12.28Z"/>
        <path class="cls-5" d="m326.63,86.59c0,1.28-.66,2.32-1.48,2.32s-1.48-1.04-1.48-2.32.66-2.32,1.48-2.32,1.48,1.04,1.48,2.32Z"/>
        <path class="cls-5" d="m344.05,86.54c0,1.28-.66,2.32-1.48,2.32s-1.48-1.04-1.48-2.32.66-2.32,1.48-2.32,1.48,1.04,1.48,2.32Z"/>
        <path class="cls-5" d="m347.39,78.55s-4.66-1.84-8.25-.29l.36,2s5.27-.45,7.92.63c.24-.77.27-1.55-.03-2.33Z"/>
        <path class="cls-5" d="m320.22,78.55s4.66-1.84,8.25-.29l-.36,2s-5.27-.45-7.92.63c-.24-.77-.27-1.55.03-2.33Z"/>
        <path class="cls-10" d="m334.43,96.33c.96,0,1.92-.38,2.07-.44.29-.12.43-.45.31-.74-.12-.29-.45-.43-.74-.31-.52.21-1.75.54-2.29.22-.1-.06-.24-.19-.28-.53-.21-1.99.34-8.68.35-8.75.03-.31-.21-.59-.52-.62-.32-.03-.59.21-.62.52-.02.28-.56,6.86-.34,8.96.08.79.5,1.19.83,1.39.37.22.8.3,1.24.3Z"/>
        <path class="cls-2" d="m326.76,99.23c.95,3.3,3.65,6.58,7.37,6.63,3.71-.05,6.41-3.33,7.36-6.63h-14.73Z"/>
        <path class="cls-10" d="m333.81,109.44c1.48,0,2.73-.75,2.78-.78.27-.16.36-.51.19-.78-.16-.27-.51-.36-.78-.19,0,0-1.04.62-2.19.62-1.06,0-2.07-.61-2.08-.61-.27-.17-.62-.08-.79.19-.17.27-.08.62.19.79.05.03,1.28.78,2.68.78Z"/>
        <path class="cls-5" d="m355.44,85.12h-2.59c.29-2.6.7-7.18-1.44-7.83-6.75-2.07,2-6.84-1.05-9.22-3.04-2.38-10.62-1.36-15.89-1.53-5.3-.17-13.83-.1-15.89.38-2.07.47-.94,3.92-.18,6.59.77,2.66-2.54,5.61-3.1,8.37-.16.79-.13,1.97,0,3.24h-2.16c-.26-3.36-.29-6.48-.25-9.02.09-4.44,2.51-8.49,6.37-10.68,10.46-5.93,21.5-3.72,28.76-.93,5.04,1.94,8.27,6.89,8.01,12.28-.12,2.56-.31,5.47-.6,8.35Z"/>
        <g>
          <path class="cls-2" d="m324.89,93.32c-3.57,0-6.47-2.9-6.47-6.47s2.9-6.47,6.47-6.47,6.47,2.9,6.47,6.47-2.9,6.47-6.47,6.47Zm0-11.93c-3.01,0-5.46,2.45-5.46,5.46s2.45,5.46,5.46,5.46,5.46-2.45,5.46-5.46-2.45-5.46-5.46-5.46Z"/>
          <path class="cls-2" d="m342.57,93.32c-3.57,0-6.47-2.9-6.47-6.47s2.9-6.47,6.47-6.47,6.47,2.9,6.47,6.47-2.9,6.47-6.47,6.47Zm0-11.93c-3.01,0-5.46,2.45-5.46,5.46s2.45,5.46,5.46,5.46,5.46-2.45,5.46-5.46-2.45-5.46-5.46-5.46Z"/>
          <path class="cls-2" d="m319.52,84.77c-.13,0-.26-.05-.35-.15h0s-2.97-2.88-6.82-1.98c-.27.06-.54-.11-.61-.38-.06-.27.11-.54.38-.61,4.41-1.03,7.63,2.11,7.76,2.25.2.2.2.52,0,.71-.1.1-.23.15-.36.15Z"/>
          <path class="cls-2" d="m348.06,84.77c-.16,0-.33-.08-.42-.23-.15-.23-.09-.55.15-.7.19-.13,4.77-3.08,8.66-2.44.27.05.46.3.42.58-.05.27-.3.46-.58.42-3.5-.58-7.9,2.26-7.95,2.29-.08.06-.18.08-.27.08Z"/>
          <path class="cls-2" d="m336.46,85.4s-1.21-1.64-2.78-1.64-2.64,1.62-2.65,1.63l-.84-.55c.06-.09,1.39-2.09,3.5-2.09s3.54,1.97,3.6,2.05l-.82.59Z"/>
        </g>
      </g>
      <g>
        <path class="cls-7" d="m297.97,178.5s-6.81,13.19-14.83,23.64c-2.37,3.08-4.84,5.93-7.27,8.12-3.94,3.56-7.79,5.42-10.92,3.84-11.62-5.86-37.52-52.47-37.52-52.47l6.38-7.57s11.53,13.31,19.96,21.28c7.78,7.35,13.75,12.84,13.75,12.84,1.08-1.64,2.22-3.43,3.42-5.33,1.27-2.02,2.58-4.15,3.92-6.35,9.71-15.94,20.48-35.07,20.48-35.07l2.64,37.07Z"/>
        <path class="cls-10" d="m283.13,202.14c-2.37,3.08-4.84,5.93-7.27,8.12l-4.94-27.41c1.27-2.02,2.58-4.15,3.92-6.35l8.29,25.63Z"/>
        <path class="cls-3" d="m295.33,141.43l-23.28,36.62,7.81,32.21,19.27-31.37s2.34-21.46-3.8-37.46Z"/>
      </g>
    </g>
    <g>
      <g>
        <path class="cls-3" d="m266.05,323.35c-1.66-9.22-3.3-19.61-4.79-29.7-.33-2.23-.65-4.45-.96-6.63-1.19-8.36-2.26-16.26-3.12-22.82-.33-2.49-.62-4.79-.89-6.84-.83-6.55-1.32-10.61-1.32-10.61l-36.77,1.39-36.88-1.39s-.95,8.05-2.47,19.71c-.28,2.12-.57,4.36-.89,6.7-.82,6.12-1.75,12.88-2.76,19.8-.01.1-.03.2-.05.3-.32,2.16-.63,4.33-.97,6.5,0,.03,0,.06-.01.09h0c-.79,5.25-1.62,10.5-2.46,15.54-.35,2.08-.7,4.13-1.05,6.12-.11.62-.22,1.23-.33,1.84h95.71Z"/>
        <g>
          <path class="cls-2" d="m189.79,257.79c0,1.91-1.55,3.47-3.47,3.47s-3.47-1.55-3.47-3.47,1.55-3.47,3.47-3.47,3.47,1.55,3.47,3.47Z"/>
          <path class="cls-2" d="m198.39,271.22c0,1.91-1.55,3.47-3.47,3.47s-3.47-1.55-3.47-3.47,1.55-3.47,3.47-3.47,3.47,1.55,3.47,3.47Z"/>
          <path class="cls-2" d="m215.31,264.29c0,1.91-1.55,3.47-3.47,3.47s-3.47-1.55-3.47-3.47,1.55-3.47,3.47-3.47,3.47,1.55,3.47,3.47Z"/>
          <path class="cls-2" d="m188.61,285.48c0,1.91-1.55,3.47-3.47,3.47s-3.47-1.55-3.47-3.47,1.55-3.47,3.47-3.47,3.47,1.55,3.47,3.47Z"/>
          <path class="cls-2" d="m209.75,284c0,1.91-1.55,3.47-3.47,3.47s-3.47-1.55-3.47-3.47,1.55-3.47,3.47-3.47,3.47,1.55,3.47,3.47Z"/>
          <path class="cls-2" d="m181.1,269.71c0,1.8-1.38,3.29-3.14,3.45.31-2.34.61-4.58.89-6.7,1.32.49,2.25,1.76,2.25,3.25Z"/>
          <path class="cls-2" d="m244.2,304.36c0,1.91-1.55,3.47-3.47,3.47s-3.47-1.55-3.47-3.47,1.55-3.47,3.47-3.47,3.47,1.55,3.47,3.47Z"/>
          <path class="cls-2" d="m242.57,285.48c0,1.91-1.55,3.47-3.47,3.47s-3.47-1.55-3.47-3.47,1.55-3.47,3.47-3.47,3.47,1.55,3.47,3.47Z"/>
          <path class="cls-2" d="m261.26,293.65c-.42.18-.88.27-1.36.27-1.91,0-3.46-1.55-3.46-3.46s1.55-3.46,3.46-3.46c.14,0,.27,0,.4.03.32,2.18.64,4.4.96,6.63Z"/>
          <path class="cls-2" d="m246.03,318.19c0,1.91-1.55,3.47-3.47,3.47s-3.47-1.55-3.47-3.47,1.55-3.47,3.47-3.47,3.47,1.55,3.47,3.47Z"/>
          <path class="cls-2" d="m260.86,312.66c0,1.91-1.55,3.47-3.47,3.47s-3.47-1.55-3.47-3.47,1.55-3.47,3.47-3.47,3.47,1.55,3.47,3.47Z"/>
          <path class="cls-2" d="m230.01,323.35c-.62-.91-1.67-1.51-2.86-1.51s-2.23.6-2.86,1.51h5.71Z"/>
          <path class="cls-2" d="m186.33,307.37c0,1.91-1.55,3.47-3.47,3.47s-3.47-1.55-3.47-3.47,1.55-3.47,3.47-3.47,3.47,1.55,3.47,3.47Z"/>
          <path class="cls-2" d="m177.19,296.42c0,1.76-1.31,3.21-3.01,3.43,0-.03.01-.06.01-.09.33-2.17.65-4.34.97-6.5,1.2.55,2.03,1.75,2.03,3.16Z"/>
          <path class="cls-2" d="m173.13,318.19c0,1.57-1.04,2.89-2.47,3.32.35-1.99.7-4.04,1.05-6.12.86.63,1.42,1.65,1.42,2.8Z"/>
          <path class="cls-2" d="m194.93,319.65c0,1.91-1.55,3.47-3.47,3.47s-3.47-1.55-3.47-3.47,1.55-3.47,3.47-3.47,3.47,1.55,3.47,3.47Z"/>
          <path class="cls-2" d="m213.22,316.94c0,1.91-1.55,3.47-3.47,3.47s-3.47-1.55-3.47-3.47,1.55-3.47,3.47-3.47,3.47,1.55,3.47,3.47Z"/>
          <path class="cls-2" d="m200.17,299.9c0,1.91-1.55,3.47-3.47,3.47s-3.47-1.55-3.47-3.47,1.55-3.47,3.47-3.47,3.47,1.55,3.47,3.47Z"/>
          <path class="cls-2" d="m218.78,296.44c0,1.91-1.55,3.47-3.47,3.47s-3.47-1.55-3.47-3.47,1.55-3.47,3.47-3.47,3.47,1.55,3.47,3.47Z"/>
          <path class="cls-2" d="m227.16,278.15c0,1.91-1.55,3.47-3.47,3.47s-3.47-1.55-3.47-3.47,1.55-3.47,3.47-3.47,3.47,1.55,3.47,3.47Z"/>
          <path class="cls-2" d="m257.18,264.2c-.24.06-.49.08-.74.08-1.92,0-3.46-1.55-3.46-3.46s1.47-3.39,3.32-3.46c.27,2.05.56,4.35.89,6.84Z"/>
          <path class="cls-2" d="m239.1,264.29c0,1.91-1.55,3.47-3.47,3.47s-3.47-1.55-3.47-3.47,1.55-3.47,3.47-3.47,3.47,1.55,3.47,3.47Z"/>
          <path class="cls-2" d="m251.79,276.64c0,1.91-1.55,3.47-3.47,3.47s-3.47-1.55-3.47-3.47,1.55-3.47,3.47-3.47,3.47,1.55,3.47,3.47Z"/>
          <path class="cls-2" d="m230.62,307.37c0,1.91-1.55,3.47-3.47,3.47s-3.47-1.55-3.47-3.47,1.55-3.47,3.47-3.47,3.47,1.55,3.47,3.47Z"/>
        </g>
        <path class="cls-3" d="m257.21,247.66c-19.4,12.66-55.01,11.67-77.39,0,2.14-13.32,4.95-26.65,4.35-44.37-.07-1.94-.15-3.87-.25-5.79-.09-1.66-.18-3.32-.29-4.95-1.93-29.49-6.96-53.6-4.49-56.71,1.08-1.36,2.88-2.84,5.1-4.34.87-.59,1.8-1.19,2.79-1.8,2.32-1.42,4.9-2.84,7.5-4.23,6.15-3.28,12.4-6.33,15.53-8.41,3.1,1.35,5.58,2.09,8.24,2.08.07,0,.15,0,.23,0,.07,0,.15,0,.22,0,2.66.01,5.14-.73,8.24-2.08,2.9,1.93,8.37,4.63,13.95,7.56,4.1,2.16,8.26,4.45,11.5,6.68,2.12,1.45,3.85,2.88,4.91,4.22,1.22,1.54.71,8.32-.34,18.35-1.04,9.87-2.59,22.91-3.53,37.23-.26,3.98-.47,8.06-.62,12.19-.6,17.72,2.21,31.06,4.35,44.37Z"/>
        <path class="cls-8" d="m245.34,232.93h0c-15.62-.07-28.95-7.18-37.39-13.13-9.12-6.44-14.65-12.96-14.7-13.02-.27-.32-.23-.79.09-1.06.32-.27.79-.23,1.06.09.05.06,5.48,6.46,14.45,12.79,8.25,5.82,21.28,12.76,36.49,12.83.42,0,.75.34.75.75,0,.41-.34.75-.75.75Z"/>
        <path class="cls-8" d="m235,223.84c-13.3-2.61-25.07-12.8-25.61-13.27-.31-.27-.34-.75-.07-1.06.27-.31.75-.34,1.06-.07.14.12,13.99,12.1,28.11,13.39.42.03.72.4.68.82-.04.41-.4.72-.82.68-1.13-.1-2.25-.27-3.36-.49Z"/>
        <path class="cls-8" d="m215.31,155.03c-.35,0-.67-.25-.74-.61-.08-.41.19-.8.6-.88,19.04-3.61,24.78-15.86,24.84-15.99.17-.38.62-.55.99-.38.38.17.55.62.37.99-.24.53-6.12,13.09-25.93,16.85-.05,0-.09.01-.14.01Z"/>
        <path class="cls-7" d="m240.93,124.61c-3.78,8.62-13.07,17.55-25.16,15.46-11.7-2.02-17.25-8.21-21.26-14.61,6.15-3.29,12.4-6.33,15.53-8.41,3.1,1.35,5.58,2.09,8.24,2.08.07,0,.15,0,.23,0,.07,0,.15,0,.23,0,2.66.01,5.14-.73,8.24-2.08,2.9,1.93,8.37,4.62,13.95,7.56Z"/>
        <path class="cls-2" d="m230.83,117.68c-.33,0-.6.26-.6.59,0,.48-.2,11.88-10.43,12.76-9.49.82-13.42-8.26-14.63-12.03-.07-.22-.28-.37-.51-.37h-.11c-.36,0-.62.36-.51.7,1.29,3.89,5.43,13.28,15.1,12.93.25,0,.51-.02.76-.05,11.32-.98,11.52-13.82,11.52-13.95,0-.33-.26-.6-.59-.6Z"/>
      </g>
      <g>
        <path class="cls-5" d="m238.06,57.1s9.14,14.16,8.14,28.91c-1,14.75,1.35,31.78-11.85,31.03-13.2-.75-36.74,5.29-44.23-6.2-7.48-11.49,47.94-53.75,47.94-53.75Z"/>
        <path class="cls-11" d="m241.45,83.14s2.37,21.38-7.77,27.27c-10.15,5.89-17.49-.69-17.49-.69,0,0,21.39-29.8,25.26-26.58Z"/>
        <g>
          <g>
            <path class="cls-10" d="m199.3,83.04s-3.64-4.86-6.35-.84c-2.71,4.02,1.12,15.88,7.75,12.98l-1.4-12.14Z"/>
            <path class="cls-9" d="m199.26,91.52c-.24,0-.47-.16-.54-.41-1.03-3.66-4.82-5.15-4.86-5.16-.29-.11-.43-.43-.32-.72.11-.29.43-.43.72-.33.18.07,4.36,1.69,5.54,5.91.08.3-.09.61-.39.69-.05.01-.1.02-.15.02Z"/>
            <path class="cls-9" d="m195.43,89.68c-.1,0-.21-.03-.3-.09-.26-.17-.34-.51-.17-.77.03-.04.7-1.07,2.1-1.7.28-.13.61,0,.74.28.13.28,0,.61-.28.74-1.09.49-1.61,1.27-1.62,1.28-.11.17-.29.26-.47.26Z"/>
          </g>
          <g>
            <path class="cls-10" d="m236.85,83.04s3.64-4.86,6.35-.84c2.71,4.02-1.12,15.88-7.75,12.98l1.4-12.14Z"/>
            <path class="cls-9" d="m236.9,91.52c.25,0,.47-.16.54-.41,1.03-3.66,4.82-5.15,4.86-5.16.29-.11.43-.43.32-.72-.11-.29-.43-.43-.72-.33-.18.07-4.36,1.69-5.54,5.91-.08.3.09.61.39.69.05.01.1.02.15.02Z"/>
            <path class="cls-9" d="m240.73,89.68c.1,0,.21-.03.3-.09.26-.17.34-.51.17-.77-.03-.04-.7-1.07-2.1-1.7-.28-.13-.61,0-.74.28-.13.28,0,.61.28.74,1.09.49,1.61,1.27,1.62,1.28.11.17.29.26.47.26Z"/>
          </g>
          <path class="cls-7" d="m227.04,105.25v11.8s-3.52,6.01-8.28,6.42c-4.75.41-8.98-5.17-8.98-5.17v-12.21l17.25-.83Z"/>
          <path class="cls-10" d="m227.04,105.25v5.23c-3.19,3.54-8.86,4.8-17.25,3.56v-7.97s17.25-.83,17.25-.83Z"/>
          <path class="cls-7" d="m239.48,74.95c-.22,4.58-.66,10.32-1.53,14.9-.22,1.14-.47,2.22-.74,3.18-2.48,8.69-8.69,23.6-26.08,17.39-7.68-2.74-11.24-11.29-12.82-19.99-1.08-5.91-1.24-11.88-1.16-16.14.08-4.35,2.46-8.33,6.25-10.48,10.26-5.82,21.09-3.65,28.22-.91,4.95,1.9,8.12,6.76,7.86,12.04Z"/>
          <path class="cls-5" d="m210.42,83.74c0,1.26-.65,2.28-1.45,2.28s-1.45-1.02-1.45-2.28.65-2.28,1.45-2.28,1.45,1.02,1.45,2.28Z"/>
          <path class="cls-5" d="m228.32,83.74c0,1.26-.65,2.28-1.45,2.28s-1.45-1.02-1.45-2.28.65-2.28,1.45-2.28,1.45,1.02,1.45,2.28Z"/>
          <path class="cls-5" d="m206.1,76.95c1.2-.34,3.64-.92,6.2-.93.68,0,1.19.6,1.07,1.26v.02c-.1.53-.57.91-1.11.88-1.75-.08-6.33.16-8.49,1.04-.04-.38.18-.79.49-1.15.48-.55,1.13-.92,1.84-1.12Z"/>
          <path class="cls-5" d="m229.52,76.99c-1.2-.34-3.64-.92-6.2-.93-.67,0-1.19.6-1.07,1.26v.02c.1.53.57.91,1.11.88,1.75-.08,6.33.16,8.49,1.04.04-.38-.18-.79-.49-1.15-.48-.55-1.13-.92-1.84-1.12Z"/>
          <path class="cls-10" d="m218.27,94.14c-.43,0-.86-.08-1.22-.29-.33-.2-.73-.59-.81-1.37-.21-2.06.31-8.52.34-8.79.03-.31.3-.54.6-.51.31.03.54.3.51.6,0,.07-.54,6.63-.34,8.58.04.34.17.46.28.52.53.32,1.74,0,2.25-.21.29-.12.61.02.73.31.12.29-.02.61-.31.73-.15.06-1.08.43-2.03.43Z"/>
          <path class="cls-2" d="m211.15,97.68c.42,2.13,1.83,6.05,6.58,6.05s6.09-3.58,6.55-6.05h-13.12Z"/>
          <path class="cls-10" d="m217.66,107c-1.37,0-2.58-.74-2.63-.77-.26-.16-.34-.51-.18-.77.16-.26.51-.34.77-.18h0s1,.6,2.04.6c1.13,0,2.14-.6,2.15-.6.27-.16.61-.07.77.19.16.26.08.61-.19.77-.05.03-1.28.77-2.73.77Z"/>
        </g>
        <path class="cls-5" d="m241.74,74.04c-.18.51-.68.84-1.35,1.03.05,1.24-.08,2.72-.2,4.15-.69,8.1-2.74,9.52-3.2,7.52-.3-1.33-.29-8.96-.14-11.45-1.6-.11-2.97-.37-2.97-.37l-1.88-7.86-.66,7.77c-2.82.98-9.39-.59-9.39-.59l-2.21-7.75-1.36,7.46c-4.23,2.06-9.51.69-9.51.69l-1.21-8.05-2.8,8.05s-9.02,3.24-9.12,0c-.06-1.88,1.32-7.18,2.48-11.29,1.27-4.48,4.21-8.26,8.19-10.4,11.19-6,23.02-2.81,27.07-.39,8.61,5.14,8.25,21.49,8.25,21.49Z"/>
        <path class="cls-5" d="m200.7,57.7s-7.42,8.83-9.87,24.6c-2.44,15.77-5.82,27.42,3.68,32.63,10.29,5.64,9.4-5.92,9.25-9.06-.15-3.14-8.9-11.73-3.06-35.91,1.89-7.81,0-12.25,0-12.25Z"/>
        <path class="cls-11" d="m198.97,90.29v.02c0,.12.01.74.06,1.72.02.61.06,1.35.12,2.19.35,5.31,1.38,14.49,4.42,17.67,1.2,1.26,3.51,1.89,6.23,2.15v-4.17c-2.87-1.36-5.1-3.6-6.84-6.35-1.07-2.32-2.92-5.95-3.78-11.66l-.21-1.57Z"/>
        <path class="cls-2" d="m239.62,95.45c0,.73-.59,1.31-1.31,1.31s-1.31-.59-1.31-1.31.59-1.31,1.31-1.31,1.31.59,1.31,1.31Z"/>
      </g>
      <g>
        <path class="cls-3" d="m266.38,194.37c-3.72,10.65-20.38,9.87-39.35,4.05-.03,0-.05-.02-.08-.02-.06-.02-.12-.04-.18-.06l-2.61-.83c-.36-.12-.72-.24-1.08-.36-2.04-.68-4.1-1.42-6.17-2.21-6.78-2.57-13.61-5.63-20.05-8.88l.04-.11,1.94-5.04.66-1.71s35.17,3.83,52.86.14c.3-.06.59-.12.88-.19-.07-.39-.09-.79-.2-1.17-9.37-31.9.88-38.02,4.31-42.47,0,0,16.06,38.77,9.04,58.87Z"/>
        <path class="cls-8" d="m260.65,184.5c-.1.05-.22.07-.33.07-.28,0-.54-.15-.67-.42-1.34-2.74-5.89-4.38-7.29-4.82.3-.06.59-.12.88-.19-.07-.39-.14-.78-.2-1.17,1.78.59,6.42,2.38,7.96,5.53.18.37.03.82-.34,1Z"/>
        <path class="cls-8" d="m211.38,183.16c-7.18,0-13.01-.41-13.51-.45-.41-.03-.72-.39-.69-.8.03-.41.39-.72.8-.69.27.02,26.65,1.89,37.05-2.33.38-.16.82.03.98.41.16.38-.03.82-.41.98-5.76,2.34-15.89,2.89-24.21,2.89Z"/>
        <path class="cls-8" d="m224.16,197.51h0c6.02-1.66,11.49-3.28,14.65-4.29,4.39-1.41,8.02-5.84,9.67-9.61.16-.38.61-.55.99-.39.38.16.55.61.39.99-1.78,4.08-5.75,8.89-10.58,10.44-2.29.74-5.79,1.78-9.84,2.94-1.72.49-3.56.46-5.27-.08h0Z"/>
        <path class="cls-3" d="m240.38,192.36c-54.36,18.31-71.08,6.33-71.08,6.33-3.66-33.09,9.83-62.85,9.83-62.85,3.98,6.57,8.49,18.03,8.49,18.03l1.19,25.37-.09.7-.04.33-.22,1.73v.03c.11.02.23.05.34.07,16.44,3.47,46.51-.41,46.51-.41l5.07,10.65Z"/>
        <path class="cls-8" d="m188.8,182.12c-2.93,2.46-5.72,5.29-8.21,8.55-.25.33-.72.39-1.05.14-.33-.25-.39-.72-.14-1.05,0,0,0,0,0,0,2.79-3.67,5.96-6.81,9.28-9.49l-.22,1.73v.03c.11.02.23.05.34.07Z"/>
        <path class="cls-7" d="m235.31,181.71s6.02-13.67,15.17-12.45l2.76,9.88c-5.01,2.13-5.74,10.71-12.85,13.22l-5.07-10.65Z"/>
        <path class="cls-7" d="m199.5,179.2s-3.8-8.92-13.8-11.51c-10-2.59-16.37,2.12-17.05,3.9-.67,1.78,3.77.08,3.77.08,0,0-2.89.82-4.55,3.54-1.66,2.72,4.04-.21,4.04-.21,0,0-4.09,1.79-4.61,3.45-.52,1.66,4.87-1.15,5.89-1.09,0,0-4.81,1.91-4.78,3.63.03,1.71,5.53-1.08,9.64-.86,4.11.22,10.4,1.92,10.4,1.92,3.36.64,6.57,1.11,9.48,1.25l1.58-4.09Z"/>
      </g>
    </g>
    <g>
      <g>
        <g>
          <path class="cls-3" d="m296.08,40.5c-3.7,0-6.71-3.01-6.71-6.71s3.01-6.71,6.71-6.71,6.71,3.01,6.71,6.71-3.01,6.71-6.71,6.71Zm0-11.32c-2.54,0-4.61,2.07-4.61,4.61s2.07,4.61,4.61,4.61,4.61-2.07,4.61-4.61-2.07-4.61-4.61-4.61Z"/>
          <path class="cls-3" d="m354.66,29.1c-3.7,0-6.71-3.01-6.71-6.71s3.01-6.71,6.71-6.71,6.71,3.01,6.71,6.71-3.01,6.71-6.71,6.71Zm0-11.32c-2.54,0-4.61,2.07-4.61,4.61s2.07,4.61,4.61,4.61,4.61-2.07,4.61-4.61-2.07-4.61-4.61-4.61Z"/>
          <g>
            <g>
              <path class="cls-3" d="m362.95,50.91c-.58,0-1.05-.47-1.05-1.05v-4.64c0-.58.47-1.05,1.05-1.05s1.05.47,1.05,1.05v4.64c0,.58-.47,1.05-1.05,1.05Z"/>
              <path class="cls-3" d="m362.95,59.04c-.58,0-1.05-.47-1.05-1.05v-4.64c0-.58.47-1.05,1.05-1.05s1.05.47,1.05,1.05v4.64c0,.58-.47,1.05-1.05,1.05Z"/>
            </g>
            <g>
              <path class="cls-3" d="m369.47,52.66h-4.17c-.58,0-1.05-.47-1.05-1.05s.47-1.05,1.05-1.05h4.17c.58,0,1.05.47,1.05,1.05s-.47,1.05-1.05,1.05Z"/>
              <path class="cls-3" d="m360.61,52.66h-4.17c-.58,0-1.05-.47-1.05-1.05s.47-1.05,1.05-1.05h4.17c.58,0,1.05.47,1.05,1.05s-.47,1.05-1.05,1.05Z"/>
            </g>
          </g>
          <g>
            <g>
              <path class="cls-3" d="m327.49,22.78c-.58,0-1.05-.47-1.05-1.05v-4.64c0-.58.47-1.05,1.05-1.05s1.05.47,1.05,1.05v4.64c0,.58-.47,1.05-1.05,1.05Z"/>
              <path class="cls-3" d="m327.49,30.91c-.58,0-1.05-.47-1.05-1.05v-4.64c0-.58.47-1.05,1.05-1.05s1.05.47,1.05,1.05v4.64c0,.58-.47,1.05-1.05,1.05Z"/>
            </g>
            <g>
              <path class="cls-3" d="m334.01,24.52h-4.17c-.58,0-1.05-.47-1.05-1.05s.47-1.05,1.05-1.05h4.17c.58,0,1.05.47,1.05,1.05s-.47,1.05-1.05,1.05Z"/>
              <path class="cls-3" d="m325.14,24.52h-4.17c-.58,0-1.05-.47-1.05-1.05s.47-1.05,1.05-1.05h4.17c.58,0,1.05.47,1.05,1.05s-.47,1.05-1.05,1.05Z"/>
            </g>
          </g>
        </g>
        <g>
          <path class="cls-3" d="m56.12,16.75c0-3.7,3.01-6.71,6.71-6.71s6.71,3.01,6.71,6.71-3.01,6.71-6.71,6.71-6.71-3.01-6.71-6.71Zm2.11,0c0,2.54,2.07,4.61,4.61,4.61s4.61-2.07,4.61-4.61-2.07-4.61-4.61-4.61-4.61,2.07-4.61,4.61Z"/>
          <path class="cls-3" d="m29.15,42.34c0-3.7,3.01-6.71,6.71-6.71s6.71,3.01,6.71,6.71-3.01,6.71-6.71,6.71-6.71-3.01-6.71-6.71Zm2.11,0c0,2.54,2.07,4.61,4.61,4.61s4.61-2.07,4.61-4.61-2.07-4.61-4.61-4.61-4.61,2.07-4.61,4.61Z"/>
          <g>
            <g>
              <path class="cls-3" d="m15.2,51.77c.58,0,1.05-.47,1.05-1.05v-4.64c0-.58-.47-1.05-1.05-1.05s-1.05.47-1.05,1.05v4.64c0,.58.47,1.05,1.05,1.05Z"/>
              <path class="cls-3" d="m15.2,59.89c.58,0,1.05-.47,1.05-1.05v-4.64c0-.58-.47-1.05-1.05-1.05s-1.05.47-1.05,1.05v4.64c0,.58.47,1.05,1.05,1.05Z"/>
            </g>
            <g>
              <path class="cls-3" d="m8.68,53.51h4.17c.58,0,1.05-.47,1.05-1.05s-.47-1.05-1.05-1.05h-4.17c-.58,0-1.05.47-1.05,1.05s.47,1.05,1.05,1.05Z"/>
              <path class="cls-3" d="m17.54,53.51h4.17c.58,0,1.05-.47,1.05-1.05s-.47-1.05-1.05-1.05h-4.17c-.58,0-1.05.47-1.05,1.05s.47,1.05,1.05,1.05Z"/>
            </g>
          </g>
          <g>
            <g>
              <path class="cls-3" d="m39.46,16.07c.58,0,1.05-.47,1.05-1.05v-4.64c0-.58-.47-1.05-1.05-1.05s-1.05.47-1.05,1.05v4.64c0,.58.47,1.05,1.05,1.05Z"/>
              <path class="cls-3" d="m39.46,24.19c.58,0,1.05-.47,1.05-1.05v-4.64c0-.58-.47-1.05-1.05-1.05s-1.05.47-1.05,1.05v4.64c0,.58.47,1.05,1.05,1.05Z"/>
            </g>
            <g>
              <path class="cls-3" d="m32.94,17.81h4.17c.58,0,1.05-.47,1.05-1.05s-.47-1.05-1.05-1.05h-4.17c-.58,0-1.05.47-1.05,1.05s.47,1.05,1.05,1.05Z"/>
              <path class="cls-3" d="m41.81,17.81h4.17c.58,0,1.05-.47,1.05-1.05s-.47-1.05-1.05-1.05h-4.17c-.58,0-1.05.47-1.05,1.05s.47,1.05,1.05,1.05Z"/>
            </g>
          </g>
        </g>
      </g>
      <g>
        <g>
          <path class="cls-3" d="m240.24,17.24c-.12.01-.25,0-.37-.05-1.28-.54-2.03-.79-2.03-.79-.39-.13-.6-.55-.47-.95.13-.39.55-.6.95-.47.03.01.8.27,2.14.83.38.16.56.6.4.98-.11.26-.35.43-.61.45Z"/>
          <g>
            <path class="cls-3" d="m278.35,57.34c.51,1.36.98,2.76,1.42,4.16.11.35.44.56.79.52.05,0,.09-.01.14-.03.39-.12.62-.54.49-.93-.44-1.43-.93-2.86-1.44-4.24-.14-.39-.57-.58-.96-.44-.39.15-.58.58-.44.96Z"/>
            <path class="cls-3" d="m280.93,65.74c.34,1.4.65,2.85.92,4.3.07.39.43.65.81.61.02,0,.04,0,.06,0,.41-.08.67-.47.6-.87-.27-1.48-.59-2.95-.94-4.38-.1-.4-.5-.65-.9-.55-.4.1-.65.5-.55.9Z"/>
            <path class="cls-3" d="m284.08,88.32c.37-.04.66-.35.67-.73.02-1.5.01-3.01-.03-4.47-.01-.41-.36-.74-.77-.72-.42.01-.74.36-.72.77.04,1.45.05,2.93.03,4.41,0,.41.32.75.74.76.03,0,.06,0,.09,0Z"/>
            <path class="cls-3" d="m283.18,73.55c-.41.05-.7.43-.64.84.09.68.17,1.36.24,2.03.08.77.15,1.56.22,2.35.03.41.39.72.8.69,0,0,.01,0,.02,0,.4-.04.7-.4.67-.8-.06-.8-.14-1.6-.22-2.39-.07-.68-.15-1.38-.24-2.07-.05-.4-.42-.69-.82-.65,0,0-.01,0-.02,0Z"/>
            <path class="cls-3" d="m276.68,53.28c.14.3.45.47.76.44.08,0,.15-.03.23-.06.38-.17.55-.61.38-.99-.61-1.36-1.27-2.72-1.96-4.04-.19-.37-.64-.51-1.01-.31-.37.19-.51.64-.31,1.01.68,1.29,1.32,2.62,1.92,3.95Z"/>
            <path class="cls-3" d="m243.84,19.04c1.28.66,2.58,1.37,3.85,2.12.14.09.3.12.46.1.23-.02.44-.15.57-.36.21-.36.09-.81-.26-1.02-1.3-.77-2.62-1.5-3.93-2.17-.37-.19-.82-.04-1.01.33-.19.37-.04.82.33,1.01Z"/>
            <path class="cls-3" d="m254.98,26.08c.16.12.35.17.53.15.2-.02.39-.12.52-.29.25-.33.19-.8-.14-1.05-1.18-.9-2.41-1.78-3.64-2.62-.34-.23-.81-.14-1.04.2-.23.34-.14.81.2,1.04,1.21.82,2.41,1.68,3.57,2.57Z"/>
            <path class="cls-3" d="m267.55,38.32c.17.21.42.3.66.28.14-.01.27-.07.39-.16.32-.26.37-.73.12-1.05-.93-1.16-1.91-2.31-2.91-3.41-.28-.31-.75-.33-1.06-.05-.31.28-.33.75-.05,1.06.98,1.08,1.94,2.21,2.85,3.34Z"/>
            <path class="cls-3" d="m261.64,31.82c.17.16.39.23.6.21.17-.02.33-.09.46-.22.29-.3.28-.77-.01-1.06-1.06-1.03-2.18-2.05-3.31-3.03-.31-.27-.79-.23-1.05.08-.27.31-.23.78.08,1.05,1.11.96,2.2,1.96,3.24,2.97Z"/>
            <path class="cls-3" d="m272.59,45.51c.16.25.44.38.72.35.11-.01.21-.05.31-.11.35-.22.46-.68.25-1.03-.78-1.27-1.6-2.53-2.46-3.75-.24-.34-.7-.42-1.04-.18-.34.24-.42.7-.18,1.04.84,1.19,1.65,2.43,2.41,3.67Z"/>
          </g>
        </g>
        <g>
          <polygon class="cls-3" points="240.22 12.12 243.49 0 203.4 .34 240.22 12.12"/>
          <polygon class="cls-3" points="203.4 .34 238.28 15.05 238.37 15.09 239.87 17.57 240.22 12.12 203.4 .34"/>
          <polygon class="cls-3" points="239.87 17.57 236.62 17.06 238.37 15.09 239.87 17.57"/>
          <polygon class="cls-3" points="233.98 13.24 238.37 15.09 229.33 25.27 203.4 .34 233.98 13.24"/>
        </g>
      </g>
    </g>
    <g>
      <path class="cls-6" d="m21.02,323.35h395.95c4.21,0,7.63,3.42,7.63,7.63v.73c0,4.21-3.42,7.63-7.63,7.63H21.02c-4.21,0-7.63-3.42-7.63-7.63v-.73c0-4.21,3.42-7.63,7.63-7.63Z"/>
      <path class="cls-6" d="m424.6,330.98v.37H13.39v-.37c0-4.21,3.42-7.63,7.63-7.63h395.95c4.22,0,7.63,3.42,7.63,7.63Z"/>
    </g>
    <g>
      <rect class="cls-2" x="149.82" y="223.5" width="135.15" height="75.84" rx="5.38" ry="5.38"/>
      <rect class="cls-11" x="206.93" y="299.26" width="20.93" height="23.86"/>
      <circle class="cls-1" cx="217.16" cy="262.35" r="10.39"/>
      <path class="cls-5" d="m196.72,314.65h40.7c3.67,0,6.65,2.98,6.65,6.65v1.82h-53.99v-1.82c0-3.67,2.98-6.65,6.65-6.65Z"/>
    </g>
    <g>
      <path class="cls-2" d="m347.37,164.78c-.07-.13-.15-.26-.22-.38-.37.59-.95.82-1.43.9-.03,0-.07.01-.11.01.05.09.1.19.15.3h0s.01.04.02.05c.29,0,.64-.07.96-.25.27-.15.48-.36.64-.63Z"/>
      <path class="cls-2" d="m345.29,164.77c.06.09.12.19.18.29.28-.02.61-.09.92-.28.26-.15.46-.37.61-.64-.05-.06-.12-.16-.22-.29-.39.63-.99.85-1.49.92Z"/>
      <path class="cls-2" d="m344.86,164.21c.08.1.17.2.26.32.26-.02.55-.08.82-.23.28-.15.5-.38.66-.67-.08-.1-.16-.2-.25-.31-.39.61-.99.82-1.49.88Z"/>
      <path class="cls-2" d="m347.03,166.06c.28-.13.5-.32.67-.58-.06-.15-.13-.29-.2-.43-.39.57-.97.78-1.45.84-.04,0-.1.01-.16.01.01.02.02.05.03.07.01.03.03.06.04.1,0,0,0,.02,0,.02.02.05.04.1.05.14.29.01.66-.02,1-.18Z"/>
      <path class="cls-2" d="m326.95,173.09c.07.15.15.3.23.45.31-.67.88-.96,1.37-1.08.03,0,.07-.02.11-.03-.05-.11-.1-.21-.14-.32-.29.02-.64.1-.96.3-.27.16-.47.39-.61.68Z"/>
      <path class="cls-2" d="m328.96,173.01s.03,0,.05-.01c-.08-.13-.16-.24-.21-.33-.27.05-.58.15-.85.35-.28.2-.48.48-.6.83.08.13.16.26.24.39.28-.74.87-1.07,1.38-1.22Z"/>
      <path class="cls-2" d="m328.22,171.89c.06-.01.13-.02.21-.03-.32-.85-.49-1.75-.49-2.7,0-2.84,1.54-5.36,3.9-6.89l5.46,5.73,5.52-5.59c.48.33.93.71,1.33,1.12,0,0,.2.13.49.43.27-.01.59-.07.89-.23.27-.14.48-.35.64-.62-.27-.32-.56-.64-.82-.87-.83-.81-1.8-1.49-2.88-2.02l-.83.87-4.34,4.4-3.84-4.09s0,0,.01,0l-1.23-1.31c-3.65,1.66-6.16,5.1-6.16,9.05,0,1.28.27,2.5.75,3.63.36-.58.92-.81,1.39-.9Z"/>
      <path class="cls-2" d="m329.73,174.05c-.08-.1-.15-.21-.23-.32-.21.06-.43.15-.63.29-.33.23-.55.57-.66,1,.09.1.18.2.26.29.24-.74.77-1.1,1.26-1.27Z"/>
      <path class="cls-2" d="m329.34,173.51c-.07-.1-.13-.19-.19-.28-.25.06-.54.17-.8.37-.29.23-.49.53-.59.91.08.09.15.19.23.28.26-.77.83-1.12,1.34-1.28Z"/>
      <path class="cls-2" d="m347.82,165.76c-.43.54-1.02.7-1.5.73-.04,0-.08,0-.13,0-.02,0-.04,0-.07,0,.31.85.49,1.76.49,2.7,0,.2,0,.41-.02.61,0,.01,0,.02,0,.03-.01.18-.04.35-.06.52-.01.08-.03.15-.04.23-.01.07-.03.13-.04.19-.1.46-.23.9-.41,1.32v.02c-.62,1.53-1.71,2.85-3.11,3.82l-5.62-5.65-5.36,5.79c-.65-.43-1.25-.92-1.76-1.49-.09-.09-.19-.21-.29-.34-.19.06-.38.14-.56.27-.33.23-.56.57-.67,1.01.35.38.61.65.61.65.88.84,1.92,1.54,3.07,2.06l1.23-1.31s0,0-.01,0l3.79-4.09,4.39,4.41.83.87c3.11-1.51,5.34-4.32,5.8-7.63,0-.02,0-.03,0-.05.01-.1.03-.2.04-.3,0-.07.01-.13.02-.2,0-.03,0-.06,0-.09.02-.23.03-.46.03-.7,0-1.19-.23-2.34-.65-3.4Z"/>
    </g>
    <g>
      <path class="cls-2" d="m230.76,163.16c-.07-.13-.15-.26-.22-.38-.37.59-.95.82-1.43.9-.03,0-.07.01-.11.01.05.09.1.19.15.3h0s.01.04.02.05c.29,0,.64-.07.96-.25.27-.15.48-.36.64-.63Z"/>
      <path class="cls-2" d="m228.67,163.16c.06.09.12.19.18.29.28-.02.61-.09.92-.28.26-.15.46-.37.61-.64-.05-.06-.12-.16-.22-.29-.39.63-.99.85-1.49.92Z"/>
      <path class="cls-2" d="m228.25,162.59c.08.1.17.2.26.32.26-.02.55-.08.82-.23.28-.15.5-.38.66-.67-.08-.1-.16-.2-.25-.31-.39.61-.99.82-1.49.88Z"/>
      <path class="cls-2" d="m230.42,164.45c.28-.13.5-.32.67-.58-.06-.15-.13-.29-.2-.43-.39.57-.97.78-1.45.84-.04,0-.1.01-.16.01.01.02.02.05.03.07.01.03.03.06.04.1,0,0,0,.02,0,.02.02.05.04.1.05.14.29.01.66-.02,1-.18Z"/>
      <path class="cls-2" d="m210.34,171.47c.07.15.15.3.23.45.31-.67.88-.96,1.37-1.08.03,0,.07-.02.11-.03-.05-.11-.1-.21-.14-.32-.29.02-.64.1-.96.3-.27.16-.47.39-.61.68Z"/>
      <path class="cls-2" d="m212.35,171.4s.03,0,.05-.01c-.08-.13-.16-.24-.21-.33-.27.05-.58.15-.85.35-.28.2-.48.48-.6.83.08.13.16.26.24.39.28-.74.87-1.07,1.38-1.22Z"/>
      <path class="cls-2" d="m211.6,170.27c.06-.01.13-.02.21-.03-.32-.85-.49-1.75-.49-2.7,0-2.84,1.54-5.36,3.9-6.89l5.46,5.73,5.52-5.59c.48.33.93.71,1.33,1.12,0,0,.2.13.49.43.27-.01.59-.07.89-.23.27-.14.48-.35.64-.62-.27-.32-.56-.64-.82-.87-.83-.81-1.8-1.49-2.88-2.02l-.83.87-4.34,4.4-3.84-4.09s0,0,.01,0l-1.23-1.31c-3.65,1.66-6.16,5.1-6.16,9.05,0,1.28.27,2.5.75,3.63.36-.58.92-.81,1.39-.9Z"/>
      <path class="cls-2" d="m213.11,172.44c-.08-.1-.15-.21-.23-.32-.21.06-.43.15-.63.29-.33.23-.55.57-.66,1,.09.1.18.2.26.29.24-.74.77-1.1,1.26-1.27Z"/>
      <path class="cls-2" d="m212.73,171.89c-.07-.1-.13-.19-.19-.28-.25.06-.54.17-.8.37-.29.23-.49.53-.59.91.08.09.15.19.23.28.26-.77.83-1.12,1.34-1.28Z"/>
      <path class="cls-2" d="m231.21,164.15c-.43.54-1.02.7-1.5.73-.04,0-.08,0-.13,0-.02,0-.04,0-.07,0,.31.85.49,1.76.49,2.7,0,.2,0,.41-.02.61,0,.01,0,.02,0,.03-.01.18-.04.35-.06.52-.01.08-.03.15-.04.23-.01.07-.03.13-.04.19-.1.46-.23.9-.41,1.32v.02c-.62,1.53-1.71,2.85-3.11,3.82l-5.62-5.65-5.36,5.79c-.65-.43-1.25-.92-1.76-1.49-.09-.09-.19-.21-.29-.34-.19.06-.38.14-.56.27-.33.23-.56.57-.67,1.01.35.38.61.65.61.65.88.84,1.92,1.54,3.07,2.06l1.23-1.31s0,0-.01,0l3.79-4.09,4.39,4.41.83.87c3.11-1.51,5.34-4.32,5.8-7.63,0-.02,0-.03,0-.05.01-.1.03-.2.04-.3,0-.07.01-.13.02-.2,0-.03,0-.06,0-.09.02-.23.03-.46.03-.7,0-1.19-.23-2.34-.65-3.4Z"/>
    </g>
    <g>
      <path class="cls-2" d="m136.56,157.89c-.05-.09-.1-.18-.16-.27-.27.43-.68.59-1.03.65-.02,0-.05,0-.08.01.04.07.07.14.11.21h0s.01.03.02.04c.21,0,.46-.05.69-.18.19-.11.34-.26.46-.46Z"/>
      <path class="cls-2" d="m135.06,157.89c.04.07.09.14.13.21.2-.02.44-.07.66-.2.19-.11.33-.27.44-.46-.03-.05-.09-.12-.16-.21-.28.45-.71.61-1.07.66Z"/>
      <path class="cls-2" d="m134.76,157.49c.06.07.12.15.18.23.18-.01.39-.06.59-.16.2-.11.36-.27.48-.48-.06-.07-.12-.14-.18-.22-.28.43-.71.59-1.07.63Z"/>
      <path class="cls-2" d="m136.32,158.82c.2-.09.36-.23.48-.42-.05-.1-.09-.21-.14-.31-.28.41-.7.56-1.04.61-.03,0-.07,0-.12.01,0,.02.02.03.02.05.01.02.02.05.03.07,0,0,0,.01,0,.02.01.03.03.07.04.1.21,0,.47-.01.72-.13Z"/>
      <path class="cls-2" d="m121.9,163.86c.05.11.11.22.16.32.22-.48.63-.69.98-.78.02,0,.05-.01.08-.02-.04-.08-.07-.15-.1-.23-.21.02-.46.07-.69.21-.19.12-.34.28-.44.49Z"/>
      <path class="cls-2" d="m123.34,163.8s.02,0,.03,0c-.06-.09-.11-.18-.15-.24-.19.04-.42.11-.61.25-.2.15-.35.35-.43.59.05.09.11.19.17.28.2-.53.62-.77.99-.88Z"/>
      <path class="cls-2" d="m122.81,163s.1-.01.15-.02c-.23-.61-.35-1.26-.35-1.94,0-2.04,1.11-3.84,2.8-4.95l3.92,4.11,3.96-4.01c.35.24.67.51.96.81,0,0,.15.1.36.31.19,0,.43-.05.64-.17.19-.1.34-.25.46-.44-.19-.23-.4-.46-.59-.62-.6-.58-1.29-1.07-2.07-1.45l-.59.63-3.11,3.16-2.76-2.94s0,0,0,0l-.88-.94c-2.62,1.2-4.42,3.66-4.42,6.5,0,.92.19,1.79.53,2.6.26-.42.66-.58,1-.65Z"/>
      <path class="cls-2" d="m123.89,164.55c-.05-.07-.11-.15-.16-.23-.15.04-.31.1-.45.21-.24.17-.4.41-.48.72.06.07.13.14.19.21.17-.53.55-.79.91-.91Z"/>
      <path class="cls-2" d="m123.62,164.16c-.05-.07-.09-.14-.14-.2-.18.04-.39.12-.57.26-.21.16-.35.38-.42.65.05.07.11.14.17.2.18-.55.59-.8.96-.92Z"/>
      <path class="cls-2" d="m136.88,158.6c-.31.39-.73.51-1.08.53-.03,0-.06,0-.09,0-.01,0-.03,0-.05,0,.23.61.35,1.26.35,1.94,0,.15,0,.29-.02.43,0,0,0,.02,0,.02,0,.13-.03.25-.04.37,0,.06-.02.11-.03.17,0,.05-.02.09-.03.14-.07.33-.17.65-.29.95v.02c-.45,1.1-1.23,2.04-2.23,2.74l-4.04-4.05-3.85,4.15c-.47-.31-.9-.66-1.26-1.07-.06-.06-.14-.15-.21-.24-.13.04-.27.1-.4.19-.24.17-.4.41-.48.72.25.28.44.47.44.47.63.6,1.38,1.1,2.2,1.48l.88-.94s0,0,0,0l2.72-2.94,3.15,3.16.59.63c2.23-1.09,3.83-3.1,4.17-5.48,0-.01,0-.02,0-.04,0-.07.02-.14.03-.21,0-.05,0-.1.01-.15,0-.02,0-.04,0-.06.01-.17.02-.33.02-.5,0-.86-.17-1.68-.47-2.44Z"/>
    </g>
  </g>
</svg>